<svg xmlns="http://www.w3.org/2000/svg" width="54.541" height="50" viewBox="0 0 54.541 50">
  <g id="그룹_253" data-name="그룹 253" transform="translate(-2393 -3308)">
    <path id="패스_300" data-name="패스 300" d="M2581.666,3485.2l-1.573,4.434h3.143Z" transform="translate(-167.163 -158.319)" fill="#fff"/>
    <path id="패스_301" data-name="패스 301" d="M2420.27,3308c-15.06,0-27.271,9.563-27.271,21.359,0,7.627,5.1,14.319,12.783,18.1-2.952,10.113-3.029,10.158-2.529,10.451.627.366,1.441-.011,12.174-7.524a34.881,34.881,0,0,0,4.843.336c15.06,0,27.271-9.563,27.271-21.36S2435.331,3308,2420.27,3308Zm-13.5,27.323a1.575,1.575,0,0,1-3.145,0v-9.286h-2.454a1.531,1.531,0,1,1,0-3.061h8.056a1.531,1.531,0,1,1,0,3.061h-2.454Zm12.222,1.473c-1.636,0-1.334-1.284-2.089-2.716h-4.8c-.748,1.42-.455,2.716-2.089,2.716-1.575,0-1.852-.957-1.373-2.434l3.763-9.84a2.2,2.2,0,0,1,4.193,0C2419.082,3332.225,2422.629,3336.8,2418.989,3336.8Zm8.952-.209h-5.048c-2.634,0-1.031-3.557-1.507-12.047a1.607,1.607,0,0,1,3.213,0v9.181h3.343a1.435,1.435,0,1,1,0,2.866Zm12.314-1.177a1.555,1.555,0,0,1-.611,1.032c-2.17,1.638-3.775-3.139-5.893-5.161l-.545.543v3.409a1.574,1.574,0,0,1-3.148,0v-10.693a1.573,1.573,0,0,1,3.146,0v3.359c2.9-2.177,4.511-6.068,6.345-4.247,1.8,1.786-1.927,3.35-3.47,5.5,3.645,5.027,4.338,5.152,4.177,6.254Z" transform="translate(0)" fill="#fff"/>
  </g>
</svg>
