<svg xmlns="http://www.w3.org/2000/svg" width="198.599" height="40.999" viewBox="0 0 198.599 40.999">
  <g id="그룹_241" data-name="그룹 241" transform="translate(-107.794 -549.581)">
    <path id="패스_286" data-name="패스 286" d="M220.7,556.334c-10.74,0-19.447,8.3-19.447,18.534S209.963,593.4,220.7,593.4s19.446-8.3,19.446-18.534S231.442,556.334,220.7,556.334Zm5.554,35.247c-5.316,2.017-12.43-3.735-15.888-12.847s-1.952-18.137,3.365-20.154,12.43,3.734,15.888,12.847S231.573,589.563,226.256,591.581Z" transform="translate(-43.235 -3.124)" fill="#fff"/>
    <path id="패스_287" data-name="패스 287" d="M288.845,556.334c-10.74,0-19.446,8.3-19.446,18.534s8.707,18.534,19.446,18.534,19.447-8.3,19.447-18.534S299.585,556.334,288.845,556.334Zm5.554,35.247c-5.316,2.017-12.43-3.735-15.888-12.847s-1.952-18.137,3.365-20.154,12.43,3.734,15.888,12.847S299.716,589.563,294.4,591.581Z" transform="translate(-74.757 -3.124)" fill="#fff"/>
    <path id="패스_288" data-name="패스 288" d="M386.469,592.479c-7.789-.348-9.456-8.424-9.183-14.834.2-4.674,1.449-9.881-.4-14.365-2.6-6.3-10.87-7.712-16.859-6.849-7.336,1.057-13.077,6.146-16.457,12.537a53.814,53.814,0,0,0-4.416,12.626,74.8,74.8,0,0,1,4.008-10.662c3.527-7.155,11.8-15.959,20.726-12.263a10.463,10.463,0,0,1,1.289.642,10.114,10.114,0,0,1,2.142,1.644,5.8,5.8,0,0,1,1.621,5.072c-.673,3.031-4.268,3.939-6.906,4.347-6.283.97-14.836,1.117-17.433,8.22-2.581,7.059,4.809,12.927,10.818,14.652a10.91,10.91,0,0,0,12.755-6.061,8.913,8.913,0,0,0,.381-.833,7.615,7.615,0,0,0,.045,1.906l.028,2.323.035,2.925,18.4-.132v-.882C386.863,592.492,386.666,592.488,386.469,592.479Zm-18-8.927a3.7,3.7,0,0,1-.81,2.329c-2.135,2.651-7.926,8.4-15.249,4.386-8.46-4.633-9.356-14.454,3.69-15.248,8.692-.529,11.031-5.851,11.94-6.706a.259.259,0,0,1,.429.2Z" transform="translate(-107.025 -3.062)" fill="#fff"/>
    <g id="그룹_240" data-name="그룹 240" transform="translate(107.794 549.581)">
      <path id="패스_289" data-name="패스 289" d="M107.794,549.655v.842a9.675,9.675,0,0,1,8.5,5.275C119.26,561.3,129.26,590.5,129.26,590.5l3.626-.733,3.26-9.048-12.455-31.137Z" transform="translate(-107.794 -549.581)" fill="#fff"/>
      <path id="패스_290" data-name="패스 290" d="M154.554,549.655v.842a9.675,9.675,0,0,1,8.5,5.275c2.968,5.532,12.968,34.727,12.968,34.727l3.626-.733,3.26-9.048-12.454-31.137Z" transform="translate(-129.425 -549.581)" fill="#fff"/>
    </g>
    <path id="패스_291" data-name="패스 291" d="M422.176,593.346l-.274-32.228-13.328-5.073-.272.7a8.678,8.678,0,0,1,5.408,7.159c.7,5.587-.4,29.454-.4,29.454Z" transform="translate(-139.013 -2.99)" fill="#fff"/>
    <path id="패스_292" data-name="패스 292" d="M449.859,571.15a15.419,15.419,0,0,0-3.672-3.252,11.818,11.818,0,0,0-8.847-1.522c-2.932.752-5.367,3.459-7.14,5.848-1.8,2.426-3.331,5.176-5.533,7.218v2.534a6.631,6.631,0,0,0,3.212-1.441c1.346-1.117,2.091-2.917,3.092-4.333a11.739,11.739,0,0,1,9.465-4.814,19.413,19.413,0,0,1,4.821.594A49.1,49.1,0,0,1,450.8,573.7a5.433,5.433,0,0,1,2.178,1.018C451.882,573.575,450.9,572.336,449.859,571.15Z" transform="translate(-146.583 -7.625)" fill="#fff"/>
  </g>
</svg>
