<svg xmlns="http://www.w3.org/2000/svg" width="22.212" height="22.212" viewBox="0 0 22.212 22.212">
  <g id="그룹_242" data-name="그룹 242" transform="translate(-1540.614 -36.014)">
    <g id="그룹_9" data-name="그룹 9" transform="translate(1544.97 36.014)">
      <path id="패스_3" data-name="패스 3" d="M-1049.249,1354a6.758,6.758,0,0,1-6.751-6.751,6.758,6.758,0,0,1,6.751-6.751,6.758,6.758,0,0,1,6.751,6.751A6.758,6.758,0,0,1-1049.249,1354Zm0-12.2a5.45,5.45,0,0,0-5.444,5.444,5.45,5.45,0,0,0,5.444,5.444,5.45,5.45,0,0,0,5.444-5.444A5.45,5.45,0,0,0-1049.249,1341.807Z" transform="translate(1056 -1340.5)"/>
    </g>
    <g id="그룹_10" data-name="그룹 10" transform="translate(1540.614 47.012)">
      <path id="패스_4" data-name="패스 4" d="M-1043.788,1376.965H-1066v-.653a10.746,10.746,0,0,1,7.227-10.562l.4,1.242a9.374,9.374,0,0,0-6.307,8.666h19.563a9.378,9.378,0,0,0-6.287-8.66l.407-1.241a10.749,10.749,0,0,1,7.2,10.554Z" transform="translate(1066 -1365.751)"/>
    </g>
  </g>
</svg>
