<svg xmlns="http://www.w3.org/2000/svg" xmlns:xlink="http://www.w3.org/1999/xlink" width="260.311" height="83.705" viewBox="0 0 260.311 83.705">
  <defs>
    <linearGradient id="linear-gradient" x1="109.303" y1="-103.3" x2="111.823" y2="-103.3" gradientUnits="objectBoundingBox">
      <stop offset="0" stop-color="#ffde9c"/>
      <stop offset="1" stop-color="#fac382"/>
    </linearGradient>
    <linearGradient id="linear-gradient-2" y1="0.5" x2="1" y2="0.5" gradientUnits="objectBoundingBox">
      <stop offset="0" stop-color="#f6c667"/>
      <stop offset="1" stop-color="#f6b467"/>
    </linearGradient>
    <clipPath id="clip-path">
      <ellipse id="SVGID" cx="9.584" cy="9.109" rx="9.584" ry="9.109" fill="none"/>
    </clipPath>
    <clipPath id="clip-path-2">
      <circle id="SVGID-2" data-name="SVGID" cx="8.895" cy="8.895" r="8.895" fill="none"/>
    </clipPath>
  </defs>
  <g id="그룹_355" data-name="그룹 355" transform="translate(4367.192 -1776.011)">
    <g id="decor" transform="translate(-4367.192 1776.011)">
      <rect id="사각형_278" data-name="사각형 278" width="2.075" height="4.839" transform="translate(252.98 43.142) rotate(-26.48)" fill="#e96149"/>
      <rect id="사각형_279" data-name="사각형 279" width="2.075" height="4.839" transform="translate(217.996 36.649) rotate(45)" fill="#5b6ca4"/>
      <rect id="사각형_280" data-name="사각형 280" width="2.075" height="4.839" transform="matrix(0.931, 0.365, -0.365, 0.931, 118.805, 26.409)" fill="#fcbc58"/>
      <rect id="사각형_281" data-name="사각형 281" width="2.075" height="4.839" transform="translate(99.04 64.616) rotate(-23.534)" fill="#fcbc58"/>
      <rect id="사각형_282" data-name="사각형 282" width="2.075" height="4.839" transform="translate(22.426 0) rotate(90)" fill="#fcbc58"/>
      <rect id="사각형_283" data-name="사각형 283" width="2.075" height="4.839" transform="matrix(0.841, 0.541, -0.541, 0.841, 67.635, 18.183)" fill="#e96149"/>
      <rect id="사각형_284" data-name="사각형 284" width="2.075" height="4.839" transform="translate(46.642 80.395) rotate(100.798)" fill="#e96149"/>
      <rect id="사각형_285" data-name="사각형 285" width="2.075" height="4.839" transform="translate(172.451 50.543) rotate(71.19)" fill="#e96149"/>
      <rect id="사각형_286" data-name="사각형 286" width="2.075" height="4.839" transform="translate(258.78 13.522) rotate(42.446)" fill="url(#linear-gradient)"/>
      <rect id="사각형_287" data-name="사각형 287" width="2.075" height="4.839" transform="matrix(-0.11, 0.994, -0.994, -0.11, 5.038, 34.426)" fill="#5b6ca4"/>
    </g>
    <g id="stars" transform="translate(-4363.182 1825.017)">
      <path id="패스_356" data-name="패스 356" d="M-4291.854,2418.4l12.518,1.761-9.014,8.865,2.193,12.45-11.215-5.833-11.164,5.932,2.081-12.469-9.092-8.783,12.5-1.874,5.544-11.361Z" transform="translate(4315.546 -2407.086)" fill="url(#linear-gradient-2)"/>
      <path id="패스_357" data-name="패스 357" d="M-2883.753,2418.381l12.521,1.75-9.005,8.874,2.2,12.447-11.221-5.822-11.158,5.944,2.07-12.471-9.1-8.775,12.5-1.885,5.533-11.366Z" transform="translate(3016.791 -2407.075)" fill="url(#linear-gradient-2)"/>
      <path id="패스_358" data-name="패스 358" d="M-2179.079,2418.493l12.51,1.825-9.058,8.818,2.13,12.461-11.187-5.889-11.192,5.876,2.144-12.458-9.047-8.829,12.512-1.811,5.6-11.333Z" transform="translate(2366.85 -2407.148)" fill="url(#linear-gradient-2)"/>
      <path id="패스_359" data-name="패스 359" d="M-1472.964,2418.945l12.469,2.081-9.236,8.631,1.875,12.5-11.064-6.117-11.311,5.646,2.4-12.412-8.865-9.013,12.546-1.554,5.832-11.216Z" transform="translate(1715.599 -2407.461)" fill="url(#linear-gradient-2)"/>
    </g>
    <path id="패스_360" data-name="패스 360" d="M-3302.5,2634.016a4.191,4.191,0,0,1-.45-.871.242.242,0,0,1-.269,0l-.007-.005h0a16.79,16.79,0,0,0-1.476-2.048,2.127,2.127,0,0,1-.256-.262c-.231-.212-.428-.317-.563-.257-.312.2-.283.9,1.3,3.51h0l.656,1.422,1.6-.779C-3302.145,2634.492-3302.33,2634.26-3302.5,2634.016Z" transform="translate(-979.082 -788.182)" fill="#f79b79"/>
    <g id="그룹_306" data-name="그룹 306" transform="translate(-4282.97 1840.622)">
      <path id="패스_361" data-name="패스 361" d="M-3280.32,2612.523a.261.261,0,0,1-.232-.142l-2.068-3.981a.262.262,0,0,1,.112-.353.26.26,0,0,1,.352.111l2.068,3.982a.261.261,0,0,1-.111.352A.256.256,0,0,1-3280.32,2612.523Z" transform="translate(3282.649 -2608.018)" fill="#302626"/>
    </g>
    <g id="그룹_307" data-name="그룹 307" transform="translate(-4282.283 1844.144)">
      <path id="패스_362" data-name="패스 362" d="M-3273.539,2655.938a.265.265,0,0,1-.222-.123.262.262,0,0,1,.085-.36l3.3-2.045a.262.262,0,0,1,.359.085.261.261,0,0,1-.084.36l-3.3,2.045A.256.256,0,0,1-3273.539,2655.938Z" transform="translate(3273.8 -2653.371)" fill="#302626"/>
    </g>
    <path id="패스_363" data-name="패스 363" d="M-3584.552,2420.488l12.508,1.836-9.065,8.811,2.119,12.463-11.181-5.9-11.2,5.866,2.155-12.457-9.04-8.836,12.513-1.8,5.611-11.328Z" transform="translate(-700.002 -583.966)" fill="url(#linear-gradient-2)"/>
    <g id="그룹_321" data-name="그룹 321" transform="translate(-4204.52 1781.19)">
      <g id="그룹_315" data-name="그룹 315" transform="translate(0 8.661)">
        <path id="패스_364" data-name="패스 364" d="M-2267.875,1954.234h53.823a4.432,4.432,0,0,1,4.54,4.315v14.4a4.432,4.432,0,0,1-4.54,4.315h-41.718a5.613,5.613,0,0,0-2.377.526l-14.267,6.676v-25.92A4.432,4.432,0,0,1-2267.875,1954.234Z" transform="translate(2272.415 -1954.234)" fill="#d6d1d1"/>
        <path id="패스_365" data-name="패스 365" d="M-1729.926,1994.343a8.872,8.872,0,0,1-2.92,6.547,9.5,9.5,0,0,1-1.779,1.292l-.024.013a9.709,9.709,0,0,1-1.2.569,9.882,9.882,0,0,1-1.308.411,10.053,10.053,0,0,1-2.354.277,10.015,10.015,0,0,1-1.064-.056,10.024,10.024,0,0,1-1.587-.3l-.033-.01a9.71,9.71,0,0,1-1.655-.623,9.557,9.557,0,0,1-1.723-1.068,8.927,8.927,0,0,1-3.522-7.056,9.355,9.355,0,0,1,9.585-9.109A9.355,9.355,0,0,1-1729.926,1994.343Z" transform="translate(1789.734 -1982.827)" fill="#fff"/>
        <g id="그룹_312" data-name="그룹 312" transform="translate(40.64 2.407)">
          <g id="그룹_311" data-name="그룹 311" clip-path="url(#clip-path)">
            <g id="그룹_310" data-name="그룹 310" transform="translate(18.691 15.516)">
              <g id="그룹_309" data-name="그룹 309">
                <g id="그룹_308" data-name="그룹 308">
                  <path id="패스_366" data-name="패스 366" d="M-1500.248,2185.277c-.095-.073-.34.022-.432.1l-.175.137c.143-.251.129-.393.029-.458s-.336.051-.42.132l-.084.079a.163.163,0,0,0-.083-.112c-.1-.058-.33.074-.407.161l-.341.375c.027-.133-.007-.213-.079-.253-.1-.058-.33.074-.407.161l-1.295,1.421a5.847,5.847,0,0,1-.661.065c.156-.247.343-.537.382-.577.706-.835.431-.981.372-1.016-.421-.222-.787.277-.871.4-.214.255-.618.689-.684.739a2.535,2.535,0,0,0-1.108,1.355.9.9,0,0,0-.052.285s-.1.375-.19.745h0a27.653,27.653,0,0,1-1.651,4.136h3.092a32.416,32.416,0,0,1,.657-3.6h0a3.891,3.891,0,0,1,1.716-1.2l.943-.646s1.153-1.278,1.636-1.914C-1500.152,2185.513-1500.146,2185.355-1500.248,2185.277Z" transform="translate(1508.403 -2185.033)" fill="#ff929d"/>
                </g>
              </g>
            </g>
          </g>
        </g>
        <g id="그룹_314" data-name="그룹 314" transform="translate(7.739 7.283)">
          <g id="그룹_313" data-name="그룹 313">
            <rect id="사각형_288" data-name="사각형 288" width="19.221" height="1.074" rx="0.537" transform="translate(7.56)" fill="#fff"/>
            <rect id="사각형_289" data-name="사각형 289" width="5.716" height="1.074" rx="0.537" fill="#fff"/>
            <rect id="사각형_290" data-name="사각형 290" width="4.209" height="1.074" rx="0.537" transform="translate(0 7.142)" fill="#fff"/>
            <rect id="사각형_291" data-name="사각형 291" width="14.923" height="1.074" rx="0.537" transform="translate(11.858 3.571)" fill="#fff"/>
            <rect id="사각형_292" data-name="사각형 292" width="13.464" height="1.074" rx="0.537" transform="translate(5.314 7.142)" fill="#fff"/>
          </g>
          <rect id="사각형_293" data-name="사각형 293" width="6.113" height="1.074" rx="0.537" transform="translate(20.62 7.144)" fill="#fff"/>
        </g>
      </g>
      <g id="그룹_320" data-name="그룹 320" transform="translate(59.317 0)">
        <g id="그룹_319" data-name="그룹 319">
          <g id="그룹_316" data-name="그룹 316" transform="translate(4.785 3.16)">
            <path id="패스_367" data-name="패스 367" d="M-1446.645,1889.569l6.567-5.875c.174-.156-.083-.413-.257-.258l-6.566,5.875c-.175.156.083.413.257.257Z" transform="translate(1446.96 -1883.389)" fill="#302626"/>
          </g>
          <g id="그룹_317" data-name="그룹 317">
            <path id="패스_368" data-name="패스 368" d="M-1508.224,1850.272c.513-2.438.935-4.895,1.4-7.342.043-.229-.306-.327-.35-.1-.466,2.448-.888,4.9-1.4,7.342-.048.228.3.325.35.1Z" transform="translate(1508.579 -1842.703)" fill="#302626"/>
          </g>
          <g id="그룹_318" data-name="그룹 318" transform="translate(6.026 12.179)">
            <path id="패스_369" data-name="패스 369" d="M-1430.749,2001.345l6.648-1.462c.228-.05.131-.4-.1-.35l-6.647,1.461c-.228.05-.131.4.1.35Z" transform="translate(1430.975 -1999.529)" fill="#302626"/>
          </g>
        </g>
      </g>
    </g>
    <g id="그룹_329" data-name="그룹 329" transform="translate(-4308.958 1781.735)">
      <g id="그룹_327" data-name="그룹 327" transform="translate(0 0)">
        <path id="패스_370" data-name="패스 370" d="M-3555.878,1849.728h-56.644a4.522,4.522,0,0,0-4.778,4.214V1868a4.522,4.522,0,0,0,4.778,4.214h43.905a6.3,6.3,0,0,1,2.5.513l15.015,6.518v-25.308A4.523,4.523,0,0,0-3555.878,1849.728Z" transform="translate(3617.299 -1849.728)" fill="#d6d1d1"/>
        <g id="그룹_326" data-name="그룹 326" transform="translate(45.539 2.35)">
          <g id="그룹_325" data-name="그룹 325" clip-path="url(#clip-path-2)">
            <g id="그룹_324" data-name="그룹 324" transform="translate(17.346 15.15)">
              <g id="그룹_323" data-name="그룹 323">
                <g id="그룹_322" data-name="그룹 322">
                  <path id="패스_371" data-name="패스 371" d="M-2799.955,2075.323c-.088-.072-.316.022-.4.094l-.162.134c.133-.246.12-.385.026-.448s-.311.05-.389.129l-.078.077a.159.159,0,0,0-.077-.109c-.1-.057-.306.073-.378.158l-.316.365c.025-.13-.007-.208-.074-.247-.1-.056-.306.073-.377.158l-1.2,1.387a5.24,5.24,0,0,1-.614.064c.145-.241.317-.525.354-.564.655-.815.4-.958.345-.992-.391-.217-.73.271-.809.387-.2.249-.573.672-.635.721a2.464,2.464,0,0,0-1.028,1.325.9.9,0,0,0-.049.278s-.09.366-.177.727h0a27.831,27.831,0,0,1-1.531,4.039h2.868a33,33,0,0,1,.61-3.511h0a3.6,3.6,0,0,1,1.592-1.176l.876-.631s1.069-1.248,1.518-1.868C-2799.867,2075.554-2799.861,2075.4-2799.955,2075.323Z" transform="translate(2807.524 -2075.086)" fill="#ff929d"/>
                </g>
              </g>
            </g>
          </g>
        </g>
      </g>
      <g id="그룹_328" data-name="그룹 328" transform="translate(2.613 8.113)">
        <g id="stars-2" data-name="stars">
          <path id="패스_372" data-name="패스 372" d="M-3579.96,1955.966l1.947.274-1.4,1.379.341,1.937-1.745-.907-1.736.923.323-1.94-1.414-1.366,1.944-.292.862-1.767Z" transform="translate(3583.645 -1954.206)" fill="#fff"/>
          <path id="패스_373" data-name="패스 373" d="M-3360.926,1955.964l1.947.272-1.4,1.38.343,1.937-1.746-.906-1.735.925.322-1.94-1.416-1.365,1.945-.293.861-1.768Z" transform="translate(3381.621 -1954.205)" fill="#fff"/>
          <path id="패스_374" data-name="패스 374" d="M-3251.312,1955.981l1.946.284-1.409,1.372.331,1.938-1.74-.917-1.741.914.334-1.938-1.407-1.373,1.947-.281.871-1.763Z" transform="translate(3280.521 -1954.216)" fill="#fff"/>
          <path id="패스_375" data-name="패스 375" d="M-3141.474,1956.051l1.939.324-1.436,1.343.291,1.945-1.72-.951-1.76.878.374-1.931-1.379-1.4,1.951-.241.907-1.745Z" transform="translate(3179.217 -1954.265)" fill="#fff"/>
        </g>
        <path id="패스_376" data-name="패스 376" d="M-3469.937,1956.291l1.946.285-1.411,1.371.33,1.938-1.739-.917-1.742.913.335-1.937-1.406-1.375,1.946-.28.873-1.762Z" transform="translate(3482.167 -1954.501)" fill="#fff"/>
      </g>
    </g>
    <g id="그룹_330" data-name="그룹 330" transform="translate(-4264.502 1784.085)">
      <path id="패스_377" data-name="패스 377" d="M-3028.7,1894.134l-.039.053q-.254.343-.538.663a8.813,8.813,0,0,1-1.68,1.457l-.015.01c-.108.071-.216.14-.326.206q-.26.157-.534.3a8.978,8.978,0,0,1-1.243.523,8.877,8.877,0,0,1-3.362.448c-.065,0-.131-.008-.195-.013-.207-.017-.414-.041-.619-.073-.14-.022-.28-.046-.418-.075-.208-.041-.415-.092-.618-.148-.13-.036-.257-.075-.384-.116q-.3-.1-.6-.218l-.045-.02c-.1-.04-.2-.083-.292-.126a8.935,8.935,0,0,1-1.4-.8q-.326-.226-.631-.481c-.052-.044-.1-.089-.156-.134l0-.005c-.092-.091-.165-.152-.193-.175s-.091-.084-.2-.187c-.274-.271-.551-.6-.551-.6a8.861,8.861,0,0,1-1.62-2.895,8.907,8.907,0,0,1,5.614-11.277,8.907,8.907,0,0,1,11.276,5.614A8.9,8.9,0,0,1-3028.7,1894.134Z" transform="translate(3044.821 -1879.99)" fill="#fff"/>
    </g>
    <g id="woman" transform="translate(-4261.689 1786.901)">
      <path id="패스_378" data-name="패스 378" d="M-2972.918,2100.411c-.129-.036-.257-.075-.384-.116-.2-.066-.4-.139-.6-.219l-.045-.02c.053-.013.105-.023.155-.031h0a.875.875,0,0,1,.646.085A.64.64,0,0,1-2972.918,2100.411Z" transform="translate(2976.636 -2085.733)" fill="#40675a"/>
      <g id="그룹_340" data-name="그룹 340" transform="translate(0.121 0)">
        <path id="패스_379" data-name="패스 379" d="M-2994.066,1926.69a1.488,1.488,0,0,0-.422,1.432c.01.055.024.11.039.166a8.812,8.812,0,0,1-1.681,1.457.058.058,0,0,1-.015.01c-.107.071-.216.14-.325.206-.174.1-.352.2-.535.3a8.952,8.952,0,0,1-1.243.524,8.872,8.872,0,0,1-3.362.448l-.2-.013c-.207-.017-.414-.041-.618-.073q-.211-.032-.418-.075c-.208-.041-.415-.092-.618-.148-.13-.036-.257-.075-.384-.117q-.3-.1-.6-.218l-.044-.019c-.1-.04-.2-.083-.292-.126a8.943,8.943,0,0,1-1.4-.8,2.1,2.1,0,0,1,.062-.736,9.2,9.2,0,0,0,.422-1.313,1.224,1.224,0,0,0,.01-.172,1.406,1.406,0,0,0-.049-.356c-.2-.754-.968-1.322-1.232-2.094a1.833,1.833,0,0,1,.064-1.342c.171-.343.495-.579.682-.911.426-.754.043-1.805.516-2.529.223-.342.613-.56.772-.938s.053-.817.2-1.195a1.675,1.675,0,0,1,.882-.809,9.255,9.255,0,0,1,1.137-.481,11.249,11.249,0,0,1,2.037-.5,1.552,1.552,0,0,1,1.095.151c.2.139.341.357.542.5.353.246.838.216,1.235.388a1.745,1.745,0,0,1,.913,1.686,2.45,2.45,0,0,0,1.16,2.2,1.423,1.423,0,0,1,.7,1.173c-.046.406-.4.726-.431,1.133a1.252,1.252,0,0,0,.789,1.082,2.339,2.339,0,0,1,.876.6A1.173,1.173,0,0,1-2994.066,1926.69Z" transform="translate(3007.056 -1916.244)" fill="#3a2b2e"/>
        <path id="패스_380" data-name="패스 380" d="M-2931.439,2089.919a.075.075,0,0,1-.015.01c-.107.071-.216.14-.326.207-.173.1-.352.2-.534.3a9.028,9.028,0,0,1-1.244.524,8.875,8.875,0,0,1-3.361.448l.446-.027c1.434-.535,3.1-1.512,4.629-1.474.116,0,.227.007.336.011Z" transform="translate(2942.365 -2076.418)" fill="#40675a"/>
        <g id="그룹_331" data-name="그룹 331" transform="translate(1.956 5.501)">
          <path id="패스_381" data-name="패스 381" d="M-2980.185,1987.591s-.924-.981-1.483-.207a1.077,1.077,0,0,0-.19.749,1.431,1.431,0,0,0,1.789,1.284C-2980.073,1989.481-2980.185,1987.591-2980.185,1987.591Z" transform="translate(2981.865 -1987.087)" fill="#e07a5c"/>
        </g>
        <path id="패스_382" data-name="패스 382" d="M-2965.075,2007.436c-.107.071-.216.14-.325.206-.175.1-.352.2-.535.3a8.958,8.958,0,0,1-1.243.524,8.874,8.874,0,0,1-3.361.448l-.2-.013q-.311-.026-.618-.073c-.14-.021-.281-.046-.418-.075-.208-.042-.415-.092-.618-.149-.13-.037-.257-.075-.384-.117q-.3-.1-.6-.219l.11-.051h0l1.639-.752a.788.788,0,0,0,.254-.249.806.806,0,0,0,.124-.474l-.083-1.616-.07-1.388-.062-1.229,0-.078,1.341-.729,1.5-.813.782-.424.091,1.937.18,3.809a.769.769,0,0,0,.554.712c.5.137,1.251.344,1.886.5Z" transform="translate(2975.986 -1993.924)" fill="#f79b79"/>
        <path id="패스_383" data-name="패스 383" d="M-2946.589,2007.367l-.069-.745c-.21-.484-.554-1.144-.779-1.566l-2.925,1.764.243,2.539A3.142,3.142,0,0,0-2946.589,2007.367Z" transform="translate(2954.765 -1998.16)" fill="#e07a5c"/>
        <path id="패스_384" data-name="패스 384" d="M-2962.889,1934.843c.054,2.545-.836,4.175-2.52,4.448-2.107.342-2.926-1.38-3.2-4.057-.254-2.531.831-4.866,2.532-4.913S-2962.944,1932.3-2962.889,1934.843Z" transform="translate(2971.624 -1929.226)" fill="#f79b79"/>
        <path id="패스_385" data-name="패스 385" d="M-2920.353,1987.2c.019.17.1.3.188.29s.138-.156.12-.327-.1-.3-.187-.29S-2920.372,1987.031-2920.353,1987.2Z" transform="translate(2927.09 -1981.389)" fill="#3a2b2e"/>
        <path id="패스_386" data-name="패스 386" d="M-2955.91,1991.877c.041.165.141.282.225.259s.116-.175.075-.341-.142-.282-.225-.259S-2955.952,1991.711-2955.91,1991.877Z" transform="translate(2959.899 -1985.687)" fill="#3a2b2e"/>
        <g id="그룹_332" data-name="그룹 332" transform="translate(6.022 4.854)">
          <path id="패스_387" data-name="패스 387" d="M-2929.359,1979.152a.151.151,0,0,1-.138-.089.15.15,0,0,1,.076-.2,1.929,1.929,0,0,1,1.239-.023.152.152,0,0,1,.1.186.152.152,0,0,1-.186.1,1.669,1.669,0,0,0-1.035.008A.156.156,0,0,1-2929.359,1979.152Z" transform="translate(2929.511 -1978.755)" fill="#3a2b2e"/>
        </g>
        <g id="그룹_333" data-name="그룹 333" transform="translate(3.279 5.2)">
          <path id="패스_388" data-name="패스 388" d="M-2964.678,1983.634a.151.151,0,0,1-.141-.1.151.151,0,0,1,.087-.194,2.185,2.185,0,0,1,1.1-.1.151.151,0,0,1,.115.179.152.152,0,0,1-.18.115,1.908,1.908,0,0,0-.926.091A.147.147,0,0,1-2964.678,1983.634Z" transform="translate(2964.829 -1983.206)" fill="#3a2b2e"/>
        </g>
        <path id="패스_389" data-name="패스 389" d="M-2958.351,1927.877a2.584,2.584,0,0,0,2.125,2.135,7.527,7.527,0,0,1,.928.1,3.792,3.792,0,0,1,.987.276c.341.227.439.577.751.845a5.061,5.061,0,0,0-1.025-3.921,1.52,1.52,0,0,0-.424-.388,1.643,1.643,0,0,0-.518-.155,11.836,11.836,0,0,0-1.311-.15,1.973,1.973,0,0,0-.5.017,2.024,2.024,0,0,0-.9.528.923.923,0,0,0-.289.364A.28.28,0,0,0-2958.351,1927.877Z" transform="translate(2962.307 -1925.809)" fill="#3a2b2e"/>
        <g id="그룹_335" data-name="그룹 335" transform="translate(4.839 5.214)">
          <g id="그룹_334" data-name="그룹 334">
            <path id="패스_390" data-name="패스 390" d="M-2944.143,1985.865a.147.147,0,0,1-.051-.009,1.024,1.024,0,0,1-.384-.209.492.492,0,0,1-.14-.51.671.671,0,0,1,.092-.16l.018-.025a1.32,1.32,0,0,0,.215-.656,4.4,4.4,0,0,0-.025-.749.15.15,0,0,1,.136-.164.149.149,0,0,1,.163.137,4.507,4.507,0,0,1,.025.8,1.614,1.614,0,0,1-.269.8l-.02.029a.391.391,0,0,0-.053.086.2.2,0,0,0,.065.189.778.778,0,0,0,.278.143.15.15,0,0,1,.091.192A.15.15,0,0,1-2944.143,1985.865Z" transform="translate(2944.743 -1983.383)" fill="#302626"/>
          </g>
        </g>
        <g id="그룹_339" data-name="그룹 339" transform="translate(8.252 5.057)">
          <path id="패스_391" data-name="패스 391" d="M-2900.623,1981.848s.956-.957,1.489-.168a1.068,1.068,0,0,1,.165.753,1.442,1.442,0,0,1-1.831,1.238C-2900.8,1983.733-2900.623,1981.848-2900.623,1981.848Z" transform="translate(2900.799 -1981.368)" fill="#f79b79"/>
          <g id="그룹_338" data-name="그룹 338" transform="translate(0.228 0.629)">
            <g id="그룹_336" data-name="그룹 336">
              <path id="패스_392" data-name="패스 392" d="M-2897.707,1990.62a.148.148,0,0,1-.065-.015.15.15,0,0,1-.071-.2,1.652,1.652,0,0,1,1.169-.932.15.15,0,0,1,.171.127.15.15,0,0,1-.126.17,1.353,1.353,0,0,0-.941.764A.151.151,0,0,1-2897.707,1990.62Z" transform="translate(2897.857 -1989.471)" fill="#302626"/>
            </g>
            <g id="그룹_337" data-name="그룹 337" transform="translate(0.427 0.341)">
              <path id="패스_393" data-name="패스 393" d="M-2891.909,1994.448a.153.153,0,0,1-.1-.042l-.3-.284a.152.152,0,0,1-.005-.214.153.153,0,0,1,.215,0l.3.284a.15.15,0,0,1,0,.213A.148.148,0,0,1-2891.909,1994.448Z" transform="translate(2892.357 -1993.863)" fill="#302626"/>
            </g>
          </g>
        </g>
        <path id="패스_394" data-name="패스 394" d="M-2970.7,1934.81a3.467,3.467,0,0,0-1.415,3.073c-.369-.028-.718-2.908,1.085-4.147Z" transform="translate(2975.102 -1932.377)" fill="#3a2b2e"/>
      </g>
      <path id="패스_395" data-name="패스 395" d="M-3001.22,2028.537a1.93,1.93,0,0,1,.027.789,2.652,2.652,0,0,1-.189.551,7.246,7.246,0,0,0-.313.992c-.208-.041-.415-.092-.619-.148-.128-.036-.257-.075-.383-.117-.2-.066-.4-.139-.6-.218l-.045-.019c-.1-.04-.2-.082-.292-.126a8.952,8.952,0,0,1-1.395-.8q-.325-.226-.631-.481l-.156-.133,0,0a6.51,6.51,0,0,0,.777-.872h0a2.312,2.312,0,0,0,.45-1.086,1.5,1.5,0,0,0,.007-.259c-.035-.677-.708-1.048-.792-1.595s.592-.655,1.086-.5a2.421,2.421,0,0,1,1.108.754A7.491,7.491,0,0,1-3001.22,2028.537Z" transform="translate(3006.031 -2016.043)" fill="#3a2b2e"/>
      <g id="그룹_341" data-name="그룹 341" transform="translate(0 9.107)">
        <path id="패스_396" data-name="패스 396" d="M-3008.469,2037.084a.152.152,0,0,1-.127-.068.15.15,0,0,1,.045-.208c.073-.047.146-.1.22-.146.206-.141.41-.291.607-.446l0,0a2.934,2.934,0,0,0,.219-.211,2.763,2.763,0,0,0,.242-.315,4.378,4.378,0,0,0,.311-2.008.151.151,0,0,1,.146-.155.15.15,0,0,1,.155.147,4.737,4.737,0,0,1-.358,2.18,2.969,2.969,0,0,1-.275.356,3.023,3.023,0,0,1-.233.226l-.015.014c-.205.162-.419.319-.634.466-.076.052-.151.1-.226.15A.146.146,0,0,1-3008.469,2037.084Z" transform="translate(3008.62 -2033.522)" fill="#3a2b2e"/>
      </g>
      <g id="그룹_342" data-name="그룹 342" transform="translate(4.924 8.375)">
        <path id="패스_397" data-name="패스 397" d="M-2943.618,2024.088l-1.6.1S-2944.555,2025.414-2943.618,2024.088Z" transform="translate(2945.219 -2024.088)" fill="#fff"/>
      </g>
    </g>
    <g id="person_4" data-name="person 4" transform="translate(-4160.425 1795.721)">
      <path id="패스_398" data-name="패스 398" d="M-1691.393,2041.181a2.024,2.024,0,0,1-.434.837,9.494,9.494,0,0,1-1.779,1.292l-.023.013a9.742,9.742,0,0,1-1.2.569,9.916,9.916,0,0,1-1.307.411,10.055,10.055,0,0,1-2.354.277,9.952,9.952,0,0,1-1.064-.056,9.929,9.929,0,0,1-1.587-.3l-.034-.009a9.71,9.71,0,0,1-1.655-.623,9.626,9.626,0,0,1-1.723-1.068,1.7,1.7,0,0,0,.349-.818c.089-.786-.524-1.533-.4-2.314.1-.607.613-1.068.782-1.66.217-.761-.181-1.562-.145-2.352a2.163,2.163,0,0,1,.511-1.287,1.612,1.612,0,0,0,.51-.919,4.468,4.468,0,0,1,1.37-2.344,3.826,3.826,0,0,1,1.552-.857,5.7,5.7,0,0,1,1.354-.149,5.421,5.421,0,0,1,1.792.2,2.538,2.538,0,0,1,.9.5c.318.281.374.619.8.7a2.86,2.86,0,0,1,.925.312,2.737,2.737,0,0,1,1.115,1.386,7.636,7.636,0,0,1,.277,3.8,2.978,2.978,0,0,0,.173,1.882,10.15,10.15,0,0,0,.872,1.193A1.856,1.856,0,0,1-1691.393,2041.181Z" transform="translate(1704.621 -2029.825)" fill="#3a2b2e"/>
      <path id="패스_399" data-name="패스 399" d="M-1658.573,2210.767l3.375.3a10.041,10.041,0,0,1-2.354.277,10.083,10.083,0,0,1-1.064-.056,10.072,10.072,0,0,1-1.587-.3l-.033-.01a.081.081,0,0,1,0-.017c.025-.109.044-.193.058-.249s.02-.086.02-.086Z" transform="translate(1663.683 -2196.588)" fill="#f5eeee"/>
      <g id="그룹_354" data-name="그룹 354" transform="translate(2.764 1.516)">
        <g id="그룹_353" data-name="그룹 353">
          <g id="그룹_343" data-name="그룹 343" transform="translate(0.253 3.805)">
            <path id="패스_400" data-name="패스 400" d="M-1664.051,2099.129s-.542-1.164-1.282-.656a.976.976,0,0,0-.4.6,1.382,1.382,0,0,0,1.234,1.708C-1664.519,2100.838-1664.051,2099.129-1664.051,2099.129Z" transform="translate(1665.766 -2098.344)" fill="#e07a5c"/>
          </g>
          <path id="패스_401" data-name="패스 401" d="M-1657.494,2124.486c.415.14.912.325,1.372.457a9.707,9.707,0,0,1-1.2.569,9.989,9.989,0,0,1-1.308.411,10.041,10.041,0,0,1-2.354.277,10.018,10.018,0,0,1-1.064-.056,10.015,10.015,0,0,1-1.587-.3l-.03-.027a3.242,3.242,0,0,1-.293-.3l1.723-.727a.736.736,0,0,0,.332-.4h0a.728.728,0,0,0,.04-.267l-.06-1.654-.033-.91-.054-1.479.156-.079.154-.077,2.591-1.306.6-.3.06,1.813v.018l.022.685.1,2.873a.733.733,0,0,0,.522.679c.088.026.185.057.285.091l.009,0Z" transform="translate(1664.35 -2112.961)" fill="#f79b79"/>
          <path id="패스_402" data-name="패스 402" d="M-1635.307,2124.4l-.024-.7c-.174-.466-.464-1.105-.656-1.514l-2.9,1.461.087,2.389C-1638.067,2126.144-1636.746,2126.029-1635.307,2124.4Z" transform="translate(1641.229 -2116.526)" fill="#e07a5c"/>
          <path id="패스_403" data-name="패스 403" d="M-1653.579,2055.259c-.093,2.383-1.493,4.116-3.124,4.2-2.453.119-2.879-2.05-2.786-4.433s1.492-4.261,3.124-4.2S-1653.486,2052.876-1653.579,2055.259Z" transform="translate(1660.24 -2050.709)" fill="#f79b79"/>
          <g id="그룹_344" data-name="그룹 344" transform="translate(3.757 3.607)">
            <path id="패스_404" data-name="패스 404" d="M-1619.438,2096.121a.1.1,0,0,1-.034-.005,1.634,1.634,0,0,0-1.012-.016.118.118,0,0,1-.153-.064.118.118,0,0,1,.064-.154,1.86,1.86,0,0,1,1.169.009.118.118,0,0,1,.079.146A.118.118,0,0,1-1619.438,2096.121Z" transform="translate(1620.646 -2095.795)" fill="#3a2b2e"/>
          </g>
          <g id="그룹_345" data-name="그룹 345" transform="translate(1.111 3.758)">
            <path id="패스_405" data-name="패스 405" d="M-1654.611,2098.063a.118.118,0,0,1-.112-.083.118.118,0,0,1,.077-.148,2.12,2.12,0,0,1,1.039-.045.118.118,0,0,1,.083.144.117.117,0,0,1-.144.083,1.881,1.881,0,0,0-.907.042A.116.116,0,0,1-1654.611,2098.063Z" transform="translate(1654.729 -2097.739)" fill="#3a2b2e"/>
          </g>
          <g id="그룹_346" data-name="그룹 346" transform="translate(2.337 4.047)">
            <path id="패스_406" data-name="패스 406" d="M-1638.43,2103.618a.546.546,0,0,1-.424-.144.353.353,0,0,1-.075-.322,3.532,3.532,0,0,0,.226-1.557.118.118,0,0,1,.1-.135.118.118,0,0,1,.135.1,3.673,3.673,0,0,1-.233,1.662.115.115,0,0,0,.025.1c.034.035.153.108.55.032a.118.118,0,0,1,.137.094.118.118,0,0,1-.093.137A1.881,1.881,0,0,1-1638.43,2103.618Z" transform="translate(1638.941 -2101.458)" fill="#302626"/>
          </g>
          <path id="패스_407" data-name="패스 407" d="M-1637.063,2138.117s.179,1.128,1.422-.083Z" transform="translate(1639.545 -2131.146)" fill="#fff"/>
          <g id="그룹_350" data-name="그룹 350" transform="translate(6.077 4.238)">
            <path id="패스_408" data-name="패스 408" d="M-1590.76,2105.993a1.369,1.369,0,0,0,1.823-1.039.987.987,0,0,0-.115-.715.618.618,0,0,0-.441-.32h0a1.1,1.1,0,0,0-.583.117,2.111,2.111,0,0,0-.411.264S-1590.745,2105.942-1590.76,2105.993Z" transform="translate(1590.76 -2103.915)" fill="#f79b79"/>
            <path id="패스_409" data-name="패스 409" d="M-1590.769,2130.677s0,0,0,0Z" transform="translate(1590.769 -2128.598)" fill="#f79b79"/>
            <g id="그룹_349" data-name="그룹 349" transform="translate(0.284 0.63)">
              <g id="그룹_347" data-name="그룹 347">
                <path id="패스_410" data-name="패스 410" d="M-1586.992,2112.982a.117.117,0,0,1-.058-.015.117.117,0,0,1-.044-.16,1.544,1.544,0,0,1,1.151-.784.118.118,0,0,1,.126.108.117.117,0,0,1-.108.126,1.309,1.309,0,0,0-.966.666A.117.117,0,0,1-1586.992,2112.982Z" transform="translate(1587.11 -2112.022)" fill="#302626"/>
              </g>
              <g id="그룹_348" data-name="그룹 348" transform="translate(0.438 0.279)">
                <path id="패스_411" data-name="패스 411" d="M-1581.087,2116.129a.115.115,0,0,1-.086-.037l-.267-.284a.117.117,0,0,1,.005-.166.117.117,0,0,1,.166,0l.267.285a.117.117,0,0,1,0,.166A.119.119,0,0,1-1581.087,2116.129Z" transform="translate(1581.472 -2115.609)" fill="#302626"/>
              </g>
            </g>
          </g>
          <path id="패스_412" data-name="패스 412" d="M-1668.792,2054.037c.8-3.734,4.367-.72,5.629-4.614C-1663.163,2049.423-1670.413,2048.355-1668.792,2054.037Z" transform="translate(1669.029 -2049.343)" fill="#3a2b2e"/>
          <path id="패스_413" data-name="패스 413" d="M-1604.481,2053.939c.309.185.708.32.816.663a2.609,2.609,0,0,1,.014.633,1.426,1.426,0,0,0,.141.554,1.02,1.02,0,0,1,.564-.187h0a4.9,4.9,0,0,0,.265-1.673,3.078,3.078,0,0,0-.166-.871,2.226,2.226,0,0,0-2.274-1.4c-.117.013-.217.109-.173.218A1.877,1.877,0,0,0-1604.481,2053.939Z" transform="translate(1610.303 -2051.466)" fill="#3a2b2e"/>
          <g id="그룹_351" data-name="그룹 351" transform="translate(3.809 4.317)">
            <path id="패스_414" data-name="패스 414" d="M-1618.927,2105.706a.118.118,0,0,1-.109-.073c-.119-.294-.25-.457-.366-.461-.144-.007-.3.232-.359.347a.118.118,0,0,1-.157.056.118.118,0,0,1-.055-.157c.024-.05.239-.48.567-.48h.011c.225.006.414.205.577.607a.118.118,0,0,1-.065.153A.119.119,0,0,1-1618.927,2105.706Z" transform="translate(1619.985 -2104.937)" fill="#3a2b2e"/>
          </g>
          <g id="그룹_352" data-name="그룹 352" transform="translate(1.186 4.314)">
            <path id="패스_415" data-name="패스 415" d="M-1652.692,2105.615a.117.117,0,0,1-.1-.063c-.148-.281-.292-.432-.41-.423-.144.01-.279.26-.323.38a.117.117,0,0,1-.151.07.118.118,0,0,1-.07-.151c.019-.052.2-.511.528-.534.226-.015.432.164.634.548a.117.117,0,0,1-.05.158A.117.117,0,0,1-1652.692,2105.615Z" transform="translate(1653.757 -2104.894)" fill="#3a2b2e"/>
          </g>
        </g>
      </g>
      <path id="패스_416" data-name="패스 416" d="M-1678.127,2196.295a.13.13,0,0,0,0,.017h0q-.054.617-.1,1.235-.022.26-.043.52a10.169,10.169,0,0,1-1.587-.3l-.034-.011a9.663,9.663,0,0,1-1.655-.623c.312-.082.671-.181,1.089-.3.019,0,.037-.011.054-.016C-1679.7,2196.612-1678.688,2196.5-1678.127,2196.295Z" transform="translate(1683.342 -2183.367)" fill="#cbe5df"/>
      <path id="패스_417" data-name="패스 417" d="M-1581.318,2197.585l-.024.013a9.729,9.729,0,0,1-1.2.569c-.106-.379-.218-.74-.339-1.078l.133.041.009,0,.024.007.791.248C-1581.719,2197.446-1581.516,2197.51-1581.318,2197.585Z" transform="translate(1592.334 -2184.101)" fill="#cbe5df"/>
    </g>
  </g>
</svg>
