<svg xmlns="http://www.w3.org/2000/svg" width="115.457" height="75.699" viewBox="0 0 115.457 75.699">
  <g id="그룹_272" data-name="그룹 272" transform="translate(82.182 -349.08)">
    <g id="그룹_268" data-name="그룹 268" transform="translate(-82.182 349.08)">
      <path id="패스_315" data-name="패스 315" d="M-80.637,424.779a1.44,1.44,0,0,1-1.523-1.333l-.006-22.036a1.431,1.431,0,0,1,1.275-1.318c7.617-1.544,12.936-6.951,12.935-13.15s-5.324-11.6-12.942-13.142a1.432,1.432,0,0,1-1.276-1.318l-.006-22.036a1.267,1.267,0,0,1,.5-.988,1.648,1.648,0,0,1,1.026-.346l112.39-.032h0a1.647,1.647,0,0,1,1.025.345,1.266,1.266,0,0,1,.5.988l.006,22.036a1.43,1.43,0,0,1-1.275,1.318c-7.617,1.543-12.936,6.951-12.935,13.15s5.324,11.6,12.942,13.143a1.431,1.431,0,0,1,1.276,1.317l.006,22.036a1.439,1.439,0,0,1-1.523,1.334Zm112.368-74.5-112.39.032a.363.363,0,0,0-.323.135l.007,22.034a.678.678,0,0,0,.313.141c8.185,1.653,13.9,7.541,13.9,14.319s-5.713,12.668-13.9,14.326a.539.539,0,0,0-.317.159l.01,22.018a.367.367,0,0,0,.323.133l112.39-.033a.36.36,0,0,0,.323-.136l-.007-22.034a.677.677,0,0,0-.313-.14c-8.185-1.654-13.9-7.541-13.905-14.319s5.713-12.668,13.9-14.327a.539.539,0,0,0,.317-.158l-.01-22.018a.365.365,0,0,0-.322-.133h0Z" transform="translate(82.182 -349.08)" fill="#686666"/>
    </g>
    <g id="그룹_269" data-name="그룹 269" transform="translate(-57.705 367.685)">
      <path id="패스_316" data-name="패스 316" d="M-11.8,405.94a4.039,4.039,0,0,1-1.032,1.264,4.667,4.667,0,0,1-1.481.8,5.708,5.708,0,0,1-1.817.28,5.768,5.768,0,0,1-1.929-.312,4.5,4.5,0,0,1-1.545-.9,4.269,4.269,0,0,1-1.032-1.417,4.438,4.438,0,0,1-.376-1.865v-3.713a4.461,4.461,0,0,1,.376-1.857,4.255,4.255,0,0,1,1.032-1.424,4.5,4.5,0,0,1,1.545-.9,5.768,5.768,0,0,1,1.929-.312,5.709,5.709,0,0,1,1.817.28,4.669,4.669,0,0,1,1.481.8,4.036,4.036,0,0,1,1.032,1.264,4.35,4.35,0,0,1,.472,1.673l-1.729.128a2.885,2.885,0,0,0-.9-1.961,3.177,3.177,0,0,0-2.177-.681,3.1,3.1,0,0,0-2.353.841,3.38,3.38,0,0,0-.8,2.425v3.169a3.382,3.382,0,0,0,.8,2.425,3.1,3.1,0,0,0,2.353.84,3.175,3.175,0,0,0,2.177-.681,2.884,2.884,0,0,0,.9-1.96l1.729.128A4.352,4.352,0,0,1-11.8,405.94Z" transform="translate(21.01 -395.576)" fill="#686666"/>
      <path id="패스_317" data-name="패스 317" d="M17.353,403.786a4.445,4.445,0,0,1-.376,1.865,4.274,4.274,0,0,1-1.032,1.417,4.487,4.487,0,0,1-1.553.9,6.09,6.09,0,0,1-3.849,0,4.5,4.5,0,0,1-1.545-.9,4.263,4.263,0,0,1-1.032-1.417,4.438,4.438,0,0,1-.376-1.865v-3.713a4.461,4.461,0,0,1,.376-1.857A4.249,4.249,0,0,1,9,396.792a4.5,4.5,0,0,1,1.545-.9,6.09,6.09,0,0,1,3.849,0,4.486,4.486,0,0,1,1.553.9,4.26,4.26,0,0,1,1.032,1.424,4.467,4.467,0,0,1,.376,1.857Zm-1.729-3.441a3.382,3.382,0,0,0-.8-2.425,3.1,3.1,0,0,0-2.353-.841,3.1,3.1,0,0,0-2.353.841,3.38,3.38,0,0,0-.8,2.425v3.169a3.382,3.382,0,0,0,.8,2.425,3.1,3.1,0,0,0,2.353.84,3.1,3.1,0,0,0,2.353-.84,3.384,3.384,0,0,0,.8-2.425Z" transform="translate(3.854 -395.576)" fill="#686666"/>
      <path id="패스_318" data-name="패스 318" d="M46.233,406.515a3.314,3.314,0,0,1-.912,1.225,4.149,4.149,0,0,1-1.416.76,6.492,6.492,0,0,1-3.665,0,4.141,4.141,0,0,1-1.416-.76,3.306,3.306,0,0,1-.912-1.225,4.071,4.071,0,0,1-.32-1.656v-8.483h1.729V404.6a2.6,2.6,0,0,0,.7,2.009,3.562,3.562,0,0,0,4.1,0,2.605,2.605,0,0,0,.7-2.009v-8.227h1.729v8.483A4.078,4.078,0,0,1,46.233,406.515Z" transform="translate(-14.142 -396.055)" fill="#686666"/>
      <path id="패스_319" data-name="패스 319" d="M74.712,400.073a4.158,4.158,0,0,1-.312,1.7,3.053,3.053,0,0,1-.865,1.145,3.438,3.438,0,0,1-1.312.648,6.569,6.569,0,0,1-1.673.2H68.118v4.513l-1.392.464a.252.252,0,0,1-.232-.016.209.209,0,0,1-.1-.192V396.375h4.161a6.568,6.568,0,0,1,1.673.2,3.444,3.444,0,0,1,1.312.649,3.058,3.058,0,0,1,.865,1.144A4.158,4.158,0,0,1,74.712,400.073Zm-1.761,0a2.321,2.321,0,0,0-.232-1.1,1.763,1.763,0,0,0-.632-.68,2.655,2.655,0,0,0-.936-.345,6.4,6.4,0,0,0-1.128-.1h-1.9v4.45h1.9a6.44,6.44,0,0,0,1.128-.1,2.64,2.64,0,0,0,.936-.344,1.764,1.764,0,0,0,.632-.681A2.318,2.318,0,0,0,72.952,400.073Z" transform="translate(-31.418 -396.055)" fill="#686666"/>
      <path id="패스_320" data-name="패스 320" d="M100.952,403.786a4.438,4.438,0,0,1-.376,1.865,4.274,4.274,0,0,1-1.032,1.417,4.487,4.487,0,0,1-1.553.9,6.09,6.09,0,0,1-3.849,0,4.5,4.5,0,0,1-1.545-.9,4.274,4.274,0,0,1-1.032-1.417,4.438,4.438,0,0,1-.376-1.865v-3.713a4.461,4.461,0,0,1,.376-1.857,4.26,4.26,0,0,1,1.032-1.424,4.5,4.5,0,0,1,1.545-.9,6.09,6.09,0,0,1,3.849,0,4.486,4.486,0,0,1,1.553.9,4.26,4.26,0,0,1,1.032,1.424,4.461,4.461,0,0,1,.376,1.857Zm-1.729-3.441a3.382,3.382,0,0,0-.8-2.425,3.712,3.712,0,0,0-4.705,0,3.38,3.38,0,0,0-.8,2.425v3.169a3.382,3.382,0,0,0,.8,2.425,3.714,3.714,0,0,0,4.705,0,3.384,3.384,0,0,0,.8-2.425Z" transform="translate(-46.294 -395.576)" fill="#686666"/>
      <path id="패스_321" data-name="패스 321" d="M128.616,408.444l-5.7-9.284v9.123l-1.392.464a.252.252,0,0,1-.232-.016.21.21,0,0,1-.1-.192V396.375h1.857l5.7,9.284v-9.284h1.729v12.069Z" transform="translate(-64.29 -396.055)" fill="#686666"/>
    </g>
    <g id="그룹_270" data-name="그룹 270" transform="translate(-53.931 396.888)">
      <path id="패스_322" data-name="패스 322" d="M-11.58,476.783v-7.2h1.3v6.1H-7.39v1.1Zm5.042,2.472a.189.189,0,0,1-.174-.012.158.158,0,0,1-.078-.144V469.04h1.272v3.6h1.3V468.86h1.273V479.4l-1.021.336a.191.191,0,0,1-.174-.012.159.159,0,0,1-.078-.144v-5.786h-1.3v5.125Z" transform="translate(11.58 -468.74)" fill="#686666"/>
      <path id="패스_323" data-name="패스 323" d="M24.944,480.726a.191.191,0,0,1-.174-.012.158.158,0,0,1-.078-.144v-3.685H20.43v-1.128h7.407v-1.549H21.69v-1.1h6.147v-1.489H21.75v-1.1h7.383v5.246h1.38v1.128h-4.5v3.493Z" transform="translate(-7.622 -469.73)" fill="#686666"/>
      <path id="패스_324" data-name="패스 324" d="M47.849,476.29v-1.1h4.382v-1.2H48.809v-1.1h1.344v-2.017h-1.2v-1.1h7.875v1.1h-1.2v2.017h1.344v1.1H53.551v1.2h4.382v1.1Zm1.38,3.7v-3.181h1.32v2.077h6.242v1.1Zm2.221-7.106h2.881v-2.017H51.45Z" transform="translate(-24.069 -469.28)" fill="#686666"/>
      <path id="패스_325" data-name="패스 325" d="M75.689,470.6v-1.1h2.449v-.936h1.344v.936h2.341v1.1Zm5.978,2.281a2.039,2.039,0,0,1-.12.678,1.613,1.613,0,0,1-.39.612,1.99,1.99,0,0,1-.708.439,2.974,2.974,0,0,1-1.062.168H78.234a2.963,2.963,0,0,1-1.068-.168,2,2,0,0,1-.7-.439,1.613,1.613,0,0,1-.39-.612,1.976,1.976,0,0,1,0-1.356,1.612,1.612,0,0,1,.39-.612,2,2,0,0,1,.7-.438,2.963,2.963,0,0,1,1.068-.168h1.152a2.974,2.974,0,0,1,1.062.168,2,2,0,0,1,.708.438,1.612,1.612,0,0,1,.39.612A2.039,2.039,0,0,1,81.667,472.881Zm-1.32,0a.719.719,0,0,0-.246-.595,1.074,1.074,0,0,0-.69-.2h-1.2a1.074,1.074,0,0,0-.69.2.841.841,0,0,0,0,1.189,1.076,1.076,0,0,0,.69.2h1.2a1.076,1.076,0,0,0,.69-.2A.717.717,0,0,0,80.347,472.881Zm-3.025,6.458v-3.853h6.962v3.853Zm5.666-2.749h-4.37v1.645h4.37Zm.252-1.476a.19.19,0,0,1-.174-.012.158.158,0,0,1-.078-.144V468.68h1.3v2.773h1.669v1.128H84.284v2.185Z" transform="translate(-40.769 -468.56)" fill="#686666"/>
    </g>
    <g id="그룹_271" data-name="그룹 271" transform="translate(-1.083 397.085)">
      <path id="패스_326" data-name="패스 326" d="M121.1,479.982a.6.6,0,0,1-.357-1.084l5.946-4.382-5.946-4.381a.6.6,0,0,1,.712-.967l6.6,4.864a.6.6,0,0,1,0,.967l-6.6,4.865A.6.6,0,0,1,121.1,479.982Z" transform="translate(-120.495 -469.052)" fill="#686666"/>
    </g>
  </g>
</svg>
