<svg xmlns="http://www.w3.org/2000/svg" width="80" height="80" viewBox="0 0 80 80">
  <g id="그룹_267" data-name="그룹 267" transform="translate(-536 -4422)">
    <circle id="타원_14" data-name="타원 14" cx="40" cy="40" r="40" transform="translate(536 4422)" fill="#f6cbcb"/>
    <g id="그룹_266" data-name="그룹 266" transform="translate(548.205 4439.629)">
      <g id="그룹_265" data-name="그룹 265" transform="translate(0 30.597)">
        <path id="패스_313" data-name="패스 313" d="M45.128,413.186H10.7A10.711,10.711,0,0,1,0,402.489v-2.722a.767.767,0,1,1,1.534,0v2.722a9.173,9.173,0,0,0,9.164,9.164H45.128a9.173,9.173,0,0,0,9.164-9.164v-2.032a.767.767,0,0,1,1.534,0v2.032A10.711,10.711,0,0,1,45.128,413.186Z" transform="translate(0 -399)" fill="#e45c71"/>
      </g>
      <path id="패스_314" data-name="패스 314" d="M223.049,20.39a.764.764,0,0,0-1.081,0l-9.846,9.854V.575A.579.579,0,0,0,211.546,0h-.537a.579.579,0,0,0-.575.575V30.091l-9.854-9.854a.765.765,0,1,0-1.081,1.081L210.81,32.629a.753.753,0,0,0,.544.222.786.786,0,0,0,.544-.222l11.157-11.157A.771.771,0,0,0,223.049,20.39Z" transform="translate(-183.994)" fill="#e45c71"/>
    </g>
  </g>
</svg>
