<svg xmlns="http://www.w3.org/2000/svg" width="33.761" height="7.099" viewBox="0 0 33.761 7.099">
  <g id="그룹_466" data-name="그룹 466" transform="translate(-119.769 -379.39) rotate(-1)">
    <path id="패스_45" data-name="패스 45" d="M209.889,388.334a3.148,3.148,0,1,0,3.3,3.144A3.224,3.224,0,0,0,209.889,388.334Zm.942,5.98c-.9.342-2.109-.634-2.7-2.18s-.331-3.077.571-3.419,2.109.634,2.7,2.18S211.733,393.971,210.831,394.314Z" transform="translate(-84.942 -6.137)" fill="#161615"/>
    <path id="패스_46" data-name="패스 46" d="M278.031,388.334a3.148,3.148,0,1,0,3.3,3.144A3.225,3.225,0,0,0,278.031,388.334Zm.942,5.98c-.9.342-2.109-.634-2.7-2.18s-.331-3.077.571-3.419,2.109.634,2.7,2.18S279.875,393.971,278.973,394.314Z" transform="translate(-146.871 -6.137)" fill="#161615"/>
    <path id="패스_47" data-name="패스 47" d="M352.512,394.355c-1.321-.059-1.6-1.429-1.558-2.517a5.748,5.748,0,0,0-.068-2.437c-.441-1.069-1.844-1.308-2.86-1.162a3.856,3.856,0,0,0-2.792,2.127,9.13,9.13,0,0,0-.749,2.142,12.685,12.685,0,0,1,.68-1.809c.6-1.214,2-2.707,3.516-2.08a1.786,1.786,0,0,1,.219.109,1.717,1.717,0,0,1,.363.279.984.984,0,0,1,.275.86c-.114.514-.724.668-1.172.737-1.066.165-2.517.189-2.957,1.394s.816,2.193,1.835,2.486a1.851,1.851,0,0,0,2.164-1.028,1.474,1.474,0,0,0,.065-.141,1.3,1.3,0,0,0,.008.323l0,.394.006.5,3.121-.022v-.15Zm-3.054-1.515a.628.628,0,0,1-.137.4,2.036,2.036,0,0,1-2.587.744c-1.435-.786-1.587-2.452.626-2.587a2.416,2.416,0,0,0,2.026-1.138.044.044,0,0,1,.073.034Z" transform="translate(-210.264 -6.016)" fill="#161615"/>
    <g id="그룹_163" data-name="그룹 163" transform="translate(113.127 381.581)">
      <path id="패스_48" data-name="패스 48" d="M113.127,381.594v.143a1.641,1.641,0,0,1,1.442.895c.5.938,2.2,5.892,2.2,5.892l.615-.124.553-1.535-2.113-5.283Z" transform="translate(-113.127 -381.581)" fill="#161615"/>
      <path id="패스_49" data-name="패스 49" d="M159.888,381.594v.143a1.641,1.641,0,0,1,1.442.895c.5.938,2.2,5.892,2.2,5.892l.615-.124.553-1.535-2.113-5.283Z" transform="translate(-155.625 -381.581)" fill="#161615"/>
    </g>
    <path id="패스_50" data-name="패스 50" d="M415.989,394.373l-.047-5.468-2.261-.861-.046.12a1.472,1.472,0,0,1,.918,1.215c.118.948-.069,5-.069,5Z" transform="translate(-273.11 -5.875)" fill="#161615"/>
    <path id="패스_51" data-name="패스 51" d="M434.274,398.927a2.616,2.616,0,0,0-.623-.552,2.005,2.005,0,0,0-1.5-.258,2.471,2.471,0,0,0-1.211.992,8.5,8.5,0,0,1-.939,1.224v.43a1.125,1.125,0,0,0,.545-.244,3.537,3.537,0,0,0,.525-.735,1.992,1.992,0,0,1,1.606-.817,3.293,3.293,0,0,1,.818.1,8.324,8.324,0,0,1,.94.291.923.923,0,0,1,.37.173C434.617,399.339,434.451,399.129,434.274,398.927Z" transform="translate(-287.983 -14.981)"/>
  </g>
</svg>
