<svg xmlns="http://www.w3.org/2000/svg" width="50" height="50" viewBox="0 0 50 50">
  <g id="그룹_250" data-name="그룹 250" transform="translate(-1039 -3080)">
    <g id="그룹_249" data-name="그룹 249" transform="translate(1039 3080)">
      <path id="패스_295" data-name="패스 295" d="M1064,3084.5c6.675,0,7.467.025,10.1.146,2.725.125,5.531.746,7.517,2.731,2,2,2.606,4.783,2.731,7.517.121,2.635.146,3.427.146,10.1s-.025,7.466-.146,10.1c-.123,2.71-.758,5.543-2.731,7.517-2,2-4.781,2.606-7.517,2.731-2.635.121-3.427.146-10.1.146s-7.467-.025-10.1-.146c-2.69-.123-5.56-.773-7.517-2.731-1.994-1.994-2.606-4.8-2.731-7.517-.121-2.636-.146-3.427-.146-10.1s.025-7.467.146-10.1c.123-2.7.765-5.55,2.731-7.517,2-2,4.79-2.606,7.517-2.731,2.635-.121,3.427-.146,10.1-.146m0-4.5c-6.79,0-7.642.029-10.308.15-3.865.177-7.7,1.252-10.5,4.046s-3.869,6.633-4.046,10.5c-.121,2.667-.15,3.519-.15,10.308s.029,7.642.15,10.308c.177,3.861,1.256,7.708,4.046,10.5s6.637,3.869,10.5,4.046c2.667.121,3.519.15,10.308.15s7.642-.029,10.308-.15c3.863-.177,7.7-1.254,10.5-4.046s3.869-6.634,4.046-10.5c.121-2.667.15-3.519.15-10.308s-.029-7.642-.15-10.308c-.177-3.865-1.254-7.7-4.046-10.5s-6.644-3.871-10.5-4.046C1071.642,3080.029,1070.79,3080,1064,3080Z" transform="translate(-1039 -3080)" fill="#fff"/>
      <path id="패스_296" data-name="패스 296" d="M1175.835,3204.544a12.291,12.291,0,1,0,12.291,12.291A12.292,12.292,0,0,0,1175.835,3204.544Zm0,20.27a7.979,7.979,0,1,1,7.979-7.979A7.979,7.979,0,0,1,1175.835,3224.814Z" transform="translate(-1150.835 -3191.835)" fill="#fff"/>
      <circle id="타원_13" data-name="타원 13" cx="3.135" cy="3.135" r="3.135" transform="translate(35.129 8.601)" fill="#fff"/>
    </g>
  </g>
</svg>
