<svg xmlns="http://www.w3.org/2000/svg" width="57.942" height="40.569" viewBox="0 0 57.942 40.569">
  <g id="그룹_252" data-name="그룹 252" transform="translate(-2337 -2672)">
    <path id="패스_299" data-name="패스 299" d="M2393.749,2678.348a7.258,7.258,0,0,0-5.107-5.107c-4.534-1.24-22.671-1.24-22.671-1.24s-18.136,0-22.671,1.193a7.407,7.407,0,0,0-5.106,5.155c-1.193,4.534-1.193,13.937-1.193,13.937s0,9.45,1.193,13.936a7.26,7.26,0,0,0,5.107,5.107c4.581,1.241,22.671,1.241,22.671,1.241s18.136,0,22.671-1.194a7.259,7.259,0,0,0,5.107-5.106c1.193-4.534,1.193-13.937,1.193-13.937S2394.99,2682.882,2393.749,2678.348Zm-33.552,22.623V2683.6l15.082,8.687Z" transform="translate(0 0)" fill="#fff"/>
  </g>
</svg>
