<svg xmlns="http://www.w3.org/2000/svg" width="108.347" height="22.367" viewBox="0 0 108.347 22.367">
  <g id="그룹_164" data-name="그룹 164" transform="translate(-113.127 -381.581)">
    <path id="패스_45" data-name="패스 45" d="M217.2,388.334a10.123,10.123,0,1,0,10.609,10.111A10.369,10.369,0,0,0,217.2,388.334Zm3.03,19.229c-2.9,1.1-6.781-2.037-8.668-7.009s-1.065-9.895,1.835-10.995,6.781,2.037,8.668,7.009S223.129,406.462,220.229,407.563Z" transform="translate(-66.061 -4.773)" fill="#161615"/>
    <path id="패스_46" data-name="패스 46" d="M285.341,388.334a10.123,10.123,0,1,0,10.609,10.111A10.369,10.369,0,0,0,285.341,388.334Zm3.03,19.229c-2.9,1.1-6.781-2.037-8.668-7.009s-1.065-9.895,1.835-10.995,6.781,2.037,8.668,7.009S291.272,406.462,288.371,407.563Z" transform="translate(-114.225 -4.773)" fill="#161615"/>
    <path id="패스_47" data-name="패스 47" d="M370.3,407.992c-4.249-.19-5.159-4.6-5.01-8.093.109-2.55.791-5.39-.219-7.837-1.42-3.439-5.93-4.207-9.2-3.737a12.4,12.4,0,0,0-8.978,6.84,29.36,29.36,0,0,0-2.409,6.888,40.8,40.8,0,0,1,2.187-5.816c1.924-3.9,6.439-8.706,11.307-6.69a5.737,5.737,0,0,1,.7.35,5.527,5.527,0,0,1,1.169.9,3.164,3.164,0,0,1,.884,2.767c-.367,1.654-2.328,2.149-3.768,2.371-3.428.529-8.094.609-9.51,4.484-1.408,3.851,2.623,7.053,5.9,7.993a5.952,5.952,0,0,0,6.958-3.307,4.769,4.769,0,0,0,.208-.454,4.171,4.171,0,0,0,.025,1.04l.015,1.267.019,1.6,10.037-.072V408C370.514,408,370.407,408,370.3,407.992Zm-9.822-4.87a2.019,2.019,0,0,1-.442,1.271c-1.165,1.446-4.324,4.581-8.32,2.393-4.616-2.528-5.1-7.885,2.013-8.318a7.768,7.768,0,0,0,6.514-3.659.141.141,0,0,1,.234.11Z" transform="translate(-163.527 -4.679)" fill="#161615"/>
    <g id="그룹_163" data-name="그룹 163" transform="translate(113.127 381.581)">
      <path id="패스_48" data-name="패스 48" d="M113.127,381.621v.459a5.278,5.278,0,0,1,4.636,2.878c1.619,3.018,7.075,18.946,7.075,18.946l1.978-.4,1.779-4.936L121.8,381.581Z" transform="translate(-113.127 -381.581)" fill="#161615"/>
      <path id="패스_49" data-name="패스 49" d="M159.888,381.621v.459a5.278,5.278,0,0,1,4.636,2.878c1.619,3.018,7.075,18.946,7.075,18.946l1.978-.4,1.779-4.936-6.795-16.987Z" transform="translate(-146.178 -381.581)" fill="#161615"/>
    </g>
    <path id="패스_50" data-name="패스 50" d="M421.2,408.395l-.15-17.582-7.271-2.768-.149.385a4.734,4.734,0,0,1,2.951,3.906c.38,3.048-.22,16.069-.22,16.069Z" transform="translate(-212.404 -4.569)" fill="#161615"/>
    <path id="패스_51" data-name="패스 51" d="M443.744,400.839a8.413,8.413,0,0,0-2-1.774,6.448,6.448,0,0,0-4.827-.83c-1.6.41-2.928,1.887-3.895,3.19A27.333,27.333,0,0,1,430,405.362v1.382a3.618,3.618,0,0,0,1.752-.786,11.374,11.374,0,0,0,1.687-2.364,6.4,6.4,0,0,1,5.164-2.626,10.591,10.591,0,0,1,2.63.324,26.761,26.761,0,0,1,3.023.937,2.966,2.966,0,0,1,1.189.556C444.847,402.162,444.314,401.486,443.744,400.839Z" transform="translate(-223.971 -11.651)"/>
  </g>
</svg>
