<svg xmlns="http://www.w3.org/2000/svg" width="23.532" height="23.121" viewBox="0 0 23.532 23.121">
  <g id="그룹_466" data-name="그룹 466" transform="translate(356.005 -673.465)">
    <path id="패스_558" data-name="패스 558" d="M-339.345,674.08a2.218,2.218,0,0,1,1.14-.1,4.966,4.966,0,0,1,1.5.3.462.462,0,0,0,.18.08,2.323,2.323,0,0,1,.32.12,3.084,3.084,0,0,0,.3.12,3.9,3.9,0,0,1,1.48,1.18,5.289,5.289,0,0,1,1.04,1.78,8.731,8.731,0,0,1,.28.88,6.319,6.319,0,0,1,.1,2.14,4.73,4.73,0,0,1-.34,1.9.541.541,0,0,0-.08.359,2.4,2.4,0,0,1-.24.84q-.081.162-.28.6t-.28.639q-1.68,3.841-7.36,9.521a14.962,14.962,0,0,1-1.6,1.479,1.635,1.635,0,0,1-.96.161,1.257,1.257,0,0,1-.66-.34q-.341-.3-2.26-2.14-.48-.48-2.16-2.08a25.406,25.406,0,0,1-1.96-2.12,25.966,25.966,0,0,1-3.04-4.24,9.95,9.95,0,0,1-1.08-2.64.39.39,0,0,0-.08-.28,3.5,3.5,0,0,1-.12-1.38,7.027,7.027,0,0,1,.16-1.82,7.381,7.381,0,0,1,1.6-3.06,3.9,3.9,0,0,1,2.44-1.42,9.7,9.7,0,0,0,1-.12q2.84-.36,5.44,3.04c.32.4.54.6.66.6s.286-.187.5-.56a9.665,9.665,0,0,1,1.48-1.96q.92-.961,1.32-.96a.878.878,0,0,0,.4-.2,1.036,1.036,0,0,1,.62-.2A1.049,1.049,0,0,0-339.345,674.08Z" fill="none" stroke="#6b6868" stroke-width="1"/>
  </g>
</svg>
