<svg xmlns="http://www.w3.org/2000/svg" width="37.637" height="37.638" viewBox="0 0 37.637 37.638">
  <g id="그룹_262" data-name="그룹 262" transform="translate(186.221 -115.399)">
    <g id="그룹_258" data-name="그룹 258" transform="translate(-185.721 115.899)">
      <path id="패스_304" data-name="패스 304" d="M-167.4,152.537a18.339,18.339,0,0,1-18.318-18.318A18.34,18.34,0,0,1-167.4,115.9a18.34,18.34,0,0,1,18.319,18.319A18.34,18.34,0,0,1-167.4,152.537Zm0-35.751a17.452,17.452,0,0,0-17.432,17.433A17.452,17.452,0,0,0-167.4,151.65a17.452,17.452,0,0,0,17.433-17.432A17.453,17.453,0,0,0-167.4,116.785Z" transform="translate(185.721 -115.899)" fill="none" stroke="#020202" stroke-miterlimit="10" stroke-width="1"/>
    </g>
    <g id="그룹_261" data-name="그룹 261" transform="translate(-174.948 129.433)">
      <g id="그룹_259" data-name="그룹 259" transform="translate(8.54 0)">
        <path id="패스_305" data-name="패스 305" d="M-163.35,140.714l-.333-.422-.25-.47,5.849-3.707a.21.21,0,0,0,.081-.176.209.209,0,0,0-.081-.175l-5.836-3.7.57-.9,5.836,3.7a1.256,1.256,0,0,1,.575,1.073,1.258,1.258,0,0,1-.575,1.074Z" transform="translate(163.933 -131.167)" fill="#020202"/>
      </g>
      <g id="그룹_260" data-name="그룹 260" transform="translate(0 4.149)">
        <rect id="사각형_261" data-name="사각형 261" width="15.003" height="1.064" fill="#020202"/>
      </g>
    </g>
  </g>
</svg>
