<svg xmlns="http://www.w3.org/2000/svg" width="169.472" height="149.033" viewBox="0 0 169.472 149.033">
  <g id="crown" transform="translate(-248.605 -262.756) rotate(-9)">
    <path id="패스_548" data-name="패스 548" d="M593.868,638.726C585.989,622.41,582.1,604,584.539,585.933c.009-.074.022-.151.03-.225a1.941,1.941,0,0,0-1.58-2.152h0a1.706,1.706,0,0,0-1.338.45c-.1.091-.208.186-.312.281-6.9,6.195-12.572,14.156-14.866,23.2a58.9,58.9,0,0,0-16.152-7.693,1.624,1.624,0,0,0-.991-.022l-.082.026a1.571,1.571,0,0,0-.9.8,54.475,54.475,0,0,0-6.316,21.343,87.135,87.135,0,0,0-25.936-.931c-.061.009-.117.013-.177.022a1.947,1.947,0,0,0-1.641,2.264v0a1.675,1.675,0,0,0,.762.987c.121.078.242.151.364.234a75.148,75.148,0,0,1,30.551,38.512,1.7,1.7,0,0,0,.888,1.017.209.209,0,0,0,.043.022,1.994,1.994,0,0,0,1.849-.152s.009,0,.013-.009c.043-.035.082-.069.126-.108.087-.078.169-.16.255-.238,12.083-11.238,26.849-19.455,43.222-22.191.061-.009.121-.017.186-.03a1.942,1.942,0,0,0,1.528-1.81v-.009A1.805,1.805,0,0,0,593.868,638.726Zm-45.5,20.814a78.973,78.973,0,0,0-27.425-35.473,87.415,87.415,0,0,1,22.252,1.641,1.742,1.742,0,0,0,1.13-.13c.009,0,.013-.009.017-.009a1.658,1.658,0,0,0,1.061-1.546,49.843,49.843,0,0,1,5.321-20.425,50.531,50.531,0,0,1,15.641,8.139,1.849,1.849,0,0,0,.853.39s0,0,.009,0a2.008,2.008,0,0,0,2.039-1.056.874.874,0,0,0,.022-.1c.043-.238.087-.48.139-.714v0c1.567-7.818,5.771-14.719,11.23-20.434-1.312,16.671,2.208,33.261,9.16,48.469C574.275,641.241,560.131,649.064,548.369,659.541Z" transform="translate(-291.597 -245.183)" fill="#f6ae41"/>
    <path id="패스_549" data-name="패스 549" d="M648.914,693.643c-15.542,2.957-29.685,10.78-41.447,21.256a78.972,78.972,0,0,0-27.425-35.473,87.42,87.42,0,0,1,22.252,1.641,1.742,1.742,0,0,0,1.13-.13c.009,0,.013-.009.017-.009a1.658,1.658,0,0,0,1.061-1.546,49.844,49.844,0,0,1,5.321-20.425,50.529,50.529,0,0,1,15.641,8.139,1.85,1.85,0,0,0,.853.39s0,0,.009,0a2.008,2.008,0,0,0,2.039-1.056.874.874,0,0,0,.022-.1c.043-.238.087-.481.139-.714v0c1.567-7.818,5.771-14.719,11.23-20.433C638.442,661.845,641.961,678.435,648.914,693.643Z" transform="translate(-350.695 -300.541)" fill="#f6ae41"/>
    <path id="패스_550" data-name="패스 550" d="M1338.227,378.3a77.418,77.418,0,0,0-14.438,16.827c-1.2,1.9-4.225.138-3.017-1.766a80.593,80.593,0,0,1,14.983-17.529C1337.444,374.356,1339.92,376.815,1338.227,378.3Z" transform="translate(-1015.817 -58.191)" fill="#f6ae41"/>
    <path id="패스_551" data-name="패스 551" d="M1632.407,944.749a65.309,65.309,0,0,0-25.2-4.974,1.748,1.748,0,0,1,0-3.493,67.959,67.959,0,0,1,26.135,5.1C1635.39,942.225,1634.485,945.6,1632.407,944.749Z" transform="translate(-1271.844 -562.033)" fill="#f6ae41"/>
    <path id="패스_552" data-name="패스 552" d="M875.061,313.221a23.8,23.8,0,0,0-2.775,14.589c.268,2.234-3.229,2.208-3.494,0a26.966,26.966,0,0,1,3.251-16.351C873.125,309.485,876.143,311.247,875.061,313.221Z" transform="translate(-609.899 0)" fill="#f6ae41"/>
    <path id="패스_553" data-name="패스 553" d="M327.789,641.331l-23.351-.714c-2.247-.069-2.247-3.563,0-3.494l23.351.714C330.035,637.907,330.035,641.4,327.789,641.331Z" transform="translate(-101.615 -293.308)" fill="#f6ae41"/>
    <path id="패스_554" data-name="패스 554" d="M209.143,1113.545l-17.4,6.338c-2.117.771-3.022-2.606-.926-3.368l17.394-6.338C210.334,1109.406,211.238,1112.783,209.143,1113.545Z" transform="translate(0 -718.136)" fill="#f6ae41"/>
    <path id="패스_555" data-name="패스 555" d="M446.851,1479.179a41.518,41.518,0,0,0-11.126,17.516c-.693,2.134-4.065,1.217-3.368-.931a45.246,45.246,0,0,1,12.022-19.057C446.016,1475.166,448.492,1477.634,446.851,1479.179Z" transform="translate(-217.95 -1047.042)" fill="#f6ae41"/>
  </g>
</svg>
