<svg xmlns="http://www.w3.org/2000/svg" width="87.913" height="123.883" viewBox="0 0 87.913 123.883">
  <g id="그룹_376" data-name="그룹 376" transform="translate(-356.81 -24.096)">
    <path id="패스_418" data-name="패스 418" d="M440.548,143.687c-12.35,0-22.362,5.253-22.362,11.735s10.012,11.735,22.362,11.735,22.361-5.254,22.361-11.735S452.9,143.687,440.548,143.687Z" transform="translate(-23.134 -45.076)" fill="#baa493" opacity="0.3" style="mix-blend-mode: multiply;isolation: isolate"/>
    <path id="패스_419" data-name="패스 419" d="M416.606,190.454a18.127,18.127,0,0,0-2.961.24L379.714,171.1,358.246,183.5,392.7,203.389l14.129-8.157a2.673,2.673,0,0,0-.036.374c0,2.845,4.395,5.151,9.816,5.151s9.816-2.306,9.816-5.151S422.028,190.454,416.606,190.454Z" transform="translate(-0.541 -55.41)" fill="#baa493" opacity="0.3" style="mix-blend-mode: multiply;isolation: isolate"/>
    <g id="그룹_375" data-name="그룹 375" transform="translate(356.81 24.096)">
      <g id="그룹_358" data-name="그룹 358" transform="translate(51.222 98.807)">
        <g id="그룹_356" data-name="그룹 356">
          <path id="패스_420" data-name="패스 420" d="M454.787,197.577c.535.793.173,1.089.078,2.337s-.078,2.586-.078,2.586h-.87a10.372,10.372,0,0,0-.161-2.406.452.452,0,0,0-.42-.335Z" transform="translate(-444.414 -188.291)" fill="#606060"/>
          <path id="패스_421" data-name="패스 421" d="M454.269,205.355c0,.112.2.2.435.2s.435-.091.435-.2-.2-.2-.435-.2S454.269,205.244,454.269,205.355Z" transform="translate(-444.766 -191.147)" fill="#606060"/>
          <path id="패스_422" data-name="패스 422" d="M450.509,196.191c-.05-.718-.71-1.234-2.147.126a35.736,35.736,0,0,0-3.134,3.895,31.537,31.537,0,0,1-2.507,2.8c-.523.5,1.013,1.938,1.013,1.938s2.452-.409,3.3-2.08a26.592,26.592,0,0,1,2.7-4.32A2.622,2.622,0,0,0,450.509,196.191Z" transform="translate(-440.373 -187.496)" fill="#e54177"/>
          <path id="패스_423" data-name="패스 423" d="M450.184,197.979c1.2.593-.421,1.946-1.34,3.054a13.04,13.04,0,0,0-1.866,4.072c-.566,1.576-2.831,1.828-4.38,1.828s-.8-1.7.688-2.963,2.241-2.669,3.7-4.442C448.4,197.808,449.29,197.536,450.184,197.979Z" transform="translate(-440.045 -188.372)" fill="#3f3e3d"/>
          <path id="패스_424" data-name="패스 424" d="M439.04,201.139c.324-.926,1.614-1.823,2.192-2.333a14.715,14.715,0,0,0,1.273-2.028,14.149,14.149,0,0,0,1.247-3.617c-.412-.393-.244-.739.422-1.08-.122-.1-.475-.4-.422-.735s.52-.737.5-1.153c-.1-2.482-.152-5.636-.081-5.5.085.165,5.408-.728,5.408-.728s-.292,1.827-.429,3.854a7.2,7.2,0,0,0,.429,3.524c.111.264-.274.511-.206.735a3.092,3.092,0,0,1,.3,1.32c-.041.973-.869,1.306-2.155,3.05a10.524,10.524,0,0,0-1.57,3.444,2.922,2.922,0,0,1-1.933,1.782,7.211,7.211,0,0,1-1.929.457C440.211,202.132,438.821,201.765,439.04,201.139Z" transform="translate(-439.017 -183.161)" fill="#fa9069"/>
          <path id="패스_425" data-name="패스 425" d="M439.04,201.545c.324-.926,1.614-1.823,2.192-2.333a14.713,14.713,0,0,0,1.273-2.028,14.151,14.151,0,0,0,1.247-3.617c-.412-.393-.244-.739.422-1.08-.122-.1-.475-.4-.422-.735s.52-.737.5-1.153c-.1-2.482-.152-5.636-.081-5.5a3.234,3.234,0,0,0,.973-.055,34.076,34.076,0,0,0-.1,5.087,2.372,2.372,0,0,1-.2,1.213c-.045.122-.346.335-.353.472-.019.369.21.441.462.7a.887.887,0,0,0-.25,1.234c.107.117.217.16.281.293a6.144,6.144,0,0,1-1.429,4.285,10,10,0,0,1-1.853,1.459,6.378,6.378,0,0,0-1.5,1.037,1.245,1.245,0,0,0-.125,1.528C439.332,202.185,438.913,201.909,439.04,201.545Z" transform="translate(-439.018 -183.568)" fill="#ff9e80"/>
          <path id="패스_426" data-name="패스 426" d="M446.456,205.688a7.155,7.155,0,0,0,1.576-2.77,8.1,8.1,0,0,1,.9-1.584c.493-.634,1.074-1.193,1.59-1.808a3.857,3.857,0,0,0,.9-1.693,2.535,2.535,0,0,1,.108.794c-.041.973-.869,1.306-2.155,3.05a10.526,10.526,0,0,0-1.57,3.444,4.159,4.159,0,0,1-3.862,2.239C444.743,206.756,445.574,206.445,446.456,205.688Z" transform="translate(-440.875 -188.388)" fill="#ef7752"/>
          <path id="패스_427" data-name="패스 427" d="M453.332,197.1a1.566,1.566,0,0,1-1.113.9,2.86,2.86,0,0,1-1.847-.265,4.576,4.576,0,0,0,1.753-.093C452.647,197.4,453.332,197.1,453.332,197.1Z" transform="translate(-443.297 -188.111)" fill="#ef7752"/>
          <path id="패스_428" data-name="패스 428" d="M451.87,193.531s.12.8-1.173,1.253a3.689,3.689,0,0,1-2.465-.044s.832-.125,1.862-.318A3.959,3.959,0,0,0,451.87,193.531Z" transform="translate(-442.491 -186.766)" fill="#ef7752"/>
          <path id="패스_429" data-name="패스 429" d="M450.411,192.7a3.182,3.182,0,0,1-1.41-.558,2.706,2.706,0,0,1-.77-1.176s-.037,1.455.69,1.8A1.776,1.776,0,0,0,450.411,192.7Z" transform="translate(-442.49 -185.8)" fill="#ef7752"/>
          <path id="패스_430" data-name="패스 430" d="M449.963,199.2s-.98-.167-1.685-.22-1.329-.363-1.225-.251a1.849,1.849,0,0,0,1.4.614,3.576,3.576,0,0,0,1.681-.225Z" transform="translate(-442.042 -188.718)" fill="#ef7752"/>
          <path id="패스_431" data-name="패스 431" d="M452.694,183.48c-.1,1.089-2.051,1.054-3.348,1.247s-2.19.239-2.059-.52.8-.94,2.7-1.343C451.478,182.548,452.784,182.546,452.694,183.48Z" transform="translate(-442.129 -182.674)" fill="#ef7752"/>
        </g>
        <g id="그룹_357" data-name="그룹 357" transform="translate(4.46 1.681)">
          <path id="패스_432" data-name="패스 432" d="M461.945,200.274c.535.793.173,1.089.078,2.338s-.078,2.586-.078,2.586h-.87a10.377,10.377,0,0,0-.161-2.407.452.452,0,0,0-.42-.335Z" transform="translate(-451.572 -190.989)" fill="#ef7752"/>
          <path id="패스_433" data-name="패스 433" d="M461.427,208.053c0,.112.194.2.435.2s.435-.091.435-.2-.2-.2-.435-.2S461.427,207.941,461.427,208.053Z" transform="translate(-451.924 -193.845)" fill="#ef7752"/>
          <path id="패스_434" data-name="패스 434" d="M457.667,198.888c-.05-.718-.71-1.235-2.146.126a35.736,35.736,0,0,0-3.134,3.894,31.435,31.435,0,0,1-2.507,2.8c-.523.5,1.013,1.939,1.013,1.939s2.452-.41,3.3-2.081a26.663,26.663,0,0,1,2.7-4.32A2.62,2.62,0,0,0,457.667,198.888Z" transform="translate(-447.531 -190.194)" fill="#e54177"/>
          <path id="패스_435" data-name="패스 435" d="M457.342,200.676c1.2.593-.421,1.946-1.34,3.054a13.041,13.041,0,0,0-1.866,4.072c-.566,1.576-2.831,1.828-4.38,1.828s-.8-1.7.689-2.963,2.241-2.67,3.7-4.443C455.557,200.505,456.448,200.234,457.342,200.676Z" transform="translate(-447.203 -191.069)" fill="#3f3e3d"/>
          <path id="패스_436" data-name="패스 436" d="M446.2,203.836c.324-.926,1.614-1.823,2.192-2.333a14.752,14.752,0,0,0,1.273-2.028,14.153,14.153,0,0,0,1.247-3.618c-.412-.393-.244-.738.422-1.08-.122-.1-.475-.4-.422-.734s.52-.738.5-1.153c-.1-2.482-.152-5.636-.081-5.5.085.165,5.408-.727,5.408-.727s-.292,1.827-.429,3.854a7.207,7.207,0,0,0,.429,3.525c.111.264-.274.511-.206.734a3.093,3.093,0,0,1,.3,1.321c-.041.972-.869,1.305-2.155,3.05a10.522,10.522,0,0,0-1.57,3.444,2.925,2.925,0,0,1-1.933,1.783,7.235,7.235,0,0,1-1.929.457C447.369,204.83,445.979,204.462,446.2,203.836Z" transform="translate(-446.175 -185.859)" fill="#fa9069"/>
          <path id="패스_437" data-name="패스 437" d="M446.2,204.243c.324-.926,1.614-1.823,2.192-2.333a14.762,14.762,0,0,0,1.273-2.028,14.153,14.153,0,0,0,1.247-3.618c-.412-.393-.244-.738.422-1.08-.122-.1-.475-.4-.422-.734s.52-.738.5-1.153c-.1-2.482-.152-5.636-.081-5.5a3.245,3.245,0,0,0,.973-.055,34.067,34.067,0,0,0-.1,5.087,2.373,2.373,0,0,1-.2,1.213c-.045.121-.346.334-.353.472-.019.368.21.441.462.7a.886.886,0,0,0-.25,1.233c.107.118.217.161.281.294a6.145,6.145,0,0,1-1.429,4.285,10.055,10.055,0,0,1-1.853,1.459,6.359,6.359,0,0,0-1.5,1.036,1.246,1.246,0,0,0-.125,1.528C446.49,204.883,446.071,204.607,446.2,204.243Z" transform="translate(-446.176 -186.266)" fill="#ff9e80"/>
          <path id="패스_438" data-name="패스 438" d="M453.614,208.386a7.17,7.17,0,0,0,1.576-2.771,8.1,8.1,0,0,1,.9-1.583c.493-.634,1.074-1.194,1.59-1.808a3.861,3.861,0,0,0,.9-1.694,2.537,2.537,0,0,1,.108.794c-.041.972-.869,1.305-2.155,3.05a10.521,10.521,0,0,0-1.57,3.444,4.16,4.16,0,0,1-3.863,2.239C451.9,209.453,452.732,209.142,453.614,208.386Z" transform="translate(-448.033 -191.085)" fill="#ef7752"/>
          <path id="패스_439" data-name="패스 439" d="M460.49,199.8a1.568,1.568,0,0,1-1.113.9,2.864,2.864,0,0,1-1.847-.265,4.566,4.566,0,0,0,1.753-.094C459.805,200.1,460.49,199.8,460.49,199.8Z" transform="translate(-450.455 -190.809)" fill="#ef7752"/>
          <path id="패스_440" data-name="패스 440" d="M459.028,196.228s.12.8-1.173,1.254a3.691,3.691,0,0,1-2.465-.045s.832-.124,1.862-.317A3.957,3.957,0,0,0,459.028,196.228Z" transform="translate(-449.649 -189.464)" fill="#ef7752"/>
          <path id="패스_441" data-name="패스 441" d="M457.569,195.4a3.178,3.178,0,0,1-1.41-.559,2.706,2.706,0,0,1-.77-1.176s-.037,1.455.69,1.805A1.779,1.779,0,0,0,457.569,195.4Z" transform="translate(-449.648 -188.497)" fill="#ef7752"/>
          <path id="패스_442" data-name="패스 442" d="M457.121,201.9s-.98-.167-1.685-.22-1.329-.363-1.225-.251a1.849,1.849,0,0,0,1.4.614,3.581,3.581,0,0,0,1.681-.224Z" transform="translate(-449.2 -191.415)" fill="#ef7752"/>
          <path id="패스_443" data-name="패스 443" d="M459.852,186.178c-.1,1.089-2.051,1.054-3.348,1.247s-2.19.239-2.059-.52.8-.939,2.7-1.342C458.636,185.246,459.941,185.244,459.852,186.178Z" transform="translate(-449.287 -185.372)" fill="#ef7752"/>
        </g>
      </g>
      <g id="그룹_362" data-name="그룹 362">
        <path id="패스_444" data-name="패스 444" d="M373.867,99.844l-4.582,2.645-8.023,28.418,1.309.742,3.3-3.487Z" transform="translate(-358.488 -52.647)" fill="#3f3e3d"/>
        <path id="패스_445" data-name="패스 445" d="M375.94,101.195l-4.582,2.645-7.995,28.318,4.582-2.645Z" transform="translate(-359.28 -53.156)" fill="#2b2a29"/>
        <g id="그룹_360" data-name="그룹 360">
          <path id="패스_446" data-name="패스 446" d="M372.055,118.822l25.7-14.836L386.544,25.834l-25.7,14.836Z" transform="translate(-358.332 -24.751)" fill="#ce8655"/>
          <g id="그룹_359" data-name="그룹 359" transform="translate(4.139 3.549)">
            <path id="패스_447" data-name="패스 447" d="M403.808,104.447l-10.72-74.656-.6.346L403.11,104.1,380.5,117.153l.1.695Z" transform="translate(-369.878 -29.791)" fill="#b26c3d"/>
            <path id="패스_448" data-name="패스 448" d="M386.065,30.346,363.453,43.4l10.62,73.961,22.612-13.055Z" transform="translate(-363.453 -30)" fill="#b3d1e0"/>
          </g>
          <path id="패스_449" data-name="패스 449" d="M385.023,25.179,382.508,24.1l-25.7,14.836,2.515,1.083Z" transform="translate(-356.81 -24.096)" fill="#dd9864"/>
          <path id="패스_450" data-name="패스 450" d="M370.533,127.142l-2.515-1.476L356.81,47.907l2.515,1.083Z" transform="translate(-356.81 -33.071)" fill="#b26c3d"/>
        </g>
        <g id="그룹_361" data-name="그룹 361" transform="translate(5.205 11.873)">
          <path id="패스_451" data-name="패스 451" d="M404.463,63.214l1.69,11.768Z" transform="translate(-379.977 -50.714)" fill="#fff" opacity="0.5"/>
          <path id="패스_452" data-name="패스 452" d="M366.854,74.982h24.487l-1.69-11.768H365.164Z" transform="translate(-365.164 -50.713)" fill="#fff" opacity="0.5"/>
          <path id="패스_453" data-name="패스 453" d="M377.8,151.242h17.762l6.209-3.585-.33-2.3H376.959Z" transform="translate(-369.61 -81.675)" fill="#fff" opacity="0.5"/>
          <path id="패스_454" data-name="패스 454" d="M407.668,85.531l.48,3.341Z" transform="translate(-381.185 -59.125)" fill="#fff" opacity="0.5"/>
          <path id="패스_455" data-name="패스 455" d="M368.849,88.872h24.487l-.48-3.341H368.369Z" transform="translate(-366.372 -59.125)" fill="#fff" opacity="0.5"/>
          <path id="패스_456" data-name="패스 456" d="M401.583,43.152l.266,1.856Z" transform="translate(-378.891 -43.152)" fill="#fff" opacity="0.5"/>
          <path id="패스_457" data-name="패스 457" d="M390.585,43.152H375.619L372.4,45.007h18.447Z" transform="translate(-367.893 -43.152)" fill="#fff" opacity="0.5"/>
          <path id="패스_458" data-name="패스 458" d="M379.068,160.043h10.325l3.214-1.856H378.8Z" transform="translate(-370.304 -86.51)" fill="#fff" opacity="0.5"/>
        </g>
      </g>
      <g id="그룹_367" data-name="그룹 367" transform="translate(43.453 10.601)">
        <g id="그룹_365" data-name="그룹 365">
          <path id="패스_459" data-name="패스 459" d="M455.2,64.655c-2.433-1.535-5.349,5.536-5.349,5.536s2.1,3.027,3.271,3.027,4.107-7.43,4.107-7.43Z" transform="translate(-435.331 -49.902)" fill="#b7a9a1"/>
          <g id="그룹_363" data-name="그룹 363" transform="translate(23.075 56.747)">
            <path id="패스_460" data-name="패스 460" d="M472.453,156.713a5.478,5.478,0,0,1,.048,1.937,9.927,9.927,0,0,1-1.378,2.441c-1.14,1.718-2.028,2.824-1.967,3.738s1.668.923,3.674-.49a21.182,21.182,0,0,0,2.47-2.959s1.283-.829,1.351-1.452a2.808,2.808,0,0,0-.593-1.949,19.541,19.541,0,0,1-1.021-2.127Z" transform="translate(-465.683 -141.105)" fill="#2b2a29"/>
            <path id="패스_461" data-name="패스 461" d="M470.2,150.266s1.439.079,2.234.139a5.692,5.692,0,0,1,1.25-1.828s-.493-1.262-.669-1.678c-.76-1.791-1.461-6.777-2.879-9.908a11.8,11.8,0,0,0-3.734-4.807l-2.823,1.945s6.553,13.6,6.727,14.447A3,3,0,0,1,470.2,150.266Z" transform="translate(-463.584 -132.184)" fill="#ffc8b5"/>
          </g>
          <path id="패스_462" data-name="패스 462" d="M471.6,151.2l.6,1.291a1.787,1.787,0,0,0,1.633.139,3.484,3.484,0,0,0,1.608-1.194l-.457-1.878Z" transform="translate(-443.531 -81.984)" fill="#2b2a29"/>
          <g id="그룹_364" data-name="그룹 364" transform="translate(0 53.423)">
            <path id="패스_463" data-name="패스 463" d="M433.94,151.113a5.49,5.49,0,0,1-1.052,1.627,9.941,9.941,0,0,1-2.514,1.241c-1.91.777-3.266,1.19-3.732,1.98s.858,1.7,3.311,1.666a21.2,21.2,0,0,0,3.707-1.052s1.528.037,1.935-.439a2.808,2.808,0,0,0,.608-1.944,19.573,19.573,0,0,1,.355-2.332Z" transform="translate(-426.55 -135.995)" fill="#2b2a29"/>
            <path id="패스_464" data-name="패스 464" d="M435.973,143.927s1.145.876,1.768,1.374a5.685,5.685,0,0,1,2.062-.806s.3-1.32.393-1.763c.382-1.908,2.612-6.422,3.2-9.807a11.806,11.806,0,0,0-.376-6.076l-3.428.016s-2.248,14.925-2.583,15.727A3.008,3.008,0,0,1,435.973,143.927Z" transform="translate(-430.102 -126.85)" fill="#ffc8b5"/>
          </g>
          <path id="패스_465" data-name="패스 465" d="M438.759,145.342l-.235,1.4a1.788,1.788,0,0,0,1.27,1.036,3.485,3.485,0,0,0,2-.081l.68-1.809Z" transform="translate(-431.063 -80.397)" fill="#2b2a29"/>
          <path id="패스_466" data-name="패스 466" d="M447.928,93.071c-2.043,1.824-4.382,8.276-5.917,12.264s-2.373,5.061-2.373,6.975-2.925,10.543-1.1,13.33a4.241,4.241,0,0,0,3.717.548s4.388-5.392,3.1-10.491c.492-.6,5.221-3.522,7.812-9.1A30.212,30.212,0,0,0,455.5,94.393Z" transform="translate(-430.843 -60.695)" fill="#af3838"/>
          <path id="패스_467" data-name="패스 467" d="M463.818,92.164c2.583,4.134,3.757,5.8,3.483,12.256,1.419,8.438,1.379,12.354.31,14.48a35.129,35.129,0,0,1,1.318,8.847,3.006,3.006,0,0,1-3.547.936s-3.177-4.519-4.095-8.044c-2.556-1.522-2.156-3.471-3.072-7.326a56.638,56.638,0,0,1-1.137-10.958s-3.851-2.179-.816-10.867C457.7,87.387,463.818,92.164,463.818,92.164Z" transform="translate(-437.31 -59.472)" fill="#c64e4e"/>
          <path id="패스_468" data-name="패스 468" d="M454.195,88.913l-.224,2.591a8.2,8.2,0,0,0,4.858,1.69c3.369,0,4.565-1.374,4.565-1.374l-.209-2.907Z" transform="translate(-436.885 -59.128)" fill="#2b2a29"/>
          <path id="패스_469" data-name="패스 469" d="M467.272,49.5c-.872,1.082-3.124.716-5.03-.819s-2.745-3.657-1.874-4.74,3.124-.717,5.031.819S468.144,48.416,467.272,49.5Z" transform="translate(-439.167 -41.942)" fill="#2b2a29"/>
          <path id="패스_470" data-name="패스 470" d="M459.817,44.139l-1.539,1.151,7.787,6.133.765-1.985Z" transform="translate(-438.508 -42.251)" fill="#2b2a29"/>
          <path id="패스_471" data-name="패스 471" d="M464.618,54.117c-1.406,1.747-5.039,1.155-8.114-1.32s-4.428-5.9-3.022-7.645,5.039-1.156,8.114,1.32S466.025,52.37,464.618,54.117Z" transform="translate(-436.492 -42.255)" fill="#51504f"/>
          <path id="패스_472" data-name="패스 472" d="M453.752,45.592l-.35.431,11.182,8.9.363-.475Z" transform="translate(-436.671 -42.799)" fill="#473341"/>
          <ellipse id="타원_14" data-name="타원 14" cx="4.06" cy="7.148" rx="4.06" ry="7.148" transform="translate(14.231 6.325) rotate(-51.163)" fill="#2b2a29"/>
          <path id="패스_473" data-name="패스 473" d="M461.421,66.183c-3.314-2.5-5.84-.936-7.48,1.985s-2.517,4.5-1.751,5.9.649,2.74.662,4.494c.005.726-.941,2.4.566,2.29a3.542,3.542,0,0,0,4.346,1.168c1.748,1.017,4.585.171,4.452-1.158,1.449-.12.536-3.972,2-6.8C465.632,71.3,465.218,69.045,461.421,66.183Z" transform="translate(-436.109 -50.091)" fill="#dbcec5"/>
          <path id="패스_474" data-name="패스 474" d="M458.778,63.374a2.916,2.916,0,0,0-2.027.88,8.352,8.352,0,0,0-2.033,2.669l.571,1.369a13.031,13.031,0,0,0-1.317,1.288c-.031,1.571,1.973,3.958,1.973,3.958a12.489,12.489,0,0,1,.527-4.412,13.966,13.966,0,0,1,2.867-4.009Z" transform="translate(-436.885 -49.502)" fill="#c6b8af"/>
          <path id="패스_475" data-name="패스 475" d="M459.909,66.606a13.789,13.789,0,0,0-2.309,3.738,8,8,0,0,0-.527,4.412l5.3-5.106Z" transform="translate(-438.015 -50.72)" fill="#fff"/>
          <path id="패스_476" data-name="패스 476" d="M460.627,60.913s.656,2.9,0,4.567,1.469,2.412,2.811,1.715A2.854,2.854,0,0,0,465,65.48a34.064,34.064,0,0,1-.926-5.145C463.8,57.535,460.627,60.913,460.627,60.913Z" transform="translate(-439.348 -47.938)" fill="#ffb8a3"/>
          <path id="패스_477" data-name="패스 477" d="M455.8,51.677c1.585-2.514,5.653-1.62,6.941.475,1.7,2.762-.831,7.192-3.509,8.251-2.2.871-3.418-1.2-3.8-2.819C454.984,55.7,455.113,52.765,455.8,51.677Z" transform="translate(-437.337 -44.517)" fill="#ffc8b5"/>
          <path id="패스_478" data-name="패스 478" d="M461.284,50.294c-.6-1.046-1.907-2.633-3.124-2.555-1.174-1.39-2.595-2.124-3.872-1.571a1.807,1.807,0,0,0-.981,1.017,1.9,1.9,0,0,0-2.166.649,1.727,1.727,0,0,0,.13,2.2,2.427,2.427,0,0,0-.361,1.839c.3,1.211,1.177,1.508.009,2.939-.351.431-.951.586-1.053,1.234-.214,1.365,1.451,1.385,2.076,2.207.316-.409.043-.561-.133-1.079-.143-.421.879-.924.953-1.009a2.443,2.443,0,0,0,.528-.891,7.708,7.708,0,0,0,.12-2.566,2.516,2.516,0,0,1,1.266-2.282,12.644,12.644,0,0,0,4.287,3.383,19.115,19.115,0,0,1,1.251,2.963C461.448,55.109,462.692,52.757,461.284,50.294Z" transform="translate(-435.331 -42.946)" fill="#c64e4e"/>
          <path id="패스_479" data-name="패스 479" d="M465.873,58.254c-.688-1.211-1.763.264-1.763.264l.492,1.763S466.561,59.464,465.873,58.254Z" transform="translate(-440.707 -47.392)" fill="#ffc8b5"/>
          <path id="패스_480" data-name="패스 480" d="M462.577,63.3,463,65.565s-1.507,1.671-3.111,3.463a32.228,32.228,0,0,0-3.248,3.76,3.01,3.01,0,0,0-.522,1.905,3.069,3.069,0,0,1,1.857-1.332,21.31,21.31,0,0,0,2.787-.891l-.447-1.784h2.469c1.588-2.26,1.847-4.18,1.5-5.122A4.823,4.823,0,0,0,462.577,63.3Z" transform="translate(-437.692 -49.473)" fill="#c6b8af"/>
        </g>
        <g id="그룹_366" data-name="그룹 366" transform="translate(3.245 15.602)">
          <path id="패스_481" data-name="패스 481" d="M469.093,77.451a20.586,20.586,0,0,0,1.355,5.413,16.615,16.615,0,0,0,2.128,3.352s.246,4.539.62,7.491,1.749,3.218,2.57,1.819,1.11-7.62.564-9.761c-.09-.356-2.891-7.167-3.753-8.981S469.093,77.451,469.093,77.451Z" transform="translate(-445.83 -69.908)" fill="#ffb8a3"/>
          <path id="패스_482" data-name="패스 482" d="M432.314,67.6s1.192-.444,2.34-.918c3.034,2.862,5.3-.535,5.3-.535l2.292.362s-.068,2.509.148,5.222c.105,1.324,1.838,2.174,1.838,2.174s.046,3.535,0,5.914c1.469,1.945,4.01,7.716,7.863,9.941,2.367,1.367,6.226.779,7.916.7,2.465-.122,4.275,2.487,9.214,9.169a35.149,35.149,0,0,1,3.75,6.583s-3.008,2.309-4.374,2.515-4.151.231-3.9.937c.61,1.737,1.2,3.243.186,4.312s-3.918.875-3.642,2.272c.086.438,1.811,5.064-2.735,5.795-2.973.478-4.134-1.033-5.633.3-1.477,1.317-3.483,1.828-7.3-.3-3.379-1.887-4.213-2.426-6.271-2a7.989,7.989,0,0,1-7.543-2s5.842-8.425,4.121-27.584c-.272-3.026-.855-7.941-.855-7.941a10.8,10.8,0,0,1-2.71-5.471A20.592,20.592,0,0,1,432.314,67.6Z" transform="translate(-431.758 -66.15)" fill="#fa9069"/>
          <path id="패스_483" data-name="패스 483" d="M437,90.789s1.044,2.1,5.145,1c2.622-.7,4.061-3.7,4.061-3.7a9.749,9.749,0,0,1-3.889,2.482A8.512,8.512,0,0,1,437,90.789Z" transform="translate(-433.734 -74.42)" fill="#ef7752"/>
          <path id="패스_484" data-name="패스 484" d="M435.973,66.795s0,3.714.64,5.005c.968,1.954,2.684,1.936,3.887-.251a11.929,11.929,0,0,0,1.041-5.4,2.754,2.754,0,0,1-2.352,1.632A4.93,4.93,0,0,1,435.973,66.795Z" transform="translate(-433.347 -66.15)" fill="#ef7752"/>
          <path id="패스_485" data-name="패스 485" d="M435.413,66.369c-.985.327-1.974,1.124-1.765,1.4.438.584,1.22-.309,1.22-.309s-.609,1.525,0,1.265c.515-.221.968-1.191.968-1.191s-.47,1.477,0,1.492c.391.012.768-.3.955-.908.163,1.328,1.256.508,1.51-.289C437.638,66.939,436.556,65.989,435.413,66.369Z" transform="translate(-432.46 -66.2)" fill="#ffc8b5"/>
          <path id="패스_486" data-name="패스 486" d="M475.114,103.342s-.867-.781-1.1,0-1.328,2.309-1.069,2.78c.393.712,1.343-.766,1.343-.766s-.568,1.239-.249,1.477c.468.351,1.348-1.523,1.348-1.523s-.41,1.523.254,1.523c.414,0,1.113-1.278,1.113-1.278s-.183,1.634.355,1.5c.936-.226,1.2-1.86.936-2.757S476.59,103.258,475.114,103.342Z" transform="translate(-447.267 -80.037)" fill="#ffc8b5"/>
          <path id="패스_487" data-name="패스 487" d="M444.224,112.753a34.874,34.874,0,0,1,.979,8.865,107.647,107.647,0,0,1-1.394,12.716,29.893,29.893,0,0,0,2.755-12.019A19.711,19.711,0,0,0,444.224,112.753Z" transform="translate(-436.3 -83.715)" fill="#ef7752"/>
          <path id="패스_488" data-name="패스 488" d="M451.774,112.93s1.369,7.934,3.236,14.646c1.323,4.758,2.2,10.316,2.2,10.316a33.24,33.24,0,0,0-.609-10.316C455.254,122.382,451.774,112.93,451.774,112.93Z" transform="translate(-439.302 -83.782)" fill="#ef7752"/>
          <path id="패스_489" data-name="패스 489" d="M456.968,112.753a62.216,62.216,0,0,0,5.75,10.791c2.481,3.593,5.463,7.251,5.6,7.42a97.335,97.335,0,0,0-4.778-8.648C460.988,118.011,456.968,112.753,456.968,112.753Z" transform="translate(-441.26 -83.715)" fill="#ef7752"/>
          <path id="패스_490" data-name="패스 490" d="M459.526,107.3s6.2,2.216,9.767,3.508,7.42,7.934,7.42,7.934-1.967-6.4-6.232-8.779S459.526,107.3,459.526,107.3Z" transform="translate(-442.224 -81.66)" fill="#ef7752"/>
          <path id="패스_491" data-name="패스 491" d="M435.973,85.427a8.585,8.585,0,0,0,.875,3.256,5.723,5.723,0,0,0,2.341,2.132,7.37,7.37,0,0,1-1.608-2.16C436.848,87.316,435.973,85.427,435.973,85.427Z" transform="translate(-433.347 -73.416)" fill="#ef7752"/>
          <path id="패스_492" data-name="패스 492" d="M440.474,89.249a6.09,6.09,0,0,0,1.185,2.624c.342.39,1.822.793.7-.11A8.32,8.32,0,0,1,440.474,89.249Z" transform="translate(-435.043 -74.856)" fill="#ef7752"/>
          <path id="패스_493" data-name="패스 493" d="M448.985,85.608a11.68,11.68,0,0,1,0,2.059c-.108.917-.219,1.5-.219,1.5a1.679,1.679,0,0,0,.674-1.5A4.436,4.436,0,0,0,448.985,85.608Z" transform="translate(-438.169 -73.484)" fill="#ef7752"/>
          <path id="패스_494" data-name="패스 494" d="M469.482,70.123c-.8.786-2.436,3.555-1.842,5.959a27.582,27.582,0,0,0,1.456,4.3s3.3-.115,5.216-1.88a34.731,34.731,0,0,0-2.1-5.862A4.487,4.487,0,0,0,469.482,70.123Z" transform="translate(-445.234 -67.647)" fill="#c6b8af"/>
        </g>
      </g>
      <g id="그룹_374" data-name="그룹 374" transform="translate(3.858 77.099)">
        <g id="그룹_369" data-name="그룹 369">
          <path id="패스_495" data-name="패스 495" d="M423.212,189.643l-9.65,5.571a.809.809,0,0,1-1.1-.3h0a.809.809,0,0,1,.3-1.1l9.65-5.571a.809.809,0,0,1,1.1.3h0A.809.809,0,0,1,423.212,189.643Z" transform="translate(-381.604 -163.026)" fill="#6c8774"/>
          <path id="패스_496" data-name="패스 496" d="M383.837,170.2l-9.65,5.572a.809.809,0,0,1-1.1-.3h0a.809.809,0,0,1,.3-1.1l9.65-5.571a.808.808,0,0,1,1.1.295h0A.809.809,0,0,1,383.837,170.2Z" transform="translate(-366.762 -155.696)" fill="#6c8774"/>
          <path id="패스_497" data-name="패스 497" d="M375.494,179.188l22.541,13.076a.809.809,0,0,0,1.1-.3h0a.808.808,0,0,0-.3-1.1L376.3,177.791a.81.81,0,0,0-1.1.3h0A.809.809,0,0,0,375.494,179.188Z" transform="translate(-367.559 -159.085)" fill="#6c8774"/>
          <path id="패스_498" data-name="패스 498" d="M392.116,168.423l22.54,13.077a.81.81,0,0,0,1.1-.3h0a.809.809,0,0,0-.295-1.1l-22.541-13.076a.809.809,0,0,0-1.1.3h0A.808.808,0,0,0,392.116,168.423Z" transform="translate(-373.824 -155.028)" fill="#6c8774"/>
          <path id="패스_499" data-name="패스 499" d="M413.575,201.577l-3.884-24.067a1.191,1.191,0,0,0-1.361-.983h0a1.191,1.191,0,0,0-.983,1.361l3.884,24.067a1.191,1.191,0,0,0,1.361.983h0A1.191,1.191,0,0,0,413.575,201.577Z" transform="translate(-379.711 -158.643)" fill="#3f3e3d"/>
          <path id="패스_500" data-name="패스 500" d="M367.936,177.286,380.68,156.5a1.191,1.191,0,0,0-.391-1.632h0a1.191,1.191,0,0,0-1.633.391l-12.744,20.782a1.191,1.191,0,0,0,.391,1.633h0A1.19,1.19,0,0,0,367.936,177.286Z" transform="translate(-364.033 -150.421)" fill="#3f3e3d"/>
          <path id="패스_501" data-name="패스 501" d="M431.456,191.18,424.2,167.9a1.191,1.191,0,0,0-1.487-.78h0a1.191,1.191,0,0,0-.781,1.487l7.251,23.275a1.19,1.19,0,0,0,1.487.78h0A1.19,1.19,0,0,0,431.456,191.18Z" transform="translate(-385.196 -155.085)" fill="#3f3e3d"/>
          <g id="그룹_368" data-name="그룹 368">
            <path id="패스_502" data-name="패스 502" d="M363,158.615l29.966,17.3,18.673-10.781-29.966-17.3Z" transform="translate(-363.002 -147.835)" fill="#a9b6ae"/>
            <path id="패스_503" data-name="패스 503" d="M363,165.137v1.893l29.966,17.3v-1.893Z" transform="translate(-363.002 -154.356)" fill="#869b8d"/>
            <path id="패스_504" data-name="패스 504" d="M429.768,175.6v1.893l-18.673,10.781v-1.893Z" transform="translate(-381.129 -158.3)" fill="#6c8774"/>
          </g>
        </g>
        <g id="그룹_370" data-name="그룹 370" transform="translate(5.401 3.826)">
          <path id="패스_505" data-name="패스 505" d="M384.166,154.04c1.042.129,1.831-.168,3.97-.027a36.272,36.272,0,0,1,6.433,1.033c2.424.583,4.353,1.869,6.059,2.633a3.648,3.648,0,0,1,2.014,2.5l-5.583-.636s-.125,3.213.009,6.662.109,4.558.109,4.558-8.729.45-11-.234a35.815,35.815,0,0,0-6.159-.943,73.061,73.061,0,0,0,2.565-7.19c.6-2.418,1.181-4.136,1.181-4.136a14.914,14.914,0,0,1-3.985.536c-1.014,1.7-5.3,3.221-5.3,3.221s-2.631-.171-2.81-2.207c.779-1.173,4.323-3.464,5.19-3.937C378.784,154.825,382.533,153.838,384.166,154.04Z" transform="translate(-371.671 -153.974)" fill="#fff"/>
          <path id="패스_506" data-name="패스 506" d="M385.009,178.351c-.738,1.514,2.409,2.734,5.8,2.67s10.556,0,10.675-1.7c.115-1.654-1.262-1.418-3.564-1.522s-4.822.635-6.644.345S386.107,176.1,385.009,178.351Z" transform="translate(-376.658 -162.735)" fill="#ffe8de"/>
          <path id="패스_507" data-name="패스 507" d="M397.278,153.994s-.155,2.016,3.276,2.459c3.074.4,3.445-1.486,3.445-1.486A30.322,30.322,0,0,0,397.278,153.994Z" transform="translate(-381.322 -153.981)" fill="#ffe8de"/>
          <path id="패스_508" data-name="패스 508" d="M402.047,160.345c-.863-.805-6.284-1.794-7.329.393-1.277,2.674,3.5,3.242,5.017,3.117C401.327,163.724,403.834,162.011,402.047,160.345Z" transform="translate(-380.277 -156.022)" fill="#ffe8de"/>
        </g>
        <g id="그룹_371" data-name="그룹 371" transform="translate(15.055 8.745)">
          <path id="패스_509" data-name="패스 509" d="M390.447,197.54l.047,2.523s1.256,1.286,2.348.964a2.1,2.1,0,0,0,1.391-1.263l-.148-3.378Z" transform="translate(-388.402 -174.879)" fill="#a02b2b"/>
          <path id="패스_510" data-name="패스 510" d="M399.885,203.3l.047,2.523s1.256,1.286,2.348.963a2.105,2.105,0,0,0,1.391-1.262l-.148-3.379Z" transform="translate(-391.959 -177.048)" fill="#af3838"/>
          <path id="패스_511" data-name="패스 511" d="M402.22,162.585a22.254,22.254,0,0,0-6.669,3.014c-3.063,2.146-4.557,4.344-6.475,7.289s-2.046,5.95-1.838,9.483,2.829,5.5,4.1,3.669c2.307.544,3.738-2.419,3.738-5.172,0-3.624.717-5.977,4.743-8.209s8.172-6.948,8.172-6.948Z" transform="translate(-387.164 -162.139)" fill="#af3838"/>
          <path id="패스_512" data-name="패스 512" d="M409.6,164.7s-5.268,1.935-6.079,4.726c-2.235,1.628-4.662,7.76-4.872,11.068s-1.444,6.407.213,9.129c.713,1.172,2.209,1.829,3.021.8,1.513.191,2.5.1,2.867-4.241.648-7.625,3.988-11.136,3.988-11.136s7.638-3.244,7.645-5.615C414.593,168.265,411.549,165.832,409.6,164.7Z" transform="translate(-391.253 -162.936)" fill="#c64e4e"/>
          <path id="패스_513" data-name="패스 513" d="M420.63,168.508a6.7,6.7,0,0,0-2.113,2.426,3.635,3.635,0,0,0,.385,2.889l.837-.714a1.726,1.726,0,0,1-.39-1.943,7.113,7.113,0,0,1,1.952-2.141Z" transform="translate(-398.916 -164.371)" fill="#af3838"/>
          <path id="패스_514" data-name="패스 514" d="M411.328,162.315a62.985,62.985,0,0,1,6.722,4.588c1.642,1.528,2.829,2.639,2.829,2.639a1.34,1.34,0,0,0,.525-1.184,29.978,29.978,0,0,0-8.95-6.489Z" transform="translate(-396.272 -161.869)" fill="#3f3e3d"/>
        </g>
        <g id="그룹_373" data-name="그룹 373" transform="translate(3.188 3.708)">
          <path id="패스_515" data-name="패스 515" d="M380.268,161.3c0,1.8-2.72,3.264-6.074,3.264s-6.074-1.461-6.074-3.264,2.72-3.264,6.074-3.264S380.268,159.494,380.268,161.3Z" transform="translate(-368.119 -155.387)" fill="#ce8655"/>
          <g id="그룹_372" data-name="그룹 372" transform="translate(1.623)">
            <ellipse id="타원_15" data-name="타원 15" cx="4.541" cy="2.44" rx="4.541" ry="2.44" transform="translate(0 3.002)" fill="#dd9864"/>
            <path id="패스_516" data-name="패스 516" d="M379.806,159.151v-.823a4.555,4.555,0,0,0-4.541-4.542h0a4.555,4.555,0,0,0-4.542,4.542v.9Z" transform="translate(-370.723 -153.786)" fill="#dd9864"/>
          </g>
          <path id="패스_517" data-name="패스 517" d="M375.265,163.462c-2.5,0-4.527-1.085-4.54-2.427,0,.008,0,.016,0,.025v.9c0,1.348,2.033,2.44,4.542,2.44s4.541-1.092,4.541-2.44c0-.026-.006-.052-.008-.078h.008v-.823c0-.009,0-.017,0-.025C379.791,162.376,377.764,163.462,375.265,163.462Z" transform="translate(-369.1 -156.518)" fill="#fac582"/>
          <path id="패스_518" data-name="패스 518" d="M379.465,165.274c.317-.124.246-.424.106-1.006-.2-.829-.994-.206-1.441.217,0,0-.006.017-.013.045-.457-.416-1.172-.925-1.36-.144-.181.753-.252,1.037.493,1.074l-.454.71h1.153l.25-1.057.546,1.057,1.153-.461Z" transform="translate(-371.33 -157.583)" fill="#efa65e"/>
        </g>
      </g>
    </g>
  </g>
</svg>
