<svg xmlns="http://www.w3.org/2000/svg" width="31.583" height="23.352" viewBox="0 0 31.583 23.352">
  <g id="장바구니" transform="translate(1210 -1336.033)">
    <g id="그룹_12" data-name="그룹 12" transform="translate(-1210 1338.664)">
      <path id="패스_5" data-name="패스 5" d="M-1188.452,1355.439h-14.3l-1.518-15.18H-1210v-.759h6.416l.607,6.072h16.993Zm-13.615-.759h13.021l2.087-8.349H-1202.9Z" transform="translate(1210 -1339.5)"/>
    </g>
    <g id="그룹_13" data-name="그룹 13" transform="translate(-1190.722 1356.652)">
      <circle id="타원_2" data-name="타원 2" cx="1.366" cy="1.366" r="1.366" transform="translate(0)"/>
    </g>
    <g id="그룹_14" data-name="그룹 14" transform="translate(-1201.651 1356.652)">
      <circle id="타원_3" data-name="타원 3" cx="1.366" cy="1.366" r="1.366" transform="translate(0)"/>
    </g>
    <g id="그룹_15" data-name="그룹 15" transform="translate(-1192.079 1336.033)">
      <circle id="타원_4" data-name="타원 4" cx="6.831" cy="6.831" r="6.831"/>
    </g>
    <g id="그룹_16" data-name="그룹 16" transform="translate(-1187.47 1339.284)">
      <path id="패스_6" data-name="패스 6" d="M-1180.047,1341.779a2.456,2.456,0,0,1,.756-1.079,1.77,1.77,0,0,1,1.125-.382,2,2,0,0,1,1.69.8,3.648,3.648,0,0,1,.606,2.24,4.481,4.481,0,0,1-.278,1.639,2.491,2.491,0,0,1-.779,1.1,1.851,1.851,0,0,1-1.166.387,1.886,1.886,0,0,1-1.17-.383,2.417,2.417,0,0,1-.779-1.088,4.511,4.511,0,0,1-.273-1.635A4.425,4.425,0,0,1-1180.047,1341.779Zm.492,3.019a2.207,2.207,0,0,0,.6.947,1.286,1.286,0,0,0,.875.337,1.259,1.259,0,0,0,.87-.341,2.224,2.224,0,0,0,.587-.956,4.351,4.351,0,0,0,.209-1.407,4.317,4.317,0,0,0-.2-1.394,2.146,2.146,0,0,0-.578-.934,1.262,1.262,0,0,0-.865-.332,1.313,1.313,0,0,0-.888.337,2.182,2.182,0,0,0-.6.947,4.206,4.206,0,0,0-.214,1.394A4.229,4.229,0,0,0-1179.556,1344.8Z" transform="translate(1180.316 -1340.317)" fill="#fff"/>
    </g>
  </g>
</svg>
