<svg xmlns="http://www.w3.org/2000/svg" width="44.924" height="19.877" viewBox="0 0 44.924 19.877">
  <defs>
    <style>
      .cls-1 {
        fill: #efd6c4;
      }

      .cls-2 {
        fill: #fff;
      }
    </style>
  </defs>
  <g id="쿠폰" transform="translate(0)">
    <g id="그룹_20" data-name="그룹 20" transform="translate(0 0)">
      <path id="패스_11" data-name="패스 11" class="cls-1" d="M-1313.039,1314.283h-18.329l-1.125-4.9-.62,4.9h-18.924a2.964,2.964,0,0,0-2.963,2.963v9.048a2.964,2.964,0,0,0,2.963,2.963h39a2.964,2.964,0,0,0,2.963-2.963v-9.048A2.964,2.964,0,0,0-1313.039,1314.283Z" transform="translate(1355 -1309.381)"/>
    </g>
    <g id="그룹_21" data-name="그룹 21" transform="translate(6.415 8.129)">
      <path id="패스_12" data-name="패스 12" class="cls-2" d="M-1348.316,1314.5v2.637h2.535v.676h-2.535v2.66h-.719v-2.66h-2.538v-.676h2.538V1314.5Z" transform="translate(1351.573 -1313.05)"/>
      <path id="패스_13" data-name="패스 13" class="cls-2" d="M-1347.966,1321.144v-.608l.773-.751c1.864-1.773,2.706-2.716,2.716-3.817a1.3,1.3,0,0,0-1.447-1.426,2.5,2.5,0,0,0-1.55.618l-.314-.7a3.211,3.211,0,0,1,2.067-.739,2.053,2.053,0,0,1,2.233,2.121c0,1.346-.977,2.435-2.514,3.918l-.584.537v.024h3.278v.82Z" transform="translate(1354.717 -1313.724)"/>
      <path id="패스_14" data-name="패스 14" class="cls-2" d="M-1339.992,1317.415c0,2.48-.921,3.852-2.536,3.852-1.426,0-2.392-1.337-2.415-3.749,0-2.448,1.055-3.794,2.538-3.794C-1340.868,1313.724-1339.992,1315.092-1339.992,1317.415Zm-3.963.114c0,1.9.582,2.974,1.481,2.974,1.011,0,1.494-1.179,1.494-3.042,0-1.8-.46-2.974-1.483-2.974C-1343.326,1314.487-1343.955,1315.541-1343.955,1317.529Z" transform="translate(1357.353 -1313.724)"/>
      <path id="패스_15" data-name="패스 15" class="cls-2" d="M-1336.914,1317.415c0,2.48-.921,3.852-2.536,3.852-1.427,0-2.393-1.337-2.415-3.749,0-2.448,1.056-3.794,2.538-3.794C-1337.79,1313.724-1336.914,1315.092-1336.914,1317.415Zm-3.963.114c0,1.9.584,2.974,1.483,2.974,1.009,0,1.492-1.179,1.492-3.042,0-1.8-.46-2.974-1.482-2.974C-1340.248,1314.487-1340.877,1315.541-1340.877,1317.529Z" transform="translate(1360.037 -1313.724)"/>
      <path id="패스_16" data-name="패스 16" class="cls-2" d="M-1333.838,1317.415c0,2.48-.919,3.852-2.537,3.852-1.425,0-2.39-1.337-2.413-3.749,0-2.448,1.056-3.794,2.536-3.794C-1334.712,1313.724-1333.838,1315.092-1333.838,1317.415Zm-3.961.114c0,1.9.584,2.974,1.481,2.974,1.011,0,1.494-1.179,1.494-3.042,0-1.8-.46-2.974-1.483-2.974C-1337.17,1314.487-1337.8,1315.541-1337.8,1317.529Z" transform="translate(1362.72 -1313.724)"/>
      <path id="패스_17" data-name="패스 17" class="cls-2" d="M-1335.621,1315.07a7.536,7.536,0,0,1,1.25-.1,2.065,2.065,0,0,1,1.413.42,1.356,1.356,0,0,1,.442,1.056,1.481,1.481,0,0,1-.39,1.076,2.085,2.085,0,0,1-1.541.554,2.23,2.23,0,0,1-.524-.045v2.022h-.651Zm.651,2.431a2.17,2.17,0,0,0,.539.054c.786,0,1.263-.384,1.263-1.08,0-.664-.472-.986-1.188-.986a2.882,2.882,0,0,0-.614.051Z" transform="translate(1365.48 -1312.635)"/>
    </g>
  </g>
</svg>
