<svg xmlns="http://www.w3.org/2000/svg" width="630.797" height="510.716" viewBox="0 0 630.797 510.716">
  <g id="그룹_255" data-name="그룹 255" transform="translate(-332.579 -3086.324)">
    <g id="그룹_174" data-name="그룹 174" transform="matrix(0.985, 0.174, -0.174, 0.985, -399.931, 1515.936)">
      <g id="그룹_169" data-name="그룹 169" transform="translate(1153.739 1392.881)">
        <path id="패스_53" data-name="패스 53" d="M1610.177,1392.885h-57.889c.012.265.04.525.04.792a17.8,17.8,0,0,1-35.592,0c0-.267.028-.528.04-.792H1171.383a17.644,17.644,0,0,1-17.644,17.644v203.177a17.644,17.644,0,0,1,17.644,17.644h345.429c-.041-.493-.075-.989-.075-1.493a17.8,17.8,0,1,1,35.592,0c0,.5-.035,1-.075,1.493h57.924a17.644,17.644,0,0,1,17.644-17.644V1410.529A17.644,17.644,0,0,1,1610.177,1392.885Z" transform="translate(-1153.739 -1392.884)" fill="#fff"/>
        <path id="패스_54" data-name="패스 54" d="M1517.736,1393.673c0-.267.028-.528.04-.792H1172.383a17.644,17.644,0,0,1-17.644,17.644V1613.7a17.644,17.644,0,0,1,17.644,17.644h345.429c-.041-.494-.075-.99-.075-1.493a17.8,17.8,0,0,1,17.8-17.8V1411.469A17.8,17.8,0,0,1,1517.736,1393.673Z" transform="translate(-1154.383 -1392.881)" fill="#ecf2db"/>
        <path id="패스_55" data-name="패스 55" d="M1611.177,1392.881h-57.889c.012.264.04.525.04.792a17.8,17.8,0,0,1-35.592,0c0-.267.028-.528.04-.792H1172.383a17.644,17.644,0,0,1-17.644,17.644V1613.7a17.644,17.644,0,0,1,17.644,17.644h345.429c-.041-.494-.075-.99-.075-1.493a17.8,17.8,0,1,1,35.592,0c0,.5-.035,1-.076,1.493h57.925a17.644,17.644,0,0,1,17.644-17.644V1410.525A17.644,17.644,0,0,1,1611.177,1392.881Z" transform="translate(-1154.383 -1392.881)" fill="none" stroke="#e45c71" stroke-linecap="round" stroke-linejoin="round" stroke-width="3"/>
        <line id="선_4" data-name="선 4" y2="177.806" transform="translate(381.149 29.546)" fill="none" stroke="#040506" stroke-linecap="round" stroke-linejoin="round" stroke-width="7.5" stroke-dasharray="25"/>
        <g id="그룹_168" data-name="그룹 168" transform="translate(403.5 34.565)">
          <rect id="사각형_189" data-name="사각형 189" width="52.976" height="4.59" fill="#040506"/>
          <rect id="사각형_190" data-name="사각형 190" width="52.976" height="1.148" transform="translate(0 6.325)" fill="#040506"/>
          <rect id="사각형_191" data-name="사각형 191" width="52.976" height="3.333" transform="translate(0 8.977)" fill="#040506"/>
          <rect id="사각형_192" data-name="사각형 192" width="52.976" height="0.833" transform="translate(0 13.057)" fill="#040506"/>
          <rect id="사각형_193" data-name="사각형 193" width="52.976" height="0.833" transform="translate(0 14.893)" fill="#040506"/>
          <rect id="사각형_194" data-name="사각형 194" width="52.976" height="0.833" transform="translate(0 16.73)" fill="#040506"/>
          <rect id="사각형_195" data-name="사각형 195" width="52.976" height="0.833" transform="translate(0 18.566)" fill="#040506"/>
          <rect id="사각형_196" data-name="사각형 196" width="52.976" height="0.833" transform="translate(0 20.402)" fill="#040506"/>
          <rect id="사각형_197" data-name="사각형 197" width="52.976" height="0.833" transform="translate(0 22.238)" fill="#040506"/>
          <rect id="사각형_198" data-name="사각형 198" width="52.976" height="0.833" transform="translate(0 24.074)" fill="#040506"/>
          <rect id="사각형_199" data-name="사각형 199" width="52.976" height="0.833" transform="translate(0 30.603)" fill="#040506"/>
          <rect id="사각형_200" data-name="사각형 200" width="52.976" height="5.61" transform="translate(0 32.355)" fill="#040506"/>
          <rect id="사각형_201" data-name="사각형 201" width="52.976" height="5.61" transform="translate(0 52.553)" fill="#040506"/>
          <rect id="사각형_202" data-name="사각형 202" width="52.976" height="3.468" transform="translate(0 39.699)" fill="#040506"/>
          <rect id="사각형_203" data-name="사각형 203" width="52.976" height="0.833" transform="translate(0 44.068)" fill="#040506"/>
          <rect id="사각형_204" data-name="사각형 204" width="52.976" height="0.833" transform="translate(0 46.313)" fill="#040506"/>
          <rect id="사각형_205" data-name="사각형 205" width="52.976" height="0.833" transform="translate(0 48.557)" fill="#040506"/>
          <rect id="사각형_206" data-name="사각형 206" width="52.976" height="0.833" transform="translate(0 50.801)" fill="#040506"/>
          <rect id="사각형_207" data-name="사각형 207" width="52.976" height="0.833" transform="translate(0 25.911)" fill="#040506"/>
          <rect id="사각형_208" data-name="사각형 208" width="52.976" height="3.775" transform="translate(0 25.826)" fill="#040506"/>
          <rect id="사각형_209" data-name="사각형 209" width="52.976" height="4.59" transform="translate(0 57.84)" fill="#040506"/>
          <rect id="사각형_210" data-name="사각형 210" width="52.976" height="1.148" transform="translate(0 64.164)" fill="#040506"/>
          <rect id="사각형_211" data-name="사각형 211" width="52.976" height="3.333" transform="translate(0 66.817)" fill="#040506"/>
          <rect id="사각형_212" data-name="사각형 212" width="52.976" height="0.833" transform="translate(0 70.897)" fill="#040506"/>
          <rect id="사각형_213" data-name="사각형 213" width="52.976" height="0.833" transform="translate(0 72.733)" fill="#040506"/>
          <rect id="사각형_214" data-name="사각형 214" width="52.976" height="0.833" transform="translate(0 74.569)" fill="#040506"/>
          <rect id="사각형_215" data-name="사각형 215" width="52.976" height="0.833" transform="translate(0 76.405)" fill="#040506"/>
          <rect id="사각형_216" data-name="사각형 216" width="52.976" height="0.833" transform="translate(0 78.242)" fill="#040506"/>
          <rect id="사각형_217" data-name="사각형 217" width="52.976" height="0.833" transform="translate(0 80.078)" fill="#040506"/>
          <rect id="사각형_218" data-name="사각형 218" width="52.976" height="0.833" transform="translate(0 81.914)" fill="#040506"/>
          <rect id="사각형_219" data-name="사각형 219" width="52.976" height="0.833" transform="translate(0 88.443)" fill="#040506"/>
          <rect id="사각형_220" data-name="사각형 220" width="52.976" height="5.61" transform="translate(0 90.194)" fill="#040506"/>
          <rect id="사각형_221" data-name="사각형 221" width="52.976" height="3.775" transform="translate(0 83.665)" fill="#040506"/>
          <rect id="사각형_222" data-name="사각형 222" width="52.976" height="4.59" transform="translate(0 92.727)" fill="#040506"/>
          <rect id="사각형_223" data-name="사각형 223" width="52.976" height="1.148" transform="translate(0 99.052)" fill="#040506"/>
          <rect id="사각형_224" data-name="사각형 224" width="52.976" height="3.333" transform="translate(0 101.704)" fill="#040506"/>
          <rect id="사각형_225" data-name="사각형 225" width="52.976" height="0.833" transform="translate(0 105.784)" fill="#040506"/>
          <rect id="사각형_226" data-name="사각형 226" width="52.976" height="0.833" transform="translate(0 107.621)" fill="#040506"/>
          <rect id="사각형_227" data-name="사각형 227" width="52.976" height="0.833" transform="translate(0 109.457)" fill="#040506"/>
          <rect id="사각형_228" data-name="사각형 228" width="52.976" height="0.833" transform="translate(0 111.293)" fill="#040506"/>
          <rect id="사각형_229" data-name="사각형 229" width="52.976" height="0.833" transform="translate(0 113.129)" fill="#040506"/>
          <rect id="사각형_230" data-name="사각형 230" width="52.976" height="0.833" transform="translate(0 114.965)" fill="#040506"/>
          <rect id="사각형_231" data-name="사각형 231" width="52.976" height="0.833" transform="translate(0 116.801)" fill="#040506"/>
          <rect id="사각형_232" data-name="사각형 232" width="52.976" height="0.833" transform="translate(0 123.33)" fill="#040506"/>
          <rect id="사각형_233" data-name="사각형 233" width="52.976" height="5.61" transform="translate(0 125.082)" fill="#040506"/>
          <rect id="사각형_234" data-name="사각형 234" width="52.976" height="3.775" transform="translate(0 118.553)" fill="#040506"/>
          <rect id="사각형_235" data-name="사각형 235" width="52.976" height="4.59" transform="translate(0 125.778)" fill="#040506"/>
          <rect id="사각형_236" data-name="사각형 236" width="52.976" height="1.148" transform="translate(0 132.103)" fill="#040506"/>
          <rect id="사각형_237" data-name="사각형 237" width="52.976" height="3.333" transform="translate(0 134.755)" fill="#040506"/>
          <rect id="사각형_238" data-name="사각형 238" width="52.976" height="0.833" transform="translate(0 138.836)" fill="#040506"/>
          <rect id="사각형_239" data-name="사각형 239" width="52.976" height="0.833" transform="translate(0 140.672)" fill="#040506"/>
          <rect id="사각형_240" data-name="사각형 240" width="52.976" height="0.833" transform="translate(0 142.508)" fill="#040506"/>
          <rect id="사각형_241" data-name="사각형 241" width="52.976" height="0.833" transform="translate(0 144.344)" fill="#040506"/>
          <rect id="사각형_242" data-name="사각형 242" width="52.976" height="0.833" transform="translate(0 146.18)" fill="#040506"/>
          <rect id="사각형_243" data-name="사각형 243" width="52.976" height="0.833" transform="translate(0 148.016)" fill="#040506"/>
          <rect id="사각형_244" data-name="사각형 244" width="52.976" height="0.833" transform="translate(0 149.853)" fill="#040506"/>
          <rect id="사각형_245" data-name="사각형 245" width="52.976" height="0.833" transform="translate(0 156.381)" fill="#040506"/>
          <rect id="사각형_246" data-name="사각형 246" width="52.976" height="5.61" transform="translate(0 158.133)" fill="#040506"/>
          <rect id="사각형_247" data-name="사각형 247" width="52.976" height="3.775" transform="translate(0 151.604)" fill="#040506"/>
        </g>
      </g>
      <g id="그룹_170" data-name="그룹 170" transform="translate(1252.64 1424.961)">
        <path id="패스_56" data-name="패스 56" d="M1453.584,1488.447h3.224v.505q-.433,0-1.215,1.191a28.412,28.412,0,0,0-1.793,3.333q-1.01,2.142-1.781,3.874t-1.732,4.054q-.963,2.322-1.107,2.659h-.867q-2.479-5.8-4.259-9.576-.746,1.612-1.588,3.549t-1.6,3.777q-.758,1.841-.95,2.25h-.842q-6.5-15.134-7.459-15.135v-.505h6.617v.505q-.6,0,.144,2.466a51.627,51.627,0,0,0,1.781,4.945l1.059,2.479q1.3-2.863,2.286-5.486-2.142-4.4-2.647-4.4v-.505h6.641v.505q-.6,0,.132,2.466a45.782,45.782,0,0,0,1.793,4.945l1.035,2.479q.072-.169.192-.445t.481-1.095q.361-.817.686-1.6t.722-1.792q.4-1.011.674-1.841t.469-1.552a3.837,3.837,0,0,0,.169-1.131q-.025-.409-.265-.409Z" transform="translate(-1431.616 -1486.498)" fill="#040506"/>
        <path id="패스_57" data-name="패스 57" d="M1510.273,1506.053h.553a1.505,1.505,0,0,1-.048.325q-.049.2-.265.806a9.289,9.289,0,0,1-.505,1.155,6.971,6.971,0,0,1-.842,1.215,6.645,6.645,0,0,1-1.227,1.143,6.287,6.287,0,0,1-1.708.818,7.214,7.214,0,0,1-2.238.337,5.07,5.07,0,0,1-3.321-1.167,5.981,5.981,0,0,1-1.949-2.755,5.8,5.8,0,0,1,.842-5.354,5.558,5.558,0,0,1,2.984-2.082,6.3,6.3,0,0,1,1.781-.24,5.019,5.019,0,0,1,4.475,2.142,2.605,2.605,0,0,1,.422,1.191,2.638,2.638,0,0,1-.121,1.143,2.4,2.4,0,0,1-.493.842,3.525,3.525,0,0,1-1.4.915,5.04,5.04,0,0,1-1.768.313,14.649,14.649,0,0,1-1.66-.084,12.721,12.721,0,0,1-1.456-.253,3.29,3.29,0,0,0,1.359,2.033,4.269,4.269,0,0,0,2.322.614,4.218,4.218,0,0,0,1.624-.313,3.941,3.941,0,0,0,1.227-.758,6.215,6.215,0,0,0,.794-.9,5.106,5.106,0,0,0,.469-.77Zm-8.109-1.179a6.933,6.933,0,0,0,.072.987q2.767-.216,3.633-1.925a2.044,2.044,0,0,0-.024-2.118,1.368,1.368,0,0,0-1.227-.7,2.054,2.054,0,0,0-1.745,1.107A4.8,4.8,0,0,0,1502.165,1504.874Z" transform="translate(-1474.637 -1494.118)" fill="#040506"/>
        <path id="패스_58" data-name="패스 58" d="M1540.918,1493.506q-.1,6.5.529,6.5v.457H1536.2V1500q.288,0,.433-2.635t.144-6.268q0-2.165-.168-3.85a4.6,4.6,0,0,0-.385-1.877v-.505a12.1,12.1,0,0,0,2.61-.626,8.921,8.921,0,0,0,2.081-1.227h.529A70.709,70.709,0,0,0,1540.918,1493.506Z" transform="translate(-1498.978 -1483.015)" fill="#040506"/>
        <path id="패스_59" data-name="패스 59" d="M1566.52,1506.053h.553a1.518,1.518,0,0,1-.048.325q-.049.2-.265.806a9.306,9.306,0,0,1-.505,1.155,7,7,0,0,1-.842,1.215,6.621,6.621,0,0,1-1.227,1.143,6.282,6.282,0,0,1-1.708.818,7.215,7.215,0,0,1-2.238.337,5.068,5.068,0,0,1-3.32-1.167,5.985,5.985,0,0,1-1.949-2.755,5.758,5.758,0,0,1-.313-1.877,5.684,5.684,0,0,1,1.155-3.477,5.559,5.559,0,0,1,2.984-2.082,6.306,6.306,0,0,1,1.781-.24,6.686,6.686,0,0,1,1.937.265,4.054,4.054,0,0,1,1.4.686,7.318,7.318,0,0,1,.758.686,3.266,3.266,0,0,1,.385.505,4.8,4.8,0,0,1,.264.578,2.486,2.486,0,0,1,.12.746,2.037,2.037,0,0,1-.072.7,3.312,3.312,0,0,1-.193.409,1.762,1.762,0,0,1-.505.529,1.7,1.7,0,0,1-1.058.289,1.736,1.736,0,0,1-1.227-.481q-.12-.121-.24-.265a2.008,2.008,0,0,1-.337-1.083,1.251,1.251,0,0,1,.024-.433l.072-.313q.048-.24.048-.265a1.966,1.966,0,0,0-.157-1.179.941.941,0,0,0-.926-.505,2.171,2.171,0,0,0-1.708,1.095,5.067,5.067,0,0,0,.325,5.763,3.652,3.652,0,0,0,2.779,1.131,4.216,4.216,0,0,0,1.624-.313,3.938,3.938,0,0,0,1.227-.758,6.219,6.219,0,0,0,.794-.9,5.066,5.066,0,0,0,.469-.77Z" transform="translate(-1510.865 -1494.118)" fill="#040506"/>
        <path id="패스_60" data-name="패스 60" d="M1593.674,1501.25a6.445,6.445,0,0,1,8.662,0,6.483,6.483,0,0,1,0,8.446,6.446,6.446,0,0,1-8.662,0,6.483,6.483,0,0,1,0-8.446Zm3.008,7.544q.553,1.372,1.323,1.371t1.323-1.371a10.242,10.242,0,0,0,0-6.641q-.554-1.371-1.323-1.372t-1.323,1.372a10.238,10.238,0,0,0,0,6.641Z" transform="translate(-1534.987 -1493.683)" fill="#040506"/>
        <path id="패스_61" data-name="패스 61" d="M1648.171,1503.839a39.522,39.522,0,0,0,.313,4.656q.312,2.611.867,2.611v.457h-1.589a4,4,0,0,1-2.274-.577,3.111,3.111,0,0,1-1.119-2.19,16.5,16.5,0,0,1-.229-1.817q-.084-1.07-.12-2.057t-.036-1.179a2.445,2.445,0,0,0-.373-1.228.89.89,0,0,0-.734-.409,2.286,2.286,0,0,0-.854.168,5.42,5.42,0,0,0-.878.457,7.405,7.405,0,0,1,.12,1.4v.361q0,6.618.77,6.617v.457h-5.294v-.457q.384,0,.517-1.516a25.8,25.8,0,0,0,.072-3.164,23.7,23.7,0,0,0-.181-2.443,2.823,2.823,0,0,0-.505-1.371.927.927,0,0,0-.83-.385,2.485,2.485,0,0,0-.89.264,4.79,4.79,0,0,0-.878.6q-.121,2.022-.12,3.8t.12,3q.12,1.215.289,1.215v.457h-5.246v-.457q.264,0,.421-1.528a28.05,28.05,0,0,0,.157-2.827,20.2,20.2,0,0,0-.169-2.707,3.11,3.11,0,0,0-.385-1.432v-.505a12.116,12.116,0,0,0,2.611-.626,8.934,8.934,0,0,0,2.081-1.227h.529q-.121.866-.216,1.9a8.081,8.081,0,0,1,1.672-1.384,3.805,3.805,0,0,1,2.009-.517,3.011,3.011,0,0,1,3.1,1.781,7.272,7.272,0,0,1,1.792-1.263,4.09,4.09,0,0,1,1.793-.517,4.755,4.755,0,0,1,1.781.3,2.65,2.65,0,0,1,1.143.818,3.44,3.44,0,0,1,.577,1.131A4.706,4.706,0,0,1,1648.171,1503.839Z" transform="translate(-1558.806 -1494.118)" fill="#040506"/>
        <path id="패스_62" data-name="패스 62" d="M1716.241,1493.346h-2.382q-.072,2.455,0,4.837t.217,3.778q.144,1.4.289,1.4v.457h-5.245v-.457q.289,0,.445-2.635t.156-6.268q0-.554-.024-1.107h-1.781v-.842h1.757a4.345,4.345,0,0,0-.169-1.191,1.474,1.474,0,0,0-.361-.734v-.53a10.747,10.747,0,0,0,2.623-.613,10.475,10.475,0,0,0,2.093-1.215h.505a41.594,41.594,0,0,0-.481,4.283h2.358Z" transform="translate(-1609.576 -1486.368)" fill="#040506"/>
        <path id="패스_63" data-name="패스 63" d="M1733.075,1501.25a6.445,6.445,0,0,1,8.662,0,6.483,6.483,0,0,1,0,8.446,6.446,6.446,0,0,1-8.662,0,6.483,6.483,0,0,1,0-8.446Zm3.007,7.544q.554,1.372,1.323,1.371t1.323-1.371a10.238,10.238,0,0,0,0-6.641q-.554-1.371-1.323-1.372t-1.323,1.372a10.242,10.242,0,0,0,0,6.641Z" transform="translate(-1624.773 -1493.683)" fill="#040506"/>
        <path id="패스_64" data-name="패스 64" d="M1803.242,1500.321h2.791v.409q-.289,0-.685.445a7.462,7.462,0,0,0-.866,1.275q-.469.829-.914,1.708t-.987,2.082q-.541,1.2-.9,2.021t-.818,1.913q-.457,1.1-.6,1.408h-.722q-1.371-3.224-3.176-6.786-.53,1.107-1.095,2.382t-1.191,2.755q-.626,1.48-.7,1.648h-.722q-1.275-2.983-3.26-6.918t-2.514-3.934v-.409h5.678v.409q-1.011,0,1.54,5.559l.361.793q.794-1.611,1.42-3.2-1.66-3.152-2.093-3.152v-.409h5.679v.409q-1.011,0,1.54,5.559l.361.793c.032-.063.076-.156.132-.276s.164-.357.325-.71.313-.7.457-1.035.3-.718.481-1.143.321-.818.433-1.179.2-.7.277-1.011a1.737,1.737,0,0,0,.048-.733q-.06-.265-.276-.265Z" transform="translate(-1660.435 -1494.161)" fill="#040506"/>
        <path id="패스_65" data-name="패스 65" d="M1841.716,1501.25a6.445,6.445,0,0,1,8.662,0,6.483,6.483,0,0,1,0,8.446,6.446,6.446,0,0,1-8.662,0,6.482,6.482,0,0,1,0-8.446Zm3.008,7.544q.553,1.372,1.324,1.371t1.323-1.371a10.242,10.242,0,0,0,0-6.641q-.554-1.371-1.323-1.372t-1.324,1.372a10.236,10.236,0,0,0,0,6.641Z" transform="translate(-1694.747 -1493.683)" fill="#040506"/>
        <path id="패스_66" data-name="패스 66" d="M1878.425,1501.25a6.445,6.445,0,0,1,8.662,0,6.484,6.484,0,0,1,0,8.446,6.446,6.446,0,0,1-8.662,0,6.482,6.482,0,0,1,0-8.446Zm3.007,7.544q.553,1.372,1.324,1.371t1.323-1.371a10.242,10.242,0,0,0,0-6.641q-.554-1.371-1.323-1.372t-1.324,1.372a10.236,10.236,0,0,0,0,6.641Z" transform="translate(-1718.391 -1493.683)" fill="#040506"/>
        <path id="패스_67" data-name="패스 67" d="M1924.412,1504.215q.048.458.12,1.227t.132,1.348q.06.577.144,1.287t.193,1.215a9.5,9.5,0,0,0,.253.951,2.01,2.01,0,0,0,.337.674.557.557,0,0,0,.433.229v.457H1922.1a1.351,1.351,0,0,1-1.3-.987,5.333,5.333,0,0,1-1.576.915,4.418,4.418,0,0,1-1.961.313,3.934,3.934,0,0,1-2.454-.9,2.484,2.484,0,0,1-.842-1.889,3.092,3.092,0,0,1,.253-1.252,3.389,3.389,0,0,1,.625-.974,3.891,3.891,0,0,1,1-.734,9.756,9.756,0,0,1,1.131-.529,9.955,9.955,0,0,1,1.3-.373q.794-.18,1.227-.253t1.155-.168v-.313a6.168,6.168,0,0,0-.385-2.418,1.537,1.537,0,0,0-2.538-.361,1.439,1.439,0,0,0-.324,1.167,2.421,2.421,0,0,0,.048.241l.048.313a1.8,1.8,0,0,1,.048.433,1.858,1.858,0,0,1-.337,1.035,2.362,2.362,0,0,1-.241.289,1.768,1.768,0,0,1-1.2.457,1.661,1.661,0,0,1-1.034-.289,1.516,1.516,0,0,1-.505-.505,1.961,1.961,0,0,1-.169-.409,1.561,1.561,0,0,1-.1-.674,2.842,2.842,0,0,1,.145-.722,2.379,2.379,0,0,1,.264-.577,3.847,3.847,0,0,1,1.011-1.059,4.063,4.063,0,0,1,1.371-.674,9.184,9.184,0,0,1,1.468-.313.67.67,0,0,0,.144-.024c.256-.032.481-.056.673-.072s.5-.02.927-.012a6.179,6.179,0,0,1,1.107.108,5.67,5.67,0,0,1,1.083.361,3.292,3.292,0,0,1,1.035.686,4.226,4.226,0,0,1,.77,1.131A4.827,4.827,0,0,1,1924.412,1504.215Zm-6.882,4.042a2.141,2.141,0,0,0,.566,1.636,1.7,1.7,0,0,0,1.287.493,2.41,2.41,0,0,0,1.3-.445q-.1-.866-.024-4.356a5.634,5.634,0,0,0-.974.277,7.479,7.479,0,0,0-1,.481,2.323,2.323,0,0,0-.842.806A2.062,2.062,0,0,0,1917.531,1508.257Z" transform="translate(-1742.289 -1494.133)" fill="#040506"/>
        <path id="패스_68" data-name="패스 68" d="M1958.944,1500.278a3.447,3.447,0,0,1,1.744.409,1.5,1.5,0,0,1,.71,1.42,1.649,1.649,0,0,1-.433,1.119,1.461,1.461,0,0,1-1.155.493,2.477,2.477,0,0,1-1.311-.373q-.614-.373-1.119-.734a1.676,1.676,0,0,0-.963-.361q-.938,0-.939,3.3,0,5.558.385,5.558v.457h-5.245v-.457q.264,0,.421-1.528a27.935,27.935,0,0,0,.156-2.827,20.284,20.284,0,0,0-.168-2.707,3.122,3.122,0,0,0-.385-1.432l-.024-.505a12.139,12.139,0,0,0,2.635-.626,8.933,8.933,0,0,0,2.081-1.227h.529q-.048.41-.12.939A7.038,7.038,0,0,1,1958.944,1500.278Z" transform="translate(-1765.896 -1494.118)" fill="#040506"/>
      </g>
      <g id="그룹_171" data-name="그룹 171" transform="translate(1202.762 1487.895)">
        <path id="패스_69" data-name="패스 69" d="M1291.476,1695.309h10.114v-10.416h8.151v10.416h9.913v3.019h-28.178Zm.7-10.919c6.382-2.788,9.208-7.515,9.208-15.4v-1.459h-8.251v-3.019h8.251v-4.679h8.3v4.679h7.95v3.019h-7.95c.113,9.019,2.387,13.074,9.057,16.152l-1.459,2.465a22.264,22.264,0,0,1-11.673-8.654c-2.448,4.415-6.4,7.536-11.925,9.409l-1.51-2.516Zm29.738,19.322v-43.574h8.051v45.335h-6.29A1.558,1.558,0,0,1,1321.917,1703.711Z" transform="translate(-1291.476 -1659.835)" fill="#040506"/>
        <path id="패스_70" data-name="패스 70" d="M1418.147,1661.536h17.259v2.969H1425.8v33.108h10.315v3.019h-17.963Zm37.99-1.559v45.436H1450.6a1.314,1.314,0,0,1-1.459-1.409v-23.247h-3.019v24.656h-5.585a1.244,1.244,0,0,1-1.359-1.359v-44.077h6.944v18.164h3.019v-18.164Z" transform="translate(-1373.063 -1659.927)" fill="#040506"/>
        <path id="패스_71" data-name="패스 71" d="M1593.744,1701.581c5.028,0,6.944-2.624,6.944-9.51,0-6.927-2.029-10.114-6.441-10.114-4.053,0-7.013,2.66-7.923,2.66-.58,0-.914-.606-.882-1.6.173-5.4.53-10.851.5-16.253h20.076v2.264H1593.09l-.4,10.818a20,20,0,0,1,2.616-.151c7.2,0,13.434,5.672,13.434,12.227,0,6.705-6.563,11.925-14.994,11.925a14.214,14.214,0,0,1-8.352-2.616l1.459-1.962A11.023,11.023,0,0,0,1593.744,1701.581Z" transform="translate(-1480.782 -1664.297)" fill="#b0335a"/>
        <path id="패스_72" data-name="패스 72" d="M1672.271,1664.642c7.78,0,13.082,7.668,13.082,18.919,0,11.321-5.254,18.919-13.082,18.919-7.911,0-13.083-7.478-13.083-18.919C1659.188,1672.195,1664.411,1664.642,1672.271,1664.642Zm-5.031,18.919c0,2.467-.027,10.55.7,12.881s2.381,3.774,4.327,3.774c1.974,0,3.657-1.468,4.328-3.774.681-2.342.654-10.416.654-12.882,0-6.606-.326-11.361-.906-13.234-.716-2.311-2.038-3.421-4.075-3.421-2.056,0-3.578,1.363-4.327,3.875-.8,2.682-.7,9.985-.7,12.781Z" transform="translate(-1528.313 -1662.931)" fill="#b0335a"/>
        <path id="패스_73" data-name="패스 73" d="M1751.781,1753.988a8.605,8.605,0,0,1-6.229,7.934l-.553-1.459c1.524-.6,2.969-1.95,2.969-2.768,0-.522-.155-.7-.6-.7a3.508,3.508,0,0,1-3.773-3.724,3.964,3.964,0,0,1,3.975-4.226C1750.24,1749.041,1751.781,1750.848,1751.781,1753.988Z" transform="translate(-1582.674 -1717.291)" fill="#b0335a"/>
        <path id="패스_74" data-name="패스 74" d="M1789.609,1664.642c7.781,0,13.083,7.668,13.083,18.919,0,11.321-5.254,18.919-13.083,18.919-7.911,0-13.082-7.478-13.082-18.919C1776.527,1672.195,1781.75,1664.642,1789.609,1664.642Zm-5.031,18.919c0,2.467-.027,10.55.7,12.881s2.381,3.774,4.327,3.774c1.974,0,3.657-1.468,4.327-3.774.681-2.342.654-10.416.654-12.882,0-6.606-.326-11.361-.906-13.234-.716-2.311-2.038-3.421-4.076-3.421-2.056,0-3.578,1.363-4.327,3.875-.8,2.682-.7,9.985-.7,12.781Z" transform="translate(-1603.889 -1662.931)" fill="#b0335a"/>
        <path id="패스_75" data-name="패스 75" d="M1873.02,1664.642c7.781,0,13.083,7.668,13.083,18.919,0,11.321-5.254,18.919-13.083,18.919-7.911,0-13.082-7.478-13.082-18.919C1859.938,1672.195,1865.161,1664.642,1873.02,1664.642Zm-5.031,18.919c0,2.467-.028,10.55.7,12.881s2.382,3.774,4.327,3.774c1.974,0,3.657-1.468,4.328-3.774.681-2.342.654-10.416.654-12.882,0-6.606-.325-11.361-.906-13.234-.716-2.311-2.038-3.421-4.076-3.421-2.056,0-3.578,1.363-4.327,3.875-.8,2.682-.7,9.985-.7,12.781Z" transform="translate(-1657.613 -1662.931)" fill="#b0335a"/>
        <path id="패스_76" data-name="패스 76" d="M1956.432,1664.642c7.78,0,13.082,7.668,13.082,18.919,0,11.321-5.254,18.919-13.082,18.919-7.911,0-13.082-7.478-13.082-18.919C1943.35,1672.195,1948.573,1664.642,1956.432,1664.642Zm-5.031,18.919c0,2.467-.027,10.55.7,12.881s2.382,3.774,4.327,3.774c1.974,0,3.657-1.468,4.328-3.774.681-2.342.654-10.416.654-12.882,0-6.606-.326-11.361-.906-13.234-.716-2.311-2.038-3.421-4.076-3.421-2.056,0-3.578,1.363-4.327,3.875-.8,2.682-.7,9.985-.7,12.781Z" transform="translate(-1711.337 -1662.931)" fill="#b0335a"/>
        <path id="패스_77" data-name="패스 77" d="M2025.866,1695.016h23.188v2.516h-9.645v6.08h-5.116c-1.231,0-1.761-.568-1.761-1.887v-4.193h-6.667Zm11.489-16.479c6.669,0,10.4,2.617,10.4,7.3,0,4.719-3.673,7.3-10.4,7.3s-10.4-2.577-10.4-7.3C2026.956,1681.154,2030.686,1678.536,2037.355,1678.536Zm-7.044,26.585h7.3v8.387h20.421v2.474h-25.956c-1.22,0-1.761-.619-1.761-2.012Zm3.312-19.288c0,3.263,1.312,5.032,3.732,5.032,2.507,0,3.942-1.832,3.942-5.032,0-3.229-1.413-5.032-3.942-5.032C2034.932,1680.8,2033.623,1682.564,2033.623,1685.833Zm10.022,13.711h7.3v-21.427h6.877v28.933H2052.7c-1.354,0-1.761-.369-1.761-1.593v-3.439h-7.3Z" transform="translate(-1764.484 -1671.61)" fill="#040506"/>
      </g>
      <g id="그룹_172" data-name="그룹 172" transform="translate(1210.415 1566.814)">
        <path id="패스_78" data-name="패스 78" d="M1317.13,1885.5v-2.5h3.545v1.825a7.98,7.98,0,0,0,4.152,7.425l-.712.965a10.338,10.338,0,0,1-5.16-4.194,9.907,9.907,0,0,1-5.285,4.845l-.692-.986A8.184,8.184,0,0,0,1317.13,1885.5Zm-.818,9.187h3.67v5.432h9.753v1.069h-12.543c-.6,0-.88-.322-.88-1.007Zm9.9-12.354h3.419v13.57h-2.6c-.606,0-.818-.212-.818-.818Z" transform="translate(-1312.977 -1882.064)" fill="#040506"/>
        <path id="패스_79" data-name="패스 79" d="M1370.517,1901.863v-6.649h-3.146v-1.258h10.675a46.794,46.794,0,0,0,.592-6.982l0-1.219h-10.362v-1.237h12.9c.723,0,1.112.417,1.112,1.195,0,3.266-.451,4.861-2.328,8.243h3.943v1.258h-3.377v7.383h-2.747a.642.642,0,0,1-.713-.734v-6.649H1374v7.383h-2.748A.657.657,0,0,1,1370.517,1901.863Z" transform="translate(-1348.011 -1883.469)" fill="#040506"/>
        <path id="패스_80" data-name="패스 80" d="M1435.434,1898.14V1896.9h4.006v-2.852a4.208,4.208,0,0,1-3.377-4.216c0-2.563,1.957-4.216,4.992-4.216,3,0,4.866,1.614,4.866,4.216a4.133,4.133,0,0,1-3.041,4.153v2.915h4.342v1.238Zm.105-14.472h3.713v-2.1h3.607v2.1h3.608v1.237h-10.928Zm5.516,9.334c1,0,1.657-1.255,1.657-3.167,0-1.854-.619-2.958-1.657-2.958s-1.657,1.1-1.657,2.958C1439.4,1891.746,1440.054,1893,1441.055,1893Zm6.922-11.242h3.44V1900.7h-2.559c-.63,0-.88-.269-.88-.944Z" transform="translate(-1391.849 -1881.57)" fill="#040506"/>
        <path id="패스_81" data-name="패스 81" d="M1485.525,1890.554h11.6v1.258H1492.3v3.042h-2.559c-.615,0-.881-.285-.881-.944v-2.1h-3.335Zm5.747-8.243c3.335,0,5.2,1.309,5.2,3.65,0,2.361-1.837,3.65-5.2,3.65s-5.2-1.289-5.2-3.65C1486.07,1883.621,1487.936,1882.311,1491.272,1882.311Zm-3.524,13.3h3.65v4.195h10.215v1.237h-12.984c-.61,0-.881-.31-.881-1.007Zm1.657-9.648c0,1.632.656,2.517,1.866,2.517,1.254,0,1.971-.916,1.971-2.517s-.706-2.517-1.971-2.517C1490.06,1883.444,1489.406,1884.326,1489.406,1885.961Zm5.013,6.859h3.65V1882.1h3.44v14.472h-2.559c-.677,0-.881-.185-.881-.8v-1.72h-3.65Z" transform="translate(-1424.112 -1881.913)" fill="#040506"/>
        <path id="패스_82" data-name="패스 82" d="M1555.18,1896.829h4.216v-4.342h3.4v4.342h4.132v1.258H1555.18Zm.293-4.551c2.661-1.163,3.839-3.133,3.839-6.418v-.608h-3.44v-1.259h3.44v-1.95h3.461v1.95h3.313v1.259h-3.313c.047,3.759,1,5.449,3.775,6.733l-.608,1.028a9.279,9.279,0,0,1-4.865-3.607,8.515,8.515,0,0,1-4.971,3.922l-.629-1.048Zm12.4,8.054v-18.164h3.356v18.9H1568.6A.649.649,0,0,1,1567.869,1900.331Z" transform="translate(-1468.976 -1881.874)" fill="#040506"/>
        <path id="패스_83" data-name="패스 83" d="M1607.982,1882.752h7.194v1.237h-4.006v13.8h4.3v1.258h-7.488Zm15.836-.65v18.939h-2.307a.548.548,0,0,1-.608-.587v-9.69h-1.258v10.277h-2.328a.518.518,0,0,1-.567-.566V1882.1h2.895v7.571h1.258V1882.1Z" transform="translate(-1502.985 -1881.913)" fill="#040506"/>
        <path id="패스_84" data-name="패스 84" d="M1681.179,1899.444c2.1,0,2.894-1.094,2.894-3.964,0-2.888-.846-4.216-2.685-4.216-1.689,0-2.923,1.109-3.3,1.109-.242,0-.381-.253-.368-.668.072-2.251.221-4.523.21-6.774h8.368v.944h-5.39l-.168,4.509a8.453,8.453,0,0,1,1.091-.063c3,0,5.6,2.365,5.6,5.1,0,2.795-2.736,4.97-6.25,4.97a5.927,5.927,0,0,1-3.482-1.09l.608-.818A4.6,4.6,0,0,0,1681.179,1899.444Z" transform="translate(-1547.887 -1883.734)" fill="#040506"/>
        <path id="패스_85" data-name="패스 85" d="M1709.225,1883.113h8.767c.5,0,.692.214.692.776v8.893h-9.459Zm1.929,11.577h3.649v5.432h9.774v1.069h-12.542c-.61,0-.881-.31-.881-1.007Zm4.3-3.167v-7.173h-2.895v7.173Zm5.369-9.186h3.44v5.873h2.244v1.07h-2.244v6.628h-2.6c-.624,0-.839-.21-.839-.818Z" transform="translate(-1568.193 -1882.064)" fill="#040506"/>
        <path id="패스_86" data-name="패스 86" d="M1760.318,1890.554h11.6v1.258h-4.824v3.042h-2.559c-.615,0-.881-.285-.881-.944v-2.1h-3.335Zm5.747-8.243c3.335,0,5.2,1.309,5.2,3.65,0,2.361-1.837,3.65-5.2,3.65s-5.2-1.289-5.2-3.65C1760.863,1883.621,1762.729,1882.311,1766.065,1882.311Zm-3.524,13.3h3.65v4.195h10.215v1.237h-12.984c-.61,0-.881-.31-.881-1.007Zm1.657-9.648c0,1.632.656,2.517,1.866,2.517,1.254,0,1.971-.916,1.971-2.517s-.706-2.517-1.971-2.517C1764.853,1883.444,1764.2,1884.326,1764.2,1885.961Zm5.013,6.859h3.649V1882.1h3.44v14.472h-2.559c-.677,0-.881-.185-.881-.8v-1.72h-3.649Z" transform="translate(-1601.102 -1881.913)" fill="#040506"/>
        <path id="패스_87" data-name="패스 87" d="M1836.468,1901.863v-6.649h-6.376v-1.258h10.843c.266-1.77.384-2.693.462-3.608h-10.131v-1.237h10.215c.042-.83.063-1.734.063-2.79v-.566h-10.382v-1.237h12.9a1.053,1.053,0,0,1,1.133,1.195,15.86,15.86,0,0,1-2.307,8.243h3.734v1.258h-6.376v7.383H1837.2A.649.649,0,0,1,1836.468,1901.863Z" transform="translate(-1646.042 -1883.469)" fill="#040506"/>
        <path id="패스_88" data-name="패스 88" d="M1880.182,1894.354v-1.259h6.4v-2.2h-5.432v-1.238h2.475v-5.118h-2.265v-1.258h14.178v1.258h-2.266v5.118h2.475v1.238h-5.391v2.2h6.356v1.259Zm1.615,1.321h3.649v4.887h10.194v1.237h-12.962c-.61,0-.881-.31-.881-1.007Zm8.264-6.02v-5.118h-3.23v5.118Z" transform="translate(-1678.304 -1882.671)" fill="#040506"/>
        <path id="패스_89" data-name="패스 89" d="M1929.566,1890.873h1.259v-6.606h-1.259v-1.238h8.683v1.238h-1.175v6.606h1.384v1.238h-8.893Zm2.6,3.209h13.969v7.194h-3.65v-6.1h-10.319Zm2.475-3.209v-6.606h-1.258v6.606Zm8.6,1.321v-4.027h-1.28v4.845h-2.056c-.624,0-.839-.21-.839-.818v-9.857h2.895v4.7h1.28v-4.7h2.894v10.676h-2.055C1943.456,1893.013,1943.241,1892.8,1943.241,1892.194Z" transform="translate(-1710.111 -1882.064)" fill="#040506"/>
        <path id="패스_90" data-name="패스 90" d="M2000.105,1892.316h16.527v1.259h-16.527Zm.524-2.328c3.569-.805,5.809-2.779,5.809-5.118v-.126h-5.013v-1.111h13.885v1.111H2010.3c0,2.4,2.065,4.1,5.789,4.782l-.462,1.2c-3.216-.422-5.836-1.617-7.215-3.293-1.452,1.854-3.979,3.144-7.32,3.733l-.462-1.174Zm7.718,5.013c4.461,0,7.089,1.423,7.089,3.838s-2.628,3.839-7.089,3.839-7.089-1.419-7.089-3.839S2003.878,1895,2008.348,1895Zm0,6.418c2.441,0,3.65-.854,3.65-2.58s-1.2-2.58-3.65-2.58-3.65.844-3.65,2.58S2005.907,1901.419,2008.348,1901.419Z" transform="translate(-1755.544 -1882.899)" fill="#040506"/>
        <path id="패스_91" data-name="패스 91" d="M2052.867,1885.441v-1.2h-3.335v-1.237h9.774v1.237h-3v1.217c0,2.929,1.128,4.5,4.2,5.852l-.587,1.027a9.1,9.1,0,0,1-5.285-3.376,9.4,9.4,0,0,1-5.181,4.027l-.608-1.027A6.493,6.493,0,0,0,2052.867,1885.441Zm5.663,7.928c4.131,0,6.669,1.613,6.669,4.236s-2.539,4.237-6.669,4.237c-4.115,0-6.649-1.615-6.649-4.237S2054.415,1893.369,2058.53,1893.369Zm0,7.424c2.148,0,3.251-1.082,3.251-3.188s-1.083-3.167-3.251-3.167-3.23,1.05-3.23,3.167S2056.39,1900.794,2058.53,1900.794Zm-.273-14.178h3.419v-4.279h3.419v10.655h-2.6c-.606,0-.818-.212-.818-.818v-4.321h-3.419Z" transform="translate(-1786.934 -1882.064)" fill="#040506"/>
      </g>
      <g id="그룹_173" data-name="그룹 173" transform="translate(1262.176 1457.309)">
        <path id="패스_92" data-name="패스 92" d="M1461.179,1575.639v-1.512h.816v1.512h2.877v.589h-6.462v-.589Zm-1.84,2.248a2.259,2.259,0,0,1,.923-.856,2.886,2.886,0,0,1,1.345-.308,2.8,2.8,0,0,1,1.338.315,2.286,2.286,0,0,1,.917.876,2.5,2.5,0,0,1,.327,1.285,2.289,2.289,0,0,1-.7,1.746,2.593,2.593,0,0,1-1.853.662,2.908,2.908,0,0,1-1.358-.308,2.263,2.263,0,0,1-.93-.869,2.46,2.46,0,0,1-.335-1.284A2.4,2.4,0,0,1,1459.339,1577.887Zm.984,2.6a1.722,1.722,0,0,0,1.3.529,1.69,1.69,0,0,0,1.277-.508,1.834,1.834,0,0,0,.489-1.325,1.874,1.874,0,0,0-.5-1.345,1.684,1.684,0,0,0-1.278-.529,1.724,1.724,0,0,0-1.291.515,1.811,1.811,0,0,0-.5,1.318A1.859,1.859,0,0,0,1460.322,1580.489Zm-.067,2.04h.8v2.676h6.6v.589h-7.4Zm5.325-8.3h1.766v4.148h1.887v.589h-1.887v3.827h-.8v-7.974h-.964Z" transform="translate(-1458.409 -1574.047)" fill="#040506"/>
        <path id="패스_93" data-name="패스 93" d="M1491.9,1574.974h.8v2.328h3.719v-2.328h.8v6.034H1491.9Zm4.522,5.445v-2.529h-3.719v2.529Zm-3.024,1.98h.8v3.024h7v.589h-7.8Zm4.322-4.268v-.589h2.4v-2.488h-.964v-.589h1.766v8.657h-.8v-4.991Z" transform="translate(-1479.983 -1574.264)" fill="#040506"/>
        <path id="패스_94" data-name="패스 94" d="M1522.692,1582.57l8.2-.4v.589l-8.2.4Zm.937-6.329a2.646,2.646,0,0,1,1.1-1.071,3.474,3.474,0,0,1,1.646-.375,3.424,3.424,0,0,1,1.646.381,2.639,2.639,0,0,1,1.091,1.084,3.392,3.392,0,0,1,.381,1.639,2.982,2.982,0,0,1-.836,2.227,3.091,3.091,0,0,1-2.268.823,3.462,3.462,0,0,1-1.652-.381,2.667,2.667,0,0,1-1.1-1.084,3.309,3.309,0,0,1-.388-1.626A3.267,3.267,0,0,1,1523.629,1576.241Zm1.057,3.438a2.225,2.225,0,0,0,1.7.682,2.191,2.191,0,0,0,1.679-.662,2.521,2.521,0,0,0,.622-1.8,2.6,2.6,0,0,0-.628-1.833,2.183,2.183,0,0,0-1.686-.682,2.221,2.221,0,0,0-1.7.669,2.9,2.9,0,0,0,.013,3.626Zm5.981-4.8v-.562h1.766v10.2h-.79v-9.634Z" transform="translate(-1499.813 -1574.167)" fill="#040506"/>
        <path id="패스_95" data-name="패스 95" d="M1564.8,1582.719l3.572-.161v-1.338a2.786,2.786,0,0,1-1.706-.783,2.231,2.231,0,0,1-.636-1.626,2.183,2.183,0,0,1,.348-1.218,2.3,2.3,0,0,1,.97-.83,3.268,3.268,0,0,1,1.412-.294,3.2,3.2,0,0,1,1.411.3,2.266,2.266,0,0,1,.963.85,2.306,2.306,0,0,1,.341,1.244,2.158,2.158,0,0,1-.616,1.585,2.768,2.768,0,0,1-1.686.756v1.311l3.987-.187v.589l-8.362.388Zm3.532-7.332V1573.9h.816v1.485h3.01v.575h-6.73v-.575Zm-.95,4.743a1.968,1.968,0,0,0,1.4.515,1.905,1.905,0,0,0,1.358-.5,1.679,1.679,0,0,0,.529-1.284,1.7,1.7,0,0,0-.542-1.3,1.925,1.925,0,0,0-1.371-.509,1.964,1.964,0,0,0-1.378.5,1.64,1.64,0,0,0-.548,1.264A1.709,1.709,0,0,0,1567.378,1580.129Zm5.432-6.014h1.766v10.2h-.789v-9.633h-.977Z" transform="translate(-1526.931 -1573.901)" fill="#040506"/>
        <path id="패스_96" data-name="패스 96" d="M1596.975,1580l7.894-.334v.589l-4.094.174v2.047h-.8v-2.007l-3,.12Zm1.606-4.79a3.567,3.567,0,0,1,2.154-.589,3.394,3.394,0,0,1,2.121.6,1.95,1.95,0,0,1,.783,1.632,1.921,1.921,0,0,1-.756,1.612,3.359,3.359,0,0,1-2.094.582,4.126,4.126,0,0,1-1.578-.281,2.39,2.39,0,0,1-1.057-.8,1.96,1.96,0,0,1-.375-1.184A1.861,1.861,0,0,1,1598.581,1575.212Zm.576,2.823a2.642,2.642,0,0,0,1.605.428,2.465,2.465,0,0,0,1.546-.415,1.44,1.44,0,0,0,.528-1.2,1.471,1.471,0,0,0-.535-1.218,2.388,2.388,0,0,0-1.526-.428,2.617,2.617,0,0,0-1.605.441,1.424,1.424,0,0,0-.589,1.2A1.4,1.4,0,0,0,1599.156,1578.035Zm-.107,5.071h.8v2.342h7v.589h-7.8Zm6.8-1.606v-6.436h-.977v-.562h1.766v9.1h-.789v-1.5h-2.917v-.6Z" transform="translate(-1547.657 -1574.289)" fill="#040506"/>
        <path id="패스_97" data-name="패스 97" d="M1629.267,1575.118h5.272v2.154a8.278,8.278,0,0,1-.388,2.449,9.579,9.579,0,0,1-1.09,2.355,7.761,7.761,0,0,1-1.6,1.833l-.428-.428a8.13,8.13,0,0,0,1.384-1.726,9.831,9.831,0,0,0,.977-2.114,6.657,6.657,0,0,0,.354-2.033v-1.927h-4.482Zm7.025-.053v-.562h1.766v4.188h1.953v.562h-1.953v5.445h-.789v-9.633Z" transform="translate(-1568.456 -1574.289)" fill="#040506"/>
        <path id="패스_98" data-name="패스 98" d="M1662.567,1575.428a3.051,3.051,0,0,1,2.175-.736,3.017,3.017,0,0,1,2.174.749,2.754,2.754,0,0,1,.783,2.088,2.694,2.694,0,0,1-.769,2.054,3.6,3.6,0,0,1-4.362-.013,2.731,2.731,0,0,1-.783-2.081A2.692,2.692,0,0,1,1662.567,1575.428Zm.589,3.713a2.512,2.512,0,0,0,3.191.02,2.224,2.224,0,0,0,.548-1.619,2.327,2.327,0,0,0-.562-1.672,2.45,2.45,0,0,0-3.178-.007,2.647,2.647,0,0,0,0,3.278Zm.448,2.161h.8v1.78h5.794v-1.78h.8v4.844h-7.4Zm6.6,4.255v-1.887h-5.794v1.887Zm-.964-10.53v-.562H1671v6.115h-.8v-5.553Z" transform="translate(-1589.399 -1574.264)" fill="#040506"/>
        <path id="패스_99" data-name="패스 99" d="M1705.129,1585.823a.705.705,0,0,1,.207-.509.675.675,0,0,1,.5-.214.663.663,0,0,1,.495.208.7.7,0,0,1,.2.5.665.665,0,0,1-.7.7.7.7,0,0,1-.5-.2A.646.646,0,0,1,1705.129,1585.823Zm1.137-8.764-.094,6.984h-.75l-.094-6.984Z" transform="translate(-1617.317 -1575.935)" fill="#040506"/>
        <path id="패스_100" data-name="패스 100" d="M1724.474,1584.391h3.573V1580.9h.8v3.492h1.445v.576h-1.445v1.619h-.8v-1.605h-4.724l3.064-7.131h.883Z" transform="translate(-1629.036 -1576.444)" fill="#040506"/>
        <path id="패스_101" data-name="패스 101" d="M1744.977,1575.118h5.271v2.154a8.281,8.281,0,0,1-.388,2.449,9.57,9.57,0,0,1-1.091,2.355,7.755,7.755,0,0,1-1.6,1.833l-.429-.428a8.128,8.128,0,0,0,1.385-1.726,9.824,9.824,0,0,0,.977-2.114,6.654,6.654,0,0,0,.354-2.033v-1.927h-4.482Zm7.024-.053v-.562h1.766v4.188h1.953v.562h-1.953v5.445h-.789v-9.633Z" transform="translate(-1642.983 -1574.289)" fill="#040506"/>
        <path id="패스_102" data-name="패스 102" d="M1776.329,1582.6a6.07,6.07,0,0,0,1.672-1.2,5.757,5.757,0,0,0,1.151-1.639,4.21,4.21,0,0,0,.415-1.779v-2.074h-2.636v-.589h6.061v.589h-2.609v2.06a4.013,4.013,0,0,0,.074.836,3.13,3.13,0,0,0,.247.7,5.828,5.828,0,0,0,1.158,1.525,9.369,9.369,0,0,0,1.772,1.378l-.334.522a7.911,7.911,0,0,1-1.846-1.318,8.054,8.054,0,0,1-1.445-1.746,8.177,8.177,0,0,1-1.459,1.947,7.034,7.034,0,0,1-1.846,1.385Zm7.908-7.573v-.562H1786v10.2h-.79v-9.634Z" transform="translate(-1663.176 -1574.264)" fill="#040506"/>
        <path id="패스_103" data-name="패스 103" d="M1818.582,1581.891h10.731v.589h-5.071v4.268h-.8v-4.268h-4.857Zm8.269-3.252q.013-.254.013-.776v-1.231H1820v-.589h7.667v1.633a16.18,16.18,0,0,1-.12,1.953,7.859,7.859,0,0,1-.295,1.5l-.7-.147.067-.388q.146-.909.187-1.365l-6.984.308v-.588Z" transform="translate(-1690.39 -1575.281)" fill="#040506"/>
        <path id="패스_104" data-name="패스 104" d="M1850.611,1581.786h4.951v-1.7h-3.88v-.589h1.753v-2.7h.8v2.7h3.452v-2.7h.8v2.7h1.753v.589h-3.88v1.7h4.978v.589h-10.731Zm9.5-6.155v.588h-8.3v-.588Zm-7.787,7.827h.8v2.69h7.078v.6h-7.881Z" transform="translate(-1711.02 -1575.015)" fill="#040506"/>
        <path id="패스_105" data-name="패스 105" d="M1882.752,1575.094h5.526v.589h-5.526Zm0,4.87h1.044v-3.64h.8v3.64h1.847v-3.64h.8v3.64h1.164v.589h-5.66Zm2.127,2.154h7.626v4.188h-.8v-3.6h-6.824Zm3.773-7v-.589h1.365v2.917h1.74v-2.4h-.562v-.589h1.365v6.9h-.8v-3.331h-1.74v3.331h-.8v-6.248Z" transform="translate(-1731.721 -1574.264)" fill="#040506"/>
        <path id="패스_106" data-name="패스 106" d="M1935.284,1582.6a22.284,22.284,0,0,1-3.1,3.86,25.835,25.835,0,0,1-3.151-3.96,5.994,5.994,0,0,1-1.09-2.943,2.243,2.243,0,0,1,.589-1.619,2.032,2.032,0,0,1,1.539-.616,2.307,2.307,0,0,1,1.2.328,2.561,2.561,0,0,1,.9.917,3.554,3.554,0,0,1,.977-.956,2.147,2.147,0,0,1,1.124-.288,2.093,2.093,0,0,1,1.579.6,2.223,2.223,0,0,1,.575,1.612A6.3,6.3,0,0,1,1935.284,1582.6Z" transform="translate(-1760.825 -1576.104)" fill="#eb96c0"/>
      </g>
    </g>
    <g id="그룹_175" data-name="그룹 175" transform="translate(-171.968 3008.563) rotate(-13)">
      <path id="패스_107" data-name="패스 107" d="M502.079,450.8q-5.64,1.041-11.235,2.319c1.265,5.372,2.536,10.8,2.525,16.322s-1.422,11.218-4.98,15.436c-2.884,3.419-8.507,18.953-8.507,18.953S468,491.98,463.706,490.738a14.229,14.229,0,0,1-6.659-3.641,16.228,16.228,0,0,1-2.786-4.8,107.479,107.479,0,0,1-5.488-15.723c-.226-.967-7.1.806-13.056,2.712,1.407,4.792,2.827,9.688,2.619,14.677-.4,9.487-6.617,18.076-6.61,27.572a21.679,21.679,0,0,0,6.6,15.447c7.718,7.4,19.61,7.995,30.26,7.073a157.972,157.972,0,0,0,27.669-4.905c6.393-1.732,12.75-3.9,18.317-7.489s10.911-8.558,12.455-15c4.729-19.73-8.3-25.927-13.79-30.09a14.856,14.856,0,0,1-4.149-5.988C506.414,464.647,504.564,458.339,502.079,450.8Z" transform="translate(1.683)" fill="#cd5595" stroke="#2b131e" stroke-miterlimit="10" stroke-width="1"/>
      <path id="패스_108" data-name="패스 108" d="M579.914,568.562c-13.432-18.522-34.8-32.747-56.74-39.221h0a4.864,4.864,0,0,1-2.365,1.746A132.849,132.849,0,0,1,458.7,542.679a4.5,4.5,0,0,1-2.356-.585h0c-9.118,14.991-21.372,30.251-30.682,45.123s-16.874,31.437-17.645,48.966c5.687,2.384,9.424,7.953,11.721,13.676s3.491,11.853,5.957,17.5c7.062,16.187,26.421,26.876,43.283,21.628,5.081-1.581,9.859-4.451,15.171-4.754,8.551-.488,16.023,5.706,24.443,7.272,9.831,1.829,19.893-2.949,27.209-9.765s12.513-15.535,18.276-23.705,12.486-16.142,21.552-20.361c7.481-3.482,15.926-4.116,24.157-4.7A105.458,105.458,0,0,0,579.914,568.562Z" transform="translate(0 5.576)" fill="#cd5595" stroke="#2b131e" stroke-miterlimit="10" stroke-width="1"/>
      <path id="패스_109" data-name="패스 109" d="M476.3,500.171a145.326,145.326,0,0,1,18.15,24.821" transform="translate(4.847 3.505)" fill="#f9dc30"/>
      <path id="패스_110" data-name="패스 110" d="M515.466,515.676c-.684.494-1.38.967-2.079,1.417-5.568,3.588-11.925,5.758-18.318,7.489a157.972,157.972,0,0,1-27.669,4.905,60.509,60.509,0,0,1-17-.579l-1.99.4q1.8,5.636,3.607,11.272a4.6,4.6,0,0,0,1.463,2.516,4.5,4.5,0,0,0,2.356.585,132.849,132.849,0,0,0,62.108-11.592,4.865,4.865,0,0,0,2.365-1.746,4.812,4.812,0,0,0,.3-3,61.194,61.194,0,0,0-2.64-12.177Z" transform="translate(2.867 4.57)"/>
      <path id="패스_111" data-name="패스 111" d="M515,488.308c-2.153-3.007-5.064-5.114-7.6-7.75a38.481,38.481,0,0,1-6.2-8.791,45.619,45.619,0,0,1-5.273-19.96q-2.864.59-5.716,1.24c1.265,5.372,2.536,10.8,2.525,16.322s-1.422,11.218-4.98,15.436c-2.884,3.419-8.506,18.953-8.506,18.953s-11.881-11.851-16.177-13.092a14.229,14.229,0,0,1-6.659-3.641,16.241,16.241,0,0,1-2.786-4.8,107.479,107.479,0,0,1-5.488-15.723c-.156-.673-3.526-.019-7.565,1.081a43.181,43.181,0,0,1,2.846,11.649,90.734,90.734,0,0,1-.312,18.846c-.59,5.8-1.406,11.5.453,17.174,2.709,8.27,9.61,13.967,16.5,19.053,2.65.031,5.3-.1,7.886-.323a157.972,157.972,0,0,0,27.669-4.905,70.34,70.34,0,0,0,16.05-6.131C518.635,512.829,522.77,499.157,515,488.308Z" transform="translate(2.312 0.071)" fill="#c72c67" opacity="0.3" style="mix-blend-mode: multiply;isolation: isolate"/>
      <path id="패스_112" data-name="패스 112" d="M546,643.664c-1.958-6.212-4.993-12.822-10.817-16.3-4.214-2.515-9.339-2.868-14-4.089a25.164,25.164,0,0,1-7.241-2.882,20.239,20.239,0,0,1-5.09-4.735c-3.149-4.061-5.008-9.031-6.277-13.964-2.559-9.951-2.789-20.2-4.128-30.335-1.446-10.951-4.411-24.1-14.27-30.548a131.941,131.941,0,0,1-25.484,1.049,4.5,4.5,0,0,1-2.356-.585h0c-9.118,14.991-21.372,30.251-30.682,45.123s-16.874,31.437-17.645,48.966c5.687,2.384,9.424,7.953,11.721,13.676s3.491,11.853,5.957,17.5c7.062,16.187,26.421,26.876,43.283,21.628,5.081-1.581,9.859-4.451,15.171-4.754,8.551-.488,16.023,5.706,24.443,7.272,9.831,1.829,19.893-2.949,27.209-9.765,5.843-5.445,10.336-12.1,14.845-18.725C549.021,656.046,547.922,649.748,546,643.664Z" transform="translate(0 6.391)" fill="#c72c67" opacity="0.3" style="mix-blend-mode: multiply;isolation: isolate"/>
      <path id="패스_113" data-name="패스 113" d="M476.3,500.171a145.326,145.326,0,0,1,18.15,24.821" transform="translate(4.847 3.505)" fill="#754efa" opacity="0.5" style="mix-blend-mode: multiply;isolation: isolate"/>
      <path id="패스_114" data-name="패스 114" d="M502.079,450.8q-5.64,1.041-11.235,2.319c1.265,5.372,2.536,10.8,2.525,16.322s-1.422,11.218-4.98,15.436c-2.884,3.419-8.507,18.953-8.507,18.953S468,491.98,463.706,490.738a14.229,14.229,0,0,1-6.659-3.641,16.228,16.228,0,0,1-2.786-4.8,107.479,107.479,0,0,1-5.488-15.723c-.226-.967-7.1.806-13.056,2.712,1.407,4.792,2.827,9.688,2.619,14.677-.4,9.487-6.617,18.076-6.61,27.572a21.679,21.679,0,0,0,6.6,15.447c7.718,7.4,19.61,7.995,30.26,7.073a157.972,157.972,0,0,0,27.669-4.905c6.393-1.732,12.75-3.9,18.317-7.489s10.911-8.558,12.455-15c4.729-19.73-8.3-25.927-13.79-30.09a14.856,14.856,0,0,1-4.149-5.988C506.414,464.647,504.564,458.339,502.079,450.8Z" transform="translate(1.683)" fill="none" stroke="#000" stroke-linecap="round" stroke-linejoin="round" stroke-width="1"/>
      <path id="패스_115" data-name="패스 115" d="M448.407,529.313q1.8,5.637,3.607,11.272a4.6,4.6,0,0,0,1.463,2.516,4.51,4.51,0,0,0,2.356.585,132.849,132.849,0,0,0,62.108-11.592,4.865,4.865,0,0,0,2.365-1.746,4.81,4.81,0,0,0,.3-3,61.188,61.188,0,0,0-2.64-12.178" transform="translate(2.867 4.57)" fill="none" stroke="#000" stroke-linecap="round" stroke-linejoin="round" stroke-width="1"/>
      <path id="패스_116" data-name="패스 116" d="M456.344,542.094c-9.118,14.991-21.372,30.251-30.682,45.123s-16.874,31.437-17.645,48.966c5.687,2.384,9.424,7.953,11.721,13.676s3.491,11.853,5.957,17.5c7.062,16.187,26.421,26.876,43.283,21.628,5.081-1.581,9.859-4.451,15.171-4.754,8.551-.488,16.023,5.706,24.443,7.273,9.831,1.828,19.893-2.951,27.209-9.766s12.513-15.535,18.276-23.705,12.486-16.142,21.552-20.361c7.481-3.482,15.926-4.116,24.157-4.7a105.458,105.458,0,0,0-19.873-64.419c-13.432-18.522-34.8-32.747-56.74-39.221" transform="translate(0 5.576)" fill="none" stroke="#000" stroke-linecap="round" stroke-linejoin="round" stroke-width="1"/>
      <path id="패스_117" data-name="패스 117" d="M465.642,541.968A188.215,188.215,0,0,0,451.2,582.8" transform="translate(3.066 6.472)" fill="none" stroke="#000" stroke-linecap="round" stroke-linejoin="round" stroke-width="1"/>
      <path id="패스_118" data-name="패스 118" d="M502.444,535.735a114.962,114.962,0,0,1,32.491,36.458" transform="translate(6.704 6.03)" fill="none" stroke="#000" stroke-linecap="round" stroke-linejoin="round" stroke-width="1"/>
      <path id="패스_119" data-name="패스 119" d="M483.526,550.642a209.808,209.808,0,0,1,3.007,74.347" transform="translate(5.361 7.088)" fill="none" stroke="#000" stroke-linecap="round" stroke-linejoin="round" stroke-width="1"/>
      <path id="패스_120" data-name="패스 120" d="M439.31,467.228a141.617,141.617,0,0,0,6.7,27.877" transform="translate(2.222 1.166)" fill="none" stroke="#000" stroke-linecap="round" stroke-linejoin="round" stroke-width="1"/>
      <path id="패스_121" data-name="패스 121" d="M456.934,500.163c-4.845-7.846-9.77-15.882-11.768-24.883" transform="translate(2.637 1.738)" fill="none" stroke="#000" stroke-linecap="round" stroke-linejoin="round" stroke-width="1"/>
      <path id="패스_122" data-name="패스 122" d="M491.849,452.485c2.2,13.213,4.383,26.929.812,39.839" transform="translate(5.952 0.12)" fill="none" stroke="#000" stroke-linecap="round" stroke-linejoin="round" stroke-width="1"/>
      <path id="패스_123" data-name="패스 123" d="M496.954,498.707a57.862,57.862,0,0,0,1.861-25.84" transform="translate(6.314 1.567)" fill="none" stroke="#000" stroke-linecap="round" stroke-linejoin="round" stroke-width="1"/>
      <path id="패스_124" data-name="패스 124" d="M476.3,500.171a145.326,145.326,0,0,1,18.15,24.821" transform="translate(4.847 3.505)" fill="none" stroke="#000" stroke-linecap="round" stroke-linejoin="round" stroke-width="1"/>
      <path id="패스_125" data-name="패스 125" d="M468.992,551.193A242.251,242.251,0,0,0,455.3,608.948" transform="translate(3.357 7.127)" fill="none" stroke="#000" stroke-linecap="round" stroke-linejoin="round" stroke-width="1"/>
      <path id="패스_126" data-name="패스 126" d="M491.52,548.709a126.318,126.318,0,0,1,6.849,31.911" transform="translate(5.928 6.951)" fill="none" stroke="#000" stroke-linecap="round" stroke-linejoin="round" stroke-width="1"/>
      <path id="패스_127" data-name="패스 127" d="M516.707,537.817c9.072,8.183,18.182,16.406,25.941,25.844s14.174,20.213,17.1,32.075" transform="translate(7.716 6.178)" fill="none" stroke="#000" stroke-linecap="round" stroke-linejoin="round" stroke-width="1"/>
    </g>
    <g id="그룹_224" data-name="그룹 224" transform="translate(722.127 3140.884)">
      <path id="패스_177" data-name="패스 177" d="M-131.541,305.936a6.457,6.457,0,0,1,8.937,1.871,6.458,6.458,0,0,1-1.871,8.938,6.456,6.456,0,0,1-8.937-1.872A6.456,6.456,0,0,1-131.541,305.936Z" fill="#fff"/>
      <path id="패스_178" data-name="패스 178" d="M-122.314,315.331a6.456,6.456,0,0,1,8.937,1.872,6.456,6.456,0,0,1-1.871,8.937,6.456,6.456,0,0,1-8.937-1.872A6.457,6.457,0,0,1-122.314,315.331Z" fill="#fff"/>
      <path id="패스_179" data-name="패스 179" d="M-109.024,316.781a6.456,6.456,0,0,1,8.937,1.872,6.457,6.457,0,0,1-1.871,8.937,6.457,6.457,0,0,1-8.937-1.871A6.458,6.458,0,0,1-109.024,316.781Z" fill="#fff"/>
      <path id="패스_180" data-name="패스 180" d="M-95.33,313.119a6.457,6.457,0,0,1,8.937,1.871,6.456,6.456,0,0,1-1.871,8.937,6.457,6.457,0,0,1-8.937-1.871A6.457,6.457,0,0,1-95.33,313.119Z" fill="#fff"/>
      <path id="패스_181" data-name="패스 181" d="M-84.058,305.75a6.456,6.456,0,0,1,8.937,1.872,6.457,6.457,0,0,1-1.871,8.937,6.456,6.456,0,0,1-8.937-1.872A6.455,6.455,0,0,1-84.058,305.75Z" fill="#fff"/>
      <path id="패스_182" data-name="패스 182" d="M-75.672,294.979a6.456,6.456,0,0,1,8.937,1.872,6.457,6.457,0,0,1-1.872,8.937,6.457,6.457,0,0,1-8.937-1.872A6.456,6.456,0,0,1-75.672,294.979Z" fill="#fff"/>
      <path id="패스_183" data-name="패스 183" d="M-75.8,280.959a6.456,6.456,0,0,1,8.937,1.871,6.456,6.456,0,0,1-1.872,8.937,6.457,6.457,0,0,1-8.937-1.871A6.456,6.456,0,0,1-75.8,280.959Z" fill="#fff"/>
      <path id="패스_184" data-name="패스 184" d="M-85.634,270.637a6.457,6.457,0,0,1,8.937,1.871,6.456,6.456,0,0,1-1.872,8.937,6.456,6.456,0,0,1-8.937-1.871A6.456,6.456,0,0,1-85.634,270.637Z" fill="#fff"/>
      <path id="패스_185" data-name="패스 185" d="M-99.589,268.17a6.455,6.455,0,0,1,8.937,1.871,6.457,6.457,0,0,1-1.871,8.937,6.458,6.458,0,0,1-8.938-1.871A6.456,6.456,0,0,1-99.589,268.17Z" fill="#fff"/>
      <path id="패스_186" data-name="패스 186" d="M-112.155,272.547a6.455,6.455,0,0,1,8.937,1.871,6.456,6.456,0,0,1-1.872,8.937,6.457,6.457,0,0,1-8.937-1.871A6.456,6.456,0,0,1-112.155,272.547Z" fill="#fff"/>
      <path id="패스_187" data-name="패스 187" d="M-133.2,291.6a6.456,6.456,0,0,1,8.937,1.871,6.456,6.456,0,0,1-1.872,8.937,6.457,6.457,0,0,1-8.937-1.871A6.456,6.456,0,0,1-133.2,291.6Z" fill="#fff"/>
      <path id="패스_188" data-name="패스 188" d="M-121.36,293.335q3.9-3.882,7.573-7.988a1.506,1.506,0,0,0,.461-.813,1.42,1.42,0,0,0-.161-.676,14.539,14.539,0,0,0-2.532-3.963,3.067,3.067,0,0,0-1.075-.856c-1.067-.431-2.229.285-3.131,1a45.453,45.453,0,0,0-5.98,5.691,3.265,3.265,0,0,0-1.117,2.684,3.117,3.117,0,0,0,.664,1.179,25.22,25.22,0,0,0,3.162,3.331C-123,293.36-122.04,294.012-121.36,293.335Zm-2.466-6.312A63.508,63.508,0,0,1-119,282.708c.208-.167.475-.342.721-.239a.762.762,0,0,1,.275.249l1.312,1.664a49.635,49.635,0,0,1-4.845,5.4A8,8,0,0,1-123.826,287.023Z" fill="#fff"/>
      <path id="패스_189" data-name="패스 189" d="M-127.887,313.531a34.019,34.019,0,0,1-1.973,3.964,6.416,6.416,0,0,0,5.385-.75,6.458,6.458,0,0,0,1.871-8.938,6.427,6.427,0,0,0-5-2.889,13.279,13.279,0,0,1,.61,2.09A11.229,11.229,0,0,1-127.887,313.531Z" fill="#e1772a" opacity="0.3" style="mix-blend-mode: multiply;isolation: isolate"/>
      <path id="패스_190" data-name="패스 190" d="M-121.065,326.736a6.382,6.382,0,0,0,5.817-.6,6.456,6.456,0,0,0,1.871-8.937,6.4,6.4,0,0,0-5.129-2.887A18.307,18.307,0,0,1-121.065,326.736Z" fill="#e1772a" opacity="0.3" style="mix-blend-mode: multiply;isolation: isolate"/>
      <path id="패스_191" data-name="패스 191" d="M-100.087,318.653a6.437,6.437,0,0,0-5.477-2.91,6.442,6.442,0,0,1,.685,1.206c1.518,3.572.391,7.539-1.121,10.91-.105.233-.219.467-.331.7a6.4,6.4,0,0,0,4.373-.969A6.457,6.457,0,0,0-100.087,318.653Z" fill="#e1772a" opacity="0.3" style="mix-blend-mode: multiply;isolation: isolate"/>
      <path id="패스_192" data-name="패스 192" d="M-93.393,324.757a6.412,6.412,0,0,0,5.129-.83,6.456,6.456,0,0,0,1.871-8.937,6.438,6.438,0,0,0-5.505-2.908,9.988,9.988,0,0,1,.579,2.009A17.784,17.784,0,0,1-93.393,324.757Z" fill="#e1772a" opacity="0.3" style="mix-blend-mode: multiply;isolation: isolate"/>
      <path id="패스_193" data-name="패스 193" d="M-79.611,315.618a12.812,12.812,0,0,1-1.4,1.95,6.4,6.4,0,0,0,4.015-1.009,6.457,6.457,0,0,0,1.871-8.937,6.416,6.416,0,0,0-4.4-2.822,13.26,13.26,0,0,1,1.1,2.91A10.767,10.767,0,0,1-79.611,315.618Z" fill="#e1772a" opacity="0.3" style="mix-blend-mode: multiply;isolation: isolate"/>
      <path id="패스_194" data-name="패스 194" d="M-66.735,296.851A6.416,6.416,0,0,0-71.428,294c.184.352.371.7.526,1.068a13.25,13.25,0,0,1,.408,9.812,17.11,17.11,0,0,1-.842,1.89,6.373,6.373,0,0,0,2.729-.978A6.457,6.457,0,0,0-66.735,296.851Z" fill="#e1772a" opacity="0.3" style="mix-blend-mode: multiply;isolation: isolate"/>
      <path id="패스_195" data-name="패스 195" d="M-66.864,282.83a6.442,6.442,0,0,0-6.3-2.843,13.173,13.173,0,0,1,2.542,7.4A11.97,11.97,0,0,1-72,292.79a6.393,6.393,0,0,0,3.264-1.023A6.456,6.456,0,0,0-66.864,282.83Z" fill="#e1772a" opacity="0.3" style="mix-blend-mode: multiply;isolation: isolate"/>
      <path id="패스_196" data-name="패스 196" d="M-76.7,272.508a6.449,6.449,0,0,0-6.383-2.836,20.376,20.376,0,0,1,1.214,12.8,6.4,6.4,0,0,0,3.3-1.026A6.456,6.456,0,0,0-76.7,272.508Z" fill="#e1772a" opacity="0.3" style="mix-blend-mode: multiply;isolation: isolate"/>
      <path id="패스_197" data-name="패스 197" d="M-90.652,270.041A6.432,6.432,0,0,0-96,267.134a23.84,23.84,0,0,1-.785,8.523,23.289,23.289,0,0,1-1.546,3.94,6.429,6.429,0,0,0,5.807-.619A6.456,6.456,0,0,0-90.652,270.041Z" fill="#e1772a" opacity="0.3" style="mix-blend-mode: multiply;isolation: isolate"/>
      <path id="패스_198" data-name="패스 198" d="M-105.09,283.355a6.456,6.456,0,0,0,1.872-8.937,6.433,6.433,0,0,0-6.011-2.867,18.591,18.591,0,0,1,1.826,12.735A6.432,6.432,0,0,0-105.09,283.355Z" fill="#e1772a" opacity="0.3" style="mix-blend-mode: multiply;isolation: isolate"/>
      <path id="패스_199" data-name="패스 199" d="M-124.265,293.466a6.4,6.4,0,0,0-5.361-2.883,1.872,1.872,0,0,1-.087.751l-.02.057a9.409,9.409,0,0,1,1.31,4.013,11.1,11.1,0,0,1-2.895,7.813,6.414,6.414,0,0,0,5.181-.814A6.456,6.456,0,0,0-124.265,293.466Z" fill="#e1772a" opacity="0.3" style="mix-blend-mode: multiply;isolation: isolate"/>
      <path id="패스_200" data-name="패스 200" d="M-121.36,293.335q3.9-3.882,7.573-7.988a1.506,1.506,0,0,0,.461-.813,1.42,1.42,0,0,0-.161-.676,14.539,14.539,0,0,0-2.532-3.963,3.067,3.067,0,0,0-1.075-.856c-1.067-.431-2.229.285-3.131,1a45.453,45.453,0,0,0-5.98,5.691,3.265,3.265,0,0,0-1.117,2.684,3.117,3.117,0,0,0,.664,1.179,25.22,25.22,0,0,0,3.162,3.331C-123,293.36-122.04,294.012-121.36,293.335Zm-2.466-6.312A63.508,63.508,0,0,1-119,282.708c.208-.167.475-.342.721-.239a.762.762,0,0,1,.275.249l1.312,1.664a49.635,49.635,0,0,1-4.845,5.4A8,8,0,0,1-123.826,287.023Z" fill="#fff"/>
      <path id="패스_201" data-name="패스 201" d="M-131.541,305.936a6.457,6.457,0,0,1,8.937,1.871,6.458,6.458,0,0,1-1.871,8.938,6.456,6.456,0,0,1-8.937-1.872A6.456,6.456,0,0,1-131.541,305.936Z" fill="none" stroke="#000" stroke-linecap="round" stroke-linejoin="round" stroke-width="1"/>
      <path id="패스_202" data-name="패스 202" d="M-122.314,315.331a6.456,6.456,0,0,1,8.937,1.872,6.456,6.456,0,0,1-1.871,8.937,6.456,6.456,0,0,1-8.937-1.872A6.457,6.457,0,0,1-122.314,315.331Z" fill="none" stroke="#000" stroke-linecap="round" stroke-linejoin="round" stroke-width="1"/>
      <path id="패스_203" data-name="패스 203" d="M-109.024,316.781a6.456,6.456,0,0,1,8.937,1.872,6.457,6.457,0,0,1-1.871,8.937,6.457,6.457,0,0,1-8.937-1.871A6.458,6.458,0,0,1-109.024,316.781Z" fill="none" stroke="#000" stroke-linecap="round" stroke-linejoin="round" stroke-width="1"/>
      <path id="패스_204" data-name="패스 204" d="M-95.33,313.119a6.457,6.457,0,0,1,8.937,1.871,6.456,6.456,0,0,1-1.871,8.937,6.457,6.457,0,0,1-8.937-1.871A6.457,6.457,0,0,1-95.33,313.119Z" fill="none" stroke="#000" stroke-linecap="round" stroke-linejoin="round" stroke-width="1"/>
      <path id="패스_205" data-name="패스 205" d="M-84.058,305.75a6.456,6.456,0,0,1,8.937,1.872,6.457,6.457,0,0,1-1.871,8.937,6.456,6.456,0,0,1-8.937-1.872A6.455,6.455,0,0,1-84.058,305.75Z" fill="none" stroke="#000" stroke-linecap="round" stroke-linejoin="round" stroke-width="1"/>
      <path id="패스_206" data-name="패스 206" d="M-75.672,294.979a6.456,6.456,0,0,1,8.937,1.872,6.457,6.457,0,0,1-1.872,8.937,6.457,6.457,0,0,1-8.937-1.872A6.456,6.456,0,0,1-75.672,294.979Z" fill="none" stroke="#000" stroke-linecap="round" stroke-linejoin="round" stroke-width="1"/>
      <path id="패스_207" data-name="패스 207" d="M-75.8,280.959a6.456,6.456,0,0,1,8.937,1.871,6.456,6.456,0,0,1-1.872,8.937,6.457,6.457,0,0,1-8.937-1.871A6.456,6.456,0,0,1-75.8,280.959Z" fill="none" stroke="#000" stroke-linecap="round" stroke-linejoin="round" stroke-width="1"/>
      <path id="패스_208" data-name="패스 208" d="M-85.634,270.637a6.457,6.457,0,0,1,8.937,1.871,6.456,6.456,0,0,1-1.872,8.937,6.456,6.456,0,0,1-8.937-1.871A6.456,6.456,0,0,1-85.634,270.637Z" fill="none" stroke="#000" stroke-linecap="round" stroke-linejoin="round" stroke-width="1"/>
      <path id="패스_209" data-name="패스 209" d="M-99.589,268.17a6.455,6.455,0,0,1,8.937,1.871,6.457,6.457,0,0,1-1.871,8.937,6.458,6.458,0,0,1-8.938-1.871A6.456,6.456,0,0,1-99.589,268.17Z" fill="none" stroke="#000" stroke-linecap="round" stroke-linejoin="round" stroke-width="1"/>
      <path id="패스_210" data-name="패스 210" d="M-112.155,272.547a6.455,6.455,0,0,1,8.937,1.871,6.456,6.456,0,0,1-1.872,8.937,6.457,6.457,0,0,1-8.937-1.871A6.456,6.456,0,0,1-112.155,272.547Z" fill="none" stroke="#000" stroke-linecap="round" stroke-linejoin="round" stroke-width="1"/>
      <path id="패스_211" data-name="패스 211" d="M-133.2,291.6a6.456,6.456,0,0,1,8.937,1.871,6.456,6.456,0,0,1-1.872,8.937,6.457,6.457,0,0,1-8.937-1.871A6.456,6.456,0,0,1-133.2,291.6Z" fill="none" stroke="#000" stroke-linecap="round" stroke-linejoin="round" stroke-width="1"/>
      <path id="패스_212" data-name="패스 212" d="M-121.36,293.335q3.9-3.882,7.573-7.988a1.506,1.506,0,0,0,.461-.813,1.42,1.42,0,0,0-.161-.676,14.563,14.563,0,0,0-2.532-3.963,3.061,3.061,0,0,0-1.076-.856c-1.066-.431-2.228.285-3.13,1a45.453,45.453,0,0,0-5.98,5.691,3.265,3.265,0,0,0-1.117,2.684,3.117,3.117,0,0,0,.664,1.179,25.155,25.155,0,0,0,3.162,3.331C-123,293.36-122.04,294.012-121.36,293.335Z" fill="none" stroke="#000" stroke-linecap="round" stroke-linejoin="round" stroke-width="1"/>
      <path id="패스_213" data-name="패스 213" d="M-116.689,284.382-118,282.718a.762.762,0,0,0-.275-.249c-.246-.1-.513.072-.721.239a63.508,63.508,0,0,0-4.829,4.315,8,8,0,0,0,2.292,2.759A49.635,49.635,0,0,0-116.689,284.382Z" fill="none" stroke="#000" stroke-linecap="round" stroke-linejoin="round" stroke-width="1"/>
    </g>
    <g id="그룹_231" data-name="그룹 231" transform="translate(-318.987 2826.572)">
      <g id="그룹_226" data-name="그룹 226">
        <path id="패스_214" data-name="패스 214" d="M881.978,523.067c-.025.017-.047.039-.072.057-.044.037-.082.081-.124.119l.422-.312c-.05.029-.1.052-.151.084C882.029,523.033,882,523.048,881.978,523.067Z" fill="#f8e5af"/>
        <path id="패스_215" data-name="패스 215" d="M921.63,487.105a1.751,1.751,0,0,0-.932-.029,49.259,49.259,0,0,0-8.713,1.866,38.967,38.967,0,0,0-10.661,6.12,92.549,92.549,0,0,0-8.895,7.689c-4.073,4-7.928,8.484-12.489,11.809l-7.005,5.142c-4.184,2.839-8.971,4.989-13.441,7.417a92.309,92.309,0,0,0-9.955,6.257,38.976,38.976,0,0,0-8.97,8.405,49.347,49.347,0,0,0-4.333,7.786,1.747,1.747,0,0,0-.245.9,1.644,1.644,0,0,0,.379.786,13.435,13.435,0,0,0,5.437,4.281l1.7-1.814a59.194,59.194,0,0,0,11.618,5.966,20.142,20.142,0,0,0,12.847.463,21.232,21.232,0,0,0,5.311-2.835A21.753,21.753,0,0,0,879,551.735c3.61-5.422,3.447-12.551,1.934-18.887a20.6,20.6,0,0,1-.894-5.449,5.918,5.918,0,0,1,1.743-4.156l-.3.222a3.93,3.93,0,0,1,.425-.341c.024-.02.048-.038.072-.057l.075-.052a3.967,3.967,0,0,1,.451-.306l-.3.222a5.919,5.919,0,0,1,4.484-.451,20.561,20.561,0,0,1,4.949,2.449c5.616,3.3,12.386,5.54,18.627,3.674a21.768,21.768,0,0,0,7.007-3.835,21.254,21.254,0,0,0,4.264-4.25,20.14,20.14,0,0,0,3.315-12.42,59.231,59.231,0,0,0-2.307-12.856l2.232-1.093a13.44,13.44,0,0,0-2.505-6.451A1.633,1.633,0,0,0,921.63,487.105Zm-79.118,64.3a.866.866,0,0,1-.188.374,10.024,10.024,0,0,1-1.286,1.422.617.617,0,0,1-.357.2.608.608,0,0,1-.332-.109,9.049,9.049,0,0,1-2.014-1.555,1.566,1.566,0,0,1-.545-.993,1.617,1.617,0,0,1,.215-.722,16.656,16.656,0,0,1,1.133-1.97,14.313,14.313,0,0,1,3.072,2.7A.884.884,0,0,1,842.512,551.4Zm33.4-21.253a24,24,0,0,1,2.532,12.076,15.951,15.951,0,0,1-20.274,14.79,23.477,23.477,0,0,1-13.162-9.053,4.881,4.881,0,0,1-1.252-3.046c.082-1.459,1.312-2.555,2.448-3.475,8.049-6.521,16.6-13.275,26.824-14.942A8.95,8.95,0,0,1,875.91,530.147Zm45.494-19.92a15.953,15.953,0,0,1-20.074,15.062,24,24,0,0,1-10.807-5.954,8.95,8.95,0,0,1-2.647-3.825c4.584-9.289,13.544-15.492,22.134-21.281,1.212-.817,2.62-1.673,4.04-1.325a4.88,4.88,0,0,1,2.546,2.088A23.478,23.478,0,0,1,921.4,510.227Zm.749-20.511a9.052,9.052,0,0,1,.9,2.381.471.471,0,0,1-.286.632,10.028,10.028,0,0,1-1.737.814.843.843,0,0,1-.412.07c-.245-.039-.408-.268-.538-.479a14.309,14.309,0,0,1-1.684-3.728,16.651,16.651,0,0,1,2.216-.507,1.61,1.61,0,0,1,.753.006A1.56,1.56,0,0,1,922.153,489.716Z" fill="#f8e5af"/>
      </g>
      <g id="그룹_227" data-name="그룹 227">
        <path id="패스_216" data-name="패스 216" d="M881.978,523.067c-.025.017-.047.039-.072.057-.044.037-.082.081-.124.119l.422-.312c-.05.029-.1.052-.151.084C882.029,523.033,882,523.048,881.978,523.067Z" fill="#f9dc30"/>
        <path id="패스_217" data-name="패스 217" d="M877.738,520.765c1.72.232,3.711.091,4.816-1.437a6.379,6.379,0,0,0,.639-5.127,12.8,12.8,0,0,0-.6-1.769c-.862.744-1.739,1.464-2.65,2.128l-7.005,5.142-.054.035C874.5,520.064,876.095,520.543,877.738,520.765Z" fill="#f9dc30"/>
      </g>
      <path id="패스_218" data-name="패스 218" d="M839.138,548.045a16.656,16.656,0,0,0-1.133,1.97,1.617,1.617,0,0,0-.215.722,1.571,1.571,0,0,0,.545.994,9.076,9.076,0,0,0,2.014,1.554.608.608,0,0,0,.332.109.617.617,0,0,0,.357-.2,10.024,10.024,0,0,0,1.286-1.422.861.861,0,0,0,.188-.374.881.881,0,0,0-.3-.655A14.313,14.313,0,0,0,839.138,548.045Z" fill="#fff"/>
      <g id="그룹_228" data-name="그룹 228">
        <path id="패스_219" data-name="패스 219" d="M846.2,541.439c-1.136.92-2.366,2.016-2.448,3.475a4.881,4.881,0,0,0,1.252,3.046,23.477,23.477,0,0,0,13.162,9.053,15.951,15.951,0,0,0,20.274-14.79,24,24,0,0,0-2.532-12.076,8.95,8.95,0,0,0-2.884-3.65C862.8,528.164,854.251,534.918,846.2,541.439Z"/>
        <path id="패스_220" data-name="패스 220" d="M914.05,492.9c-1.42-.348-2.828.508-4.04,1.325-8.59,5.789-17.55,11.992-22.134,21.281a8.95,8.95,0,0,0,2.647,3.825,24,24,0,0,0,10.807,5.954A15.953,15.953,0,0,0,921.4,510.227a23.478,23.478,0,0,0-4.808-15.235A4.88,4.88,0,0,0,914.05,492.9Z"/>
      </g>
      <path id="패스_221" data-name="패스 221" d="M918.393,489.406a16.651,16.651,0,0,1,2.216-.507,1.61,1.61,0,0,1,.753.006,1.56,1.56,0,0,1,.791.811,9.052,9.052,0,0,1,.9,2.381.471.471,0,0,1-.286.632,10.028,10.028,0,0,1-1.737.814.843.843,0,0,1-.412.07c-.245-.039-.408-.268-.538-.479A14.309,14.309,0,0,1,918.393,489.406Z" fill="#fff"/>
      <path id="패스_222" data-name="패스 222" d="M873.3,519.659l3.135.8c1.647.419,3.5.814,4.963-.046a4.366,4.366,0,0,0,1.935-3.446,11.476,11.476,0,0,0-.6-4.042" fill="#fff"/>
      <g id="그룹_229" data-name="그룹 229">
        <path id="패스_223" data-name="패스 223" d="M881.978,523.067c-.025.017-.047.039-.072.057-.044.037-.082.081-.124.119l.422-.312c-.05.029-.1.052-.151.084C882.029,523.033,882,523.048,881.978,523.067Z" fill="#f8e5af"/>
        <path id="패스_224" data-name="패스 224" d="M923.067,492.2a.484.484,0,0,1-.009.251.622.622,0,0,1-.294.283,10.028,10.028,0,0,1-1.737.814c-.048.017-.1.031-.147.044-.3.207-.606.413-.9.63q-1.3.946-2.546,1.988a23.073,23.073,0,0,1,3.974,14.022,15.953,15.953,0,0,1-20.074,15.062,24,24,0,0,1-10.807-5.954,8.95,8.95,0,0,1-2.647-3.825c.08-.162.171-.316.254-.476a42.32,42.32,0,0,0-5.184,3.522,3.818,3.818,0,0,1-1.546,1.857,3.554,3.554,0,0,1-.972.376c-2.2,2.132-4.2,4.455-6.208,6.772a9.91,9.91,0,0,1,1.69,2.586,24,24,0,0,1,2.532,12.076,15.951,15.951,0,0,1-20.274,14.79,23.477,23.477,0,0,1-13.162-9.053l-.025-.034c-.114.082-.231.16-.346.243-.959.692-1.889,1.419-2.807,2.163.128.137.259.272.382.413a.884.884,0,0,1,.3.655.866.866,0,0,1-.188.374,10.024,10.024,0,0,1-1.286,1.422.617.617,0,0,1-.357.2.608.608,0,0,1-.332-.109,8.983,8.983,0,0,1-1.109-.745c-.3.269-.6.538-.9.813a13.41,13.41,0,0,0,3.47,2.181l1.7-1.814a59.194,59.194,0,0,0,11.618,5.966,20.142,20.142,0,0,0,12.847.463,21.232,21.232,0,0,0,5.311-2.835A21.753,21.753,0,0,0,879,551.735c3.61-5.422,3.447-12.551,1.934-18.887a20.6,20.6,0,0,1-.894-5.449,5.918,5.918,0,0,1,1.743-4.156l-.3.222a3.93,3.93,0,0,1,.425-.341c.024-.02.048-.038.072-.057l.075-.052a3.967,3.967,0,0,1,.451-.306l-.3.222a5.919,5.919,0,0,1,4.484-.451,20.561,20.561,0,0,1,4.949,2.449c5.616,3.3,12.386,5.54,18.627,3.674a21.768,21.768,0,0,0,7.007-3.835,21.254,21.254,0,0,0,4.264-4.25,20.14,20.14,0,0,0,3.315-12.42,59.231,59.231,0,0,0-2.307-12.856l2.232-1.093a13.341,13.341,0,0,0-.557-2.613C923.831,491.749,923.447,491.97,923.067,492.2Z" fill="#f8e5af"/>
      </g>
      <g id="그룹_230" data-name="그룹 230">
        <path id="패스_225" data-name="패스 225" d="M881.978,523.067c-.025.017-.047.039-.072.057-.044.037-.082.081-.124.119l.422-.312c-.05.029-.1.052-.151.084C882.029,523.033,882,523.048,881.978,523.067Z" fill="#f9dc30"/>
      </g>
      <path id="패스_226" data-name="패스 226" d="M841.828,550.332q-1.321,1.071-2.588,2.208a8.983,8.983,0,0,0,1.109.745.608.608,0,0,0,.332.109.617.617,0,0,0,.357-.2,10.024,10.024,0,0,0,1.286-1.422.866.866,0,0,0,.188-.374.884.884,0,0,0-.3-.655C842.087,550.6,841.956,550.469,841.828,550.332Z" fill="#fff"/>
      <path id="패스_227" data-name="패스 227" d="M920.88,493.587c.049-.013.1-.027.147-.044a10.028,10.028,0,0,0,1.737-.814.622.622,0,0,0,.294-.283.484.484,0,0,0,.009-.251Q921.952,492.854,920.88,493.587Z" fill="#fff"/>
      <path id="패스_228" data-name="패스 228" d="M882.5,522.709a5.513,5.513,0,0,0-2.465,4.69,20.6,20.6,0,0,0,.894,5.449c1.514,6.336,1.676,13.465-1.934,18.887a21.753,21.753,0,0,1-5.717,5.579,21.232,21.232,0,0,1-5.311,2.835,20.142,20.142,0,0,1-12.847-.463,59.18,59.18,0,0,1-11.619-5.967l-1.7,1.815a13.435,13.435,0,0,1-5.437-4.281,1.644,1.644,0,0,1-.379-.786,1.747,1.747,0,0,1,.245-.9,49.347,49.347,0,0,1,4.333-7.786,38.976,38.976,0,0,1,8.97-8.405,92.309,92.309,0,0,1,9.955-6.257c4.47-2.428,9.257-4.578,13.441-7.417l7.005-5.142c4.561-3.325,8.416-7.809,12.489-11.809a92.549,92.549,0,0,1,8.895-7.689,38.967,38.967,0,0,1,10.661-6.12,49.259,49.259,0,0,1,8.713-1.866,1.751,1.751,0,0,1,.932.029,1.633,1.633,0,0,1,.64.593,13.44,13.44,0,0,1,2.505,6.451l-2.232,1.093A59.242,59.242,0,0,1,924.85,508.1a20.14,20.14,0,0,1-3.315,12.42,21.254,21.254,0,0,1-4.264,4.25,21.778,21.778,0,0,1-7.007,3.835c-6.241,1.866-13.011-.374-18.627-3.674a20.561,20.561,0,0,0-4.949-2.449,5.515,5.515,0,0,0-5.207.985" fill="none" stroke="#000" stroke-linecap="round" stroke-linejoin="round" stroke-width="1"/>
      <path id="패스_229" data-name="패스 229" d="M873.026,526.5c-10.223,1.667-18.775,8.421-26.824,14.942-1.136.92-2.366,2.016-2.448,3.475a4.881,4.881,0,0,0,1.252,3.046,23.477,23.477,0,0,0,13.162,9.053,15.951,15.951,0,0,0,20.274-14.79,24,24,0,0,0-2.532-12.076A8.95,8.95,0,0,0,873.026,526.5Z" fill="none" stroke="#000" stroke-linecap="round" stroke-linejoin="round" stroke-width="1"/>
      <path id="패스_230" data-name="패스 230" d="M839.138,548.045a16.656,16.656,0,0,0-1.133,1.97,1.617,1.617,0,0,0-.215.722,1.571,1.571,0,0,0,.545.994,9.076,9.076,0,0,0,2.014,1.554.608.608,0,0,0,.332.109.617.617,0,0,0,.357-.2,10.024,10.024,0,0,0,1.286-1.422.861.861,0,0,0,.188-.374.881.881,0,0,0-.3-.655A14.313,14.313,0,0,0,839.138,548.045Z" fill="none" stroke="#000" stroke-linecap="round" stroke-linejoin="round" stroke-width="1"/>
      <path id="패스_231" data-name="패스 231" d="M851.005,548.989c1.21-4.606,3.979-8.623,6.7-12.534" fill="none" stroke="#000" stroke-linecap="round" stroke-linejoin="round" stroke-width="1"/>
      <path id="패스_232" data-name="패스 232" d="M855.84,551.265a87.262,87.262,0,0,1,8.951-18.6" fill="none" stroke="#000" stroke-linecap="round" stroke-linejoin="round" stroke-width="1"/>
      <path id="패스_233" data-name="패스 233" d="M873.588,531.416q-3.52,8.122-7.039,16.245" fill="none" stroke="#000" stroke-linecap="round" stroke-linejoin="round" stroke-width="1"/>
      <path id="패스_234" data-name="패스 234" d="M887.876,515.51c4.584-9.289,13.544-15.492,22.134-21.281,1.212-.817,2.62-1.673,4.04-1.325a4.88,4.88,0,0,1,2.546,2.088,23.478,23.478,0,0,1,4.808,15.235,15.953,15.953,0,0,1-20.074,15.062,24,24,0,0,1-10.807-5.954A8.95,8.95,0,0,1,887.876,515.51Z" fill="none" stroke="#000" stroke-linecap="round" stroke-linejoin="round" stroke-width="1"/>
      <path id="패스_235" data-name="패스 235" d="M918.393,489.406a16.651,16.651,0,0,1,2.216-.507,1.61,1.61,0,0,1,.753.006,1.56,1.56,0,0,1,.791.811,9.052,9.052,0,0,1,.9,2.381.471.471,0,0,1-.286.632,10.028,10.028,0,0,1-1.737.814.843.843,0,0,1-.412.07c-.245-.039-.408-.268-.538-.479A14.309,14.309,0,0,1,918.393,489.406Z" fill="none" stroke="#000" stroke-linecap="round" stroke-linejoin="round" stroke-width="1"/>
      <path id="패스_236" data-name="패스 236" d="M915.826,501.03c-4.76-.19-9.41,1.283-13.945,2.739" fill="none" stroke="#000" stroke-linecap="round" stroke-linejoin="round" stroke-width="1"/>
      <path id="패스_237" data-name="패스 237" d="M916.588,506.32a87.247,87.247,0,0,0-20.406,3.118" fill="none" stroke="#000" stroke-linecap="round" stroke-linejoin="round" stroke-width="1"/>
      <path id="패스_238" data-name="패스 238" d="M892.416,517.485l17.593-1.979" fill="none" stroke="#000" stroke-linecap="round" stroke-linejoin="round" stroke-width="1"/>
      <path id="패스_239" data-name="패스 239" d="M873.3,519.659l3.135.8c1.647.419,3.5.814,4.963-.046a4.366,4.366,0,0,0,1.935-3.446,11.476,11.476,0,0,0-.6-4.042" fill="none" stroke="#000" stroke-linecap="round" stroke-linejoin="round" stroke-width="1"/>
    </g>
    <g id="그룹_235" data-name="그룹 235" transform="translate(706.991 3016.06) rotate(13)">
      <g id="그룹_232" data-name="그룹 232">
        <path id="패스_240" data-name="패스 240" d="M256.659,458.53c-2.592-1.212-4.1-3.951-5.071-6.643a31.815,31.815,0,0,1,10.889-36.243,28.885,28.885,0,0,1,.191,38.984A12.3,12.3,0,0,1,256.659,458.53Z" fill="#84a848"/>
        <path id="패스_241" data-name="패스 241" d="M270.141,435.1a29.12,29.12,0,0,0-3.236-13.092c-.491.4-.978.817-1.448,1.253-3.1,2.881-4.65,7.073-5.894,11.021a91.66,91.66,0,0,0-2.946,13.268,34.535,34.535,0,0,0-.586,6.495,38,38,0,0,0,.623,4.483l.005,0a12.3,12.3,0,0,0,6.009-3.9A29.2,29.2,0,0,0,270.141,435.1Z" fill="#f9dc30" opacity="0.5" style="mix-blend-mode: multiply;isolation: isolate"/>
        <path id="패스_242" data-name="패스 242" d="M256.659,458.53c-2.592-1.212-4.1-3.951-5.071-6.643a31.815,31.815,0,0,1,10.889-36.243,28.885,28.885,0,0,1,.191,38.984A12.3,12.3,0,0,1,256.659,458.53Z" fill="none" stroke="#000" stroke-linecap="round" stroke-linejoin="round" stroke-width="1"/>
        <path id="패스_243" data-name="패스 243" d="M256.659,458.53c-1.707-10.539.884-21.7,5.556-31.3" fill="none" stroke="#000" stroke-linecap="round" stroke-linejoin="round" stroke-width="1"/>
      </g>
      <g id="그룹_233" data-name="그룹 233">
        <path id="패스_244" data-name="패스 244" d="M258.077,475.283c-.35,2.84-2.487,5.124-4.749,6.877a31.817,31.817,0,0,1-37.833.852,28.884,28.884,0,0,1,37.014-12.236A12.28,12.28,0,0,1,258.077,475.283Z" fill="#84a848"/>
        <path id="패스_245" data-name="패스 245" d="M231.626,469.708a29.121,29.121,0,0,0-11.449,7.125c.537.343,1.079.678,1.639.99,3.7,2.056,8.165,2.235,12.3,2.2a91.5,91.5,0,0,0,13.528-1.3,34.448,34.448,0,0,0,6.357-1.45,37.86,37.86,0,0,0,4.071-1.98v-.005a12.28,12.28,0,0,0-5.568-4.507A29.193,29.193,0,0,0,231.626,469.708Z" fill="#f9dc30" opacity="0.5" style="mix-blend-mode: multiply;isolation: isolate"/>
        <path id="패스_246" data-name="패스 246" d="M258.077,475.283c-.35,2.84-2.487,5.124-4.749,6.877a31.817,31.817,0,0,1-37.833.852,28.884,28.884,0,0,1,37.014-12.236A12.28,12.28,0,0,1,258.077,475.283Z" fill="none" stroke="#000" stroke-linecap="round" stroke-linejoin="round" stroke-width="1"/>
        <path id="패스_247" data-name="패스 247" d="M258.077,475.283c-9.494,4.882-20.906,5.869-31.48,4.4" fill="none" stroke="#000" stroke-linecap="round" stroke-linejoin="round" stroke-width="1"/>
      </g>
      <g id="그룹_234" data-name="그룹 234">
        <path id="패스_248" data-name="패스 248" d="M264.542,435.22a5.952,5.952,0,0,0-4.315,1.2,15.649,15.649,0,0,0-6.821-1.093q-2.16,0-4.32.067c-1.155.036-2.537-.03-3.137-1.018-2.791,3.985-8.972,4.505-11.558,8.626-1.2,1.914-1.391,4.27-1.549,6.524h.168a3.905,3.905,0,0,1-2.158,1.027c-1.569.154-3.446-.843-4.566.266,1.075,1.233.795,3.1.457,4.7-.822,3.9-1.6,8-.411,11.8a11.977,11.977,0,0,0,5.075,6.532,11.629,11.629,0,0,0,1.294.679l-.522.207c-.166,2.567.6,5.419,2.758,6.82,2.345,1.523,5.67.948,7.877,2.664a1.706,1.706,0,0,0,1.077.537,1.6,1.6,0,0,0,.7-.317,6.874,6.874,0,0,1,4.9-.954c3.385.628,6.308,3.783,9.681,3.09,2.309-.474,3.786-2.571,4.933-4.7l-.185,1a5.137,5.137,0,0,0,4.614-.93,28.153,28.153,0,0,0,3.509-3.408,4.148,4.148,0,0,1,3.138-1.583,18.539,18.539,0,0,1,1.182-5.789c.814-2.15,2.044-4.21,2.193-6.505a9.029,9.029,0,0,0-.4-3.138,11.932,11.932,0,0,0-1.813-3.6,4.136,4.136,0,0,0,.233-.566c1.108-2.653.477-5.689-.309-8.457s-1.728-5.667-1.155-8.5C271.166,439.966,268.482,435.7,264.542,435.22Z" fill="#d993b0"/>
        <path id="패스_249" data-name="패스 249" d="M264.542,435.22a5.8,5.8,0,0,0-1.821.074c.148.134.3.268.44.407a13.913,13.913,0,0,1,3.142,4.882c1.377,3.34,1.966,6.965.553,10.385-.945,2.288-3.221,4.835-2.717,7.468.274,1.434.945,2.8,1.346,4.2a11.046,11.046,0,0,1,.421,4.264c-.646,5.984-7.157,11.979-13,7.866-1.346-.948-2.376-2.013-4.132-1.878a39.859,39.859,0,0,0-4.349.968,10.436,10.436,0,0,1-9.021-2.769,20.506,20.506,0,0,1-5.565-8.892c-.65-1.954-1.124-3.967-1.65-5.957a14.66,14.66,0,0,0-1.169-3.439,10.1,10.1,0,0,1-.281,2.714c-.822,3.9-1.6,8-.411,11.8a11.977,11.977,0,0,0,5.075,6.532,11.629,11.629,0,0,0,1.294.679l-.522.207c-.166,2.567.6,5.419,2.758,6.82,2.345,1.523,5.67.948,7.877,2.664a1.706,1.706,0,0,0,1.077.537,1.6,1.6,0,0,0,.7-.317,6.874,6.874,0,0,1,4.9-.954c3.385.628,6.308,3.783,9.681,3.09,2.309-.474,3.786-2.571,4.933-4.7l-.185,1a5.137,5.137,0,0,0,4.614-.93,28.153,28.153,0,0,0,3.509-3.408,4.148,4.148,0,0,1,3.138-1.583,18.539,18.539,0,0,1,1.182-5.789c.814-2.15,2.044-4.21,2.193-6.505a9.029,9.029,0,0,0-.4-3.138,11.932,11.932,0,0,0-1.813-3.6,4.136,4.136,0,0,0,.233-.566c1.108-2.653.477-5.689-.309-8.457s-1.728-5.667-1.155-8.5C271.166,439.966,268.482,435.7,264.542,435.22Z" fill="#d57b75" opacity="0.3" style="mix-blend-mode: multiply;isolation: isolate"/>
        <path id="패스_250" data-name="패스 250" d="M250.021,463.848c-.876.986-1.812,2.152-1.642,3.459a2.375,2.375,0,0,0,2.805,1.927,2.305,2.305,0,0,0,1.49-3.028,3.64,3.64,0,0,0-1.327-1.423A14.777,14.777,0,0,1,250.021,463.848Z" fill="none" stroke="#000" stroke-linecap="round" stroke-linejoin="round" stroke-width="1"/>
        <path id="패스_251" data-name="패스 251" d="M248.292,466.274a4.039,4.039,0,0,1-2.058-2.18,3.27,3.27,0,0,1,.317-2.941,4.349,4.349,0,0,1,1.688-1.351,5.137,5.137,0,0,1,2.268-.6,4.126,4.126,0,0,1,3.792,2.994,4.961,4.961,0,0,1-1.357,4.753,2.99,2.99,0,0,0,2.476-1.452,6.617,6.617,0,0,0,.43-6.868,5.58,5.58,0,0,0-1.913-2.081,6.335,6.335,0,0,0-6.05-.008,6.712,6.712,0,0,0-3.754,4.7,4.662,4.662,0,0,0,2.705,5.081A1.478,1.478,0,0,0,248.292,466.274Z" fill="none" stroke="#000" stroke-linecap="round" stroke-linejoin="round" stroke-width="1"/>
        <path id="패스_252" data-name="패스 252" d="M248.013,466.785a4.929,4.929,0,0,0,6.306,6.806,16.63,16.63,0,0,0,2.463-1.542A12.209,12.209,0,0,1,261,470.317a6.149,6.149,0,0,1-.454-3.7,29.449,29.449,0,0,0,.463-3.753,9.283,9.283,0,0,0-.57-3.045,6.486,6.486,0,0,0-2.178-3.194,5.24,5.24,0,0,0-4.092-.667,6.238,6.238,0,0,0-5.247-4.542,6.645,6.645,0,0,0-6.259,3.122c-.837,1.379-1.157,3.018-1.962,4.415-.651,1.129-1.652,2.3-1.294,3.557.251.879,1.1,1.424,1.78,2.03.983.871,1.714,1.988,2.606,2.951a5.143,5.143,0,0,0,3.353,1.873C247.275,469.374,247.428,469.2,248.013,466.785Z" fill="none" stroke="#000" stroke-linecap="round" stroke-linejoin="round" stroke-width="1"/>
        <path id="패스_253" data-name="패스 253" d="M251.427,451.739q-.165-2.331-.329-4.663a1.165,1.165,0,0,0-.148-.59,1.068,1.068,0,0,0-.444-.326,9.2,9.2,0,0,0-6.36-.159,8.34,8.34,0,0,0-4.231,2.389c-.761.9-1.21,2.022-1.956,2.93a8.4,8.4,0,0,1-4.478,2.545,1.081,1.081,0,0,0-.534.244c-.346.36-.044.939.2,1.373,1.22,2.145.705,4.821,1.124,7.253a9.929,9.929,0,0,0,3.207,5.68,11.055,11.055,0,0,0,5.988,2.648,16.915,16.915,0,0,0,4.24-.109" fill="none" stroke="#000" stroke-linecap="round" stroke-linejoin="round" stroke-width="1"/>
        <path id="패스_254" data-name="패스 254" d="M251.489,447.948a6.188,6.188,0,0,1,5.275-1.58,3,3,0,0,0,1.094,3.28,16.675,16.675,0,0,0,3.239,1.78,12.264,12.264,0,0,1,2.724,1.928,5.353,5.353,0,0,1,1.975,4.685,12.331,12.331,0,0,1-4.682,9.2" fill="none" stroke="#000" stroke-linecap="round" stroke-linejoin="round" stroke-width="1"/>
        <path id="패스_255" data-name="패스 255" d="M235.278,465.643a7.9,7.9,0,0,0,4.727,9.428,34.8,34.8,0,0,0,3.459.938,6.04,6.04,0,0,1,3.079,1.73c2.252-.664,4.658-.128,6.969.29s4.828.682,6.891-.438a9.16,9.16,0,0,0,2.268-1.883,13.718,13.718,0,0,0,1.84-2.394,9.811,9.811,0,0,0-.1-9.87" fill="none" stroke="#000" stroke-linecap="round" stroke-linejoin="round" stroke-width="1"/>
        <path id="패스_256" data-name="패스 256" d="M244.064,445.211a2.864,2.864,0,0,0-2.61-1.586,5.964,5.964,0,0,0-3.045.954,13.469,13.469,0,0,0-3.2,2.588c-1.268,1.4-2.476,3.2-4.353,3.381-1.569.154-3.446-.843-4.566.266,1.075,1.233.795,3.1.457,4.7-.822,3.9-1.6,8-.411,11.8a11.856,11.856,0,0,0,13.187,8.157" fill="none" stroke="#000" stroke-linecap="round" stroke-linejoin="round" stroke-width="1"/>
        <path id="패스_257" data-name="패스 257" d="M232.179,474.735c-.166,2.567.6,5.418,2.758,6.82,2.345,1.523,5.67.948,7.877,2.664a1.706,1.706,0,0,0,1.077.537,1.6,1.6,0,0,0,.7-.317,6.879,6.879,0,0,1,4.9-.954c3.385.628,6.308,3.783,9.681,3.09,2.659-.546,4.215-3.243,5.433-5.668l2.114-4.21a11.475,11.475,0,0,1,3.242-4.465c-.619-3.923-1.45-8.223-4.562-10.689" fill="none" stroke="#000" stroke-linecap="round" stroke-linejoin="round" stroke-width="1"/>
        <path id="패스_258" data-name="패스 258" d="M241.163,443.477a11.218,11.218,0,0,1,9.571-2.436c1.588.346,3.079,1.037,4.637,1.5a16.768,16.768,0,0,0,8.988.147c-.65,2,.147,4.2,1.295,5.96s2.651,3.288,3.65,5.139a11.342,11.342,0,0,1-.914,11.95" fill="none" stroke="#000" stroke-linecap="round" stroke-linejoin="round" stroke-width="1"/>
        <path id="패스_259" data-name="패스 259" d="M263.92,482.869a5.136,5.136,0,0,0,4.614-.93,28.222,28.222,0,0,0,3.509-3.408,4.148,4.148,0,0,1,3.138-1.583,18.539,18.539,0,0,1,1.182-5.789c.814-2.15,2.044-4.21,2.193-6.5a9.035,9.035,0,0,0-.4-3.139,12.456,12.456,0,0,0-8.733-8.37" fill="none" stroke="#000" stroke-linecap="round" stroke-linejoin="round" stroke-width="1"/>
        <path id="패스_260" data-name="패스 260" d="M232.842,449.522c.158-2.254.348-4.61,1.549-6.524,2.586-4.121,8.767-4.641,11.558-8.626.6.988,1.982,1.054,3.137,1.019q2.16-.066,4.32-.068c2.542,0,5.212.1,7.4,1.389a11.853,11.853,0,0,1,4.031,4.521c1.152,1.294,1.259,3.182,1.307,4.914q.042,1.5.084,3" fill="none" stroke="#000" stroke-linecap="round" stroke-linejoin="round" stroke-width="1"/>
        <path id="패스_261" data-name="패스 261" d="M260.555,436.574a5.065,5.065,0,0,1,3.987-1.354c3.94.482,6.624,4.746,10.569,5.179-.573,2.832.366,5.72,1.155,8.5s1.424,5.829.3,8.489" fill="none" stroke="#000" stroke-linecap="round" stroke-linejoin="round" stroke-width="1"/>
        <path id="패스_262" data-name="패스 262" d="M248.325,465.4a19.979,19.979,0,0,1-.06-2.459.823.823,0,0,1,.091-.417,1.074,1.074,0,0,1,.354-.288,6.714,6.714,0,0,1,1.1-.794,1.915,1.915,0,0,1,1.593.229,3.928,3.928,0,0,1,1.806,4.372" fill="none" stroke="#000" stroke-linecap="round" stroke-linejoin="round" stroke-width="1"/>
      </g>
    </g>
    <g id="그룹_239" data-name="그룹 239" transform="matrix(-0.087, 0.996, -0.996, -0.087, 842.585, 3067.915)">
      <g id="그룹_236" data-name="그룹 236">
        <path id="패스_263" data-name="패스 263" d="M256.659,458.53c-2.592-1.212-4.1-3.951-5.071-6.643a31.815,31.815,0,0,1,10.889-36.243,28.885,28.885,0,0,1,.191,38.984A12.3,12.3,0,0,1,256.659,458.53Z" fill="#84a848"/>
        <path id="패스_264" data-name="패스 264" d="M270.141,435.1a29.12,29.12,0,0,0-3.236-13.092c-.491.4-.978.817-1.448,1.253-3.1,2.881-4.65,7.073-5.894,11.021a91.66,91.66,0,0,0-2.946,13.268,34.535,34.535,0,0,0-.586,6.495,38,38,0,0,0,.623,4.483l.005,0a12.3,12.3,0,0,0,6.009-3.9A29.2,29.2,0,0,0,270.141,435.1Z" fill="#f9dc30" opacity="0.5" style="mix-blend-mode: multiply;isolation: isolate"/>
        <path id="패스_265" data-name="패스 265" d="M256.659,458.53c-2.592-1.212-4.1-3.951-5.071-6.643a31.815,31.815,0,0,1,10.889-36.243,28.885,28.885,0,0,1,.191,38.984A12.3,12.3,0,0,1,256.659,458.53Z" fill="none" stroke="#000" stroke-linecap="round" stroke-linejoin="round" stroke-width="1"/>
        <path id="패스_266" data-name="패스 266" d="M256.659,458.53c-1.707-10.539.884-21.7,5.556-31.3" fill="none" stroke="#000" stroke-linecap="round" stroke-linejoin="round" stroke-width="1"/>
      </g>
      <g id="그룹_237" data-name="그룹 237">
        <path id="패스_267" data-name="패스 267" d="M258.077,475.283c-.35,2.84-2.487,5.124-4.749,6.877a31.817,31.817,0,0,1-37.833.852,28.884,28.884,0,0,1,37.014-12.236A12.28,12.28,0,0,1,258.077,475.283Z" fill="#84a848"/>
        <path id="패스_268" data-name="패스 268" d="M231.626,469.708a29.121,29.121,0,0,0-11.449,7.125c.537.343,1.079.678,1.639.99,3.7,2.056,8.165,2.235,12.3,2.2a91.5,91.5,0,0,0,13.528-1.3,34.448,34.448,0,0,0,6.357-1.45,37.86,37.86,0,0,0,4.071-1.98v-.005a12.28,12.28,0,0,0-5.568-4.507A29.193,29.193,0,0,0,231.626,469.708Z" fill="#f9dc30" opacity="0.5" style="mix-blend-mode: multiply;isolation: isolate"/>
        <path id="패스_269" data-name="패스 269" d="M258.077,475.283c-.35,2.84-2.487,5.124-4.749,6.877a31.817,31.817,0,0,1-37.833.852,28.884,28.884,0,0,1,37.014-12.236A12.28,12.28,0,0,1,258.077,475.283Z" fill="none" stroke="#000" stroke-linecap="round" stroke-linejoin="round" stroke-width="1"/>
        <path id="패스_270" data-name="패스 270" d="M258.077,475.283c-9.494,4.882-20.906,5.869-31.48,4.4" fill="none" stroke="#000" stroke-linecap="round" stroke-linejoin="round" stroke-width="1"/>
      </g>
      <g id="그룹_238" data-name="그룹 238">
        <path id="패스_271" data-name="패스 271" d="M264.542,435.22a5.952,5.952,0,0,0-4.315,1.2,15.649,15.649,0,0,0-6.821-1.093q-2.16,0-4.32.067c-1.155.036-2.537-.03-3.137-1.018-2.791,3.985-8.972,4.505-11.558,8.626-1.2,1.914-1.391,4.27-1.549,6.524h.168a3.905,3.905,0,0,1-2.158,1.027c-1.569.154-3.446-.843-4.566.266,1.075,1.233.795,3.1.457,4.7-.822,3.9-1.6,8-.411,11.8a11.977,11.977,0,0,0,5.075,6.532,11.629,11.629,0,0,0,1.294.679l-.522.207c-.166,2.567.6,5.419,2.758,6.82,2.345,1.523,5.67.948,7.877,2.664a1.706,1.706,0,0,0,1.077.537,1.6,1.6,0,0,0,.7-.317,6.874,6.874,0,0,1,4.9-.954c3.385.628,6.308,3.783,9.681,3.09,2.309-.474,3.786-2.571,4.933-4.7l-.185,1a5.137,5.137,0,0,0,4.614-.93,28.153,28.153,0,0,0,3.509-3.408,4.148,4.148,0,0,1,3.138-1.583,18.539,18.539,0,0,1,1.182-5.789c.814-2.15,2.044-4.21,2.193-6.505a9.029,9.029,0,0,0-.4-3.138,11.932,11.932,0,0,0-1.813-3.6,4.136,4.136,0,0,0,.233-.566c1.108-2.653.477-5.689-.309-8.457s-1.728-5.667-1.155-8.5C271.166,439.966,268.482,435.7,264.542,435.22Z" fill="#d993b0"/>
        <path id="패스_272" data-name="패스 272" d="M264.542,435.22a5.8,5.8,0,0,0-1.821.074c.148.134.3.268.44.407a13.913,13.913,0,0,1,3.142,4.882c1.377,3.34,1.966,6.965.553,10.385-.945,2.288-3.221,4.835-2.717,7.468.274,1.434.945,2.8,1.346,4.2a11.046,11.046,0,0,1,.421,4.264c-.646,5.984-7.157,11.979-13,7.866-1.346-.948-2.376-2.013-4.132-1.878a39.859,39.859,0,0,0-4.349.968,10.436,10.436,0,0,1-9.021-2.769,20.506,20.506,0,0,1-5.565-8.892c-.65-1.954-1.124-3.967-1.65-5.957a14.66,14.66,0,0,0-1.169-3.439,10.1,10.1,0,0,1-.281,2.714c-.822,3.9-1.6,8-.411,11.8a11.977,11.977,0,0,0,5.075,6.532,11.629,11.629,0,0,0,1.294.679l-.522.207c-.166,2.567.6,5.419,2.758,6.82,2.345,1.523,5.67.948,7.877,2.664a1.706,1.706,0,0,0,1.077.537,1.6,1.6,0,0,0,.7-.317,6.874,6.874,0,0,1,4.9-.954c3.385.628,6.308,3.783,9.681,3.09,2.309-.474,3.786-2.571,4.933-4.7l-.185,1a5.137,5.137,0,0,0,4.614-.93,28.153,28.153,0,0,0,3.509-3.408,4.148,4.148,0,0,1,3.138-1.583,18.539,18.539,0,0,1,1.182-5.789c.814-2.15,2.044-4.21,2.193-6.505a9.029,9.029,0,0,0-.4-3.138,11.932,11.932,0,0,0-1.813-3.6,4.136,4.136,0,0,0,.233-.566c1.108-2.653.477-5.689-.309-8.457s-1.728-5.667-1.155-8.5C271.166,439.966,268.482,435.7,264.542,435.22Z" fill="#d57b75" opacity="0.3" style="mix-blend-mode: multiply;isolation: isolate"/>
        <path id="패스_273" data-name="패스 273" d="M250.021,463.848c-.876.986-1.812,2.152-1.642,3.459a2.375,2.375,0,0,0,2.805,1.927,2.305,2.305,0,0,0,1.49-3.028,3.64,3.64,0,0,0-1.327-1.423A14.777,14.777,0,0,1,250.021,463.848Z" fill="none" stroke="#000" stroke-linecap="round" stroke-linejoin="round" stroke-width="1"/>
        <path id="패스_274" data-name="패스 274" d="M248.292,466.274a4.039,4.039,0,0,1-2.058-2.18,3.27,3.27,0,0,1,.317-2.941,4.349,4.349,0,0,1,1.688-1.351,5.137,5.137,0,0,1,2.268-.6,4.126,4.126,0,0,1,3.792,2.994,4.961,4.961,0,0,1-1.357,4.753,2.99,2.99,0,0,0,2.476-1.452,6.617,6.617,0,0,0,.43-6.868,5.58,5.58,0,0,0-1.913-2.081,6.335,6.335,0,0,0-6.05-.008,6.712,6.712,0,0,0-3.754,4.7,4.662,4.662,0,0,0,2.705,5.081A1.478,1.478,0,0,0,248.292,466.274Z" fill="none" stroke="#000" stroke-linecap="round" stroke-linejoin="round" stroke-width="1"/>
        <path id="패스_275" data-name="패스 275" d="M248.013,466.785a4.929,4.929,0,0,0,6.306,6.806,16.63,16.63,0,0,0,2.463-1.542A12.209,12.209,0,0,1,261,470.317a6.149,6.149,0,0,1-.454-3.7,29.449,29.449,0,0,0,.463-3.753,9.283,9.283,0,0,0-.57-3.045,6.486,6.486,0,0,0-2.178-3.194,5.24,5.24,0,0,0-4.092-.667,6.238,6.238,0,0,0-5.247-4.542,6.645,6.645,0,0,0-6.259,3.122c-.837,1.379-1.157,3.018-1.962,4.415-.651,1.129-1.652,2.3-1.294,3.557.251.879,1.1,1.424,1.78,2.03.983.871,1.714,1.988,2.606,2.951a5.143,5.143,0,0,0,3.353,1.873C247.275,469.374,247.428,469.2,248.013,466.785Z" fill="none" stroke="#000" stroke-linecap="round" stroke-linejoin="round" stroke-width="1"/>
        <path id="패스_276" data-name="패스 276" d="M251.427,451.739q-.165-2.331-.329-4.663a1.165,1.165,0,0,0-.148-.59,1.068,1.068,0,0,0-.444-.326,9.2,9.2,0,0,0-6.36-.159,8.34,8.34,0,0,0-4.231,2.389c-.761.9-1.21,2.022-1.956,2.93a8.4,8.4,0,0,1-4.478,2.545,1.081,1.081,0,0,0-.534.244c-.346.36-.044.939.2,1.373,1.22,2.145.705,4.821,1.124,7.253a9.929,9.929,0,0,0,3.207,5.68,11.055,11.055,0,0,0,5.988,2.648,16.915,16.915,0,0,0,4.24-.109" fill="none" stroke="#000" stroke-linecap="round" stroke-linejoin="round" stroke-width="1"/>
        <path id="패스_277" data-name="패스 277" d="M251.489,447.948a6.188,6.188,0,0,1,5.275-1.58,3,3,0,0,0,1.094,3.28,16.675,16.675,0,0,0,3.239,1.78,12.264,12.264,0,0,1,2.724,1.928,5.353,5.353,0,0,1,1.975,4.685,12.331,12.331,0,0,1-4.682,9.2" fill="none" stroke="#000" stroke-linecap="round" stroke-linejoin="round" stroke-width="1"/>
        <path id="패스_278" data-name="패스 278" d="M235.278,465.643a7.9,7.9,0,0,0,4.727,9.428,34.8,34.8,0,0,0,3.459.938,6.04,6.04,0,0,1,3.079,1.73c2.252-.664,4.658-.128,6.969.29s4.828.682,6.891-.438a9.16,9.16,0,0,0,2.268-1.883,13.718,13.718,0,0,0,1.84-2.394,9.811,9.811,0,0,0-.1-9.87" fill="none" stroke="#000" stroke-linecap="round" stroke-linejoin="round" stroke-width="1"/>
        <path id="패스_279" data-name="패스 279" d="M244.064,445.211a2.864,2.864,0,0,0-2.61-1.586,5.964,5.964,0,0,0-3.045.954,13.469,13.469,0,0,0-3.2,2.588c-1.268,1.4-2.476,3.2-4.353,3.381-1.569.154-3.446-.843-4.566.266,1.075,1.233.795,3.1.457,4.7-.822,3.9-1.6,8-.411,11.8a11.856,11.856,0,0,0,13.187,8.157" fill="none" stroke="#000" stroke-linecap="round" stroke-linejoin="round" stroke-width="1"/>
        <path id="패스_280" data-name="패스 280" d="M232.179,474.735c-.166,2.567.6,5.418,2.758,6.82,2.345,1.523,5.67.948,7.877,2.664a1.706,1.706,0,0,0,1.077.537,1.6,1.6,0,0,0,.7-.317,6.879,6.879,0,0,1,4.9-.954c3.385.628,6.308,3.783,9.681,3.09,2.659-.546,4.215-3.243,5.433-5.668l2.114-4.21a11.475,11.475,0,0,1,3.242-4.465c-.619-3.923-1.45-8.223-4.562-10.689" fill="none" stroke="#000" stroke-linecap="round" stroke-linejoin="round" stroke-width="1"/>
        <path id="패스_281" data-name="패스 281" d="M241.163,443.477a11.218,11.218,0,0,1,9.571-2.436c1.588.346,3.079,1.037,4.637,1.5a16.768,16.768,0,0,0,8.988.147c-.65,2,.147,4.2,1.295,5.96s2.651,3.288,3.65,5.139a11.342,11.342,0,0,1-.914,11.95" fill="none" stroke="#000" stroke-linecap="round" stroke-linejoin="round" stroke-width="1"/>
        <path id="패스_282" data-name="패스 282" d="M263.92,482.869a5.136,5.136,0,0,0,4.614-.93,28.222,28.222,0,0,0,3.509-3.408,4.148,4.148,0,0,1,3.138-1.583,18.539,18.539,0,0,1,1.182-5.789c.814-2.15,2.044-4.21,2.193-6.5a9.035,9.035,0,0,0-.4-3.139,12.456,12.456,0,0,0-8.733-8.37" fill="none" stroke="#000" stroke-linecap="round" stroke-linejoin="round" stroke-width="1"/>
        <path id="패스_283" data-name="패스 283" d="M232.842,449.522c.158-2.254.348-4.61,1.549-6.524,2.586-4.121,8.767-4.641,11.558-8.626.6.988,1.982,1.054,3.137,1.019q2.16-.066,4.32-.068c2.542,0,5.212.1,7.4,1.389a11.853,11.853,0,0,1,4.031,4.521c1.152,1.294,1.259,3.182,1.307,4.914q.042,1.5.084,3" fill="none" stroke="#000" stroke-linecap="round" stroke-linejoin="round" stroke-width="1"/>
        <path id="패스_284" data-name="패스 284" d="M260.555,436.574a5.065,5.065,0,0,1,3.987-1.354c3.94.482,6.624,4.746,10.569,5.179-.573,2.832.366,5.72,1.155,8.5s1.424,5.829.3,8.489" fill="none" stroke="#000" stroke-linecap="round" stroke-linejoin="round" stroke-width="1"/>
        <path id="패스_285" data-name="패스 285" d="M248.325,465.4a19.979,19.979,0,0,1-.06-2.459.823.823,0,0,1,.091-.417,1.074,1.074,0,0,1,.354-.288,6.714,6.714,0,0,1,1.1-.794,1.915,1.915,0,0,1,1.593.229,3.928,3.928,0,0,1,1.806,4.372" fill="none" stroke="#000" stroke-linecap="round" stroke-linejoin="round" stroke-width="1"/>
      </g>
    </g>
  </g>
</svg>
