<svg xmlns="http://www.w3.org/2000/svg" width="264.089" height="117.704" viewBox="0 0 264.089 117.704">
  <g id="그룹_401" data-name="그룹 401" transform="translate(-552 -2351.02)">
    <g id="그룹_305" data-name="그룹 305" transform="translate(-3715.937 -1264.899)">
      <g id="그룹_292" data-name="그룹 292" transform="translate(4267.937 3626.899)">
        <g id="그룹_281" data-name="그룹 281" transform="translate(0 0)">
          <path id="패스_334" data-name="패스 334" d="M4361.611,3627.276a1.168,1.168,0,0,0-1.734.017c-3.3,3.726-15.378,17.672-21.148,28.573-.833,1.573-6.941,13.193-9.676,17.871-4.071,6.963-7.757,11.2-12.523,12.73,0,0-14.568-2.036-21.085-8.485a2.645,2.645,0,0,0-2.348-.721l-24.058,4.5a1.288,1.288,0,0,0-1.028,1.025h0a4.127,4.127,0,0,0,2.434,4.569c5.451,2.322,17.2,7.031,26.936,8.885l15.926,3.033a16.276,16.276,0,0,0,9.568-1.028,8.6,8.6,0,0,0,4.425-3.659c.157-.316.313-.634.483-.943a223.233,223.233,0,0,1,13.046-20.812c.454-.628,5.293-8.793,11.809-10.634a5.29,5.29,0,0,1,5.549,1.8c1.383,1.723-6.139,42.657-6.121,42.66l3.017.574,7.1-37.257a22.484,22.484,0,0,1,1.9-5.7l3.649-7.437S4374.893,3641.756,4361.611,3627.276Z" transform="translate(-4267.937 -3626.899)" fill="#e6ab8e"/>
        </g>
        <g id="그룹_282" data-name="그룹 282" transform="translate(28.684 0)">
          <path id="패스_335" data-name="패스 335" d="M4567.926,3687.045c4.767-1.533,8.453-5.767,12.524-12.73,2.734-4.677,8.843-16.3,9.675-17.871,5.77-10.9,17.848-24.847,21.148-28.573a1.17,1.17,0,0,1,1.32-.306c-.086-.1-.173-.193-.262-.289a1.168,1.168,0,0,0-1.734.017c-3.3,3.726-15.378,17.672-21.147,28.573-.833,1.573-6.941,13.193-9.676,17.871-4.071,6.963-7.757,11.2-12.523,12.73,0,0-12.971-1.814-19.909-7.437C4554.073,3685.108,4567.926,3687.045,4567.926,3687.045Z" transform="translate(-4547.342 -3626.899)" fill="#ebbdaa"/>
        </g>
        <g id="그룹_283" data-name="그룹 283" transform="translate(0 50.317)">
          <path id="패스_336" data-name="패스 336" d="M4268.687,4123.179h0a1.288,1.288,0,0,1,1.028-1.025l24.059-4.5a2.64,2.64,0,0,1,1.911.374c-.08-.077-.161-.153-.239-.23a2.644,2.644,0,0,0-2.347-.722l-24.059,4.5a1.288,1.288,0,0,0-1.028,1.025h0a4.127,4.127,0,0,0,1.726,4.18A4.127,4.127,0,0,1,4268.687,4123.179Z" transform="translate(-4267.938 -4117.027)" fill="#ebbdaa"/>
        </g>
        <g id="그룹_284" data-name="그룹 284" transform="translate(84.13 36.688)">
          <path id="패스_337" data-name="패스 337" d="M5094.229,3985.26a5.336,5.336,0,0,0-1.044-.99,5.389,5.389,0,0,1,.368.412c1.384,1.724-6.139,42.657-6.12,42.66l.752.143C5088.968,4023.1,5095.528,3986.879,5094.229,3985.26Z" transform="translate(-5087.433 -3984.27)" fill="#d39c8c"/>
        </g>
        <g id="그룹_285" data-name="그룹 285" transform="translate(0.253 33.854)">
          <path id="패스_338" data-name="패스 338" d="M4359.672,3958.659a5.29,5.29,0,0,0-5.549-1.8c-6.516,1.841-11.355,10.006-11.809,10.634a223.151,223.151,0,0,0-13.046,20.812c-.171.309-.326.627-.483.943a8.6,8.6,0,0,1-4.425,3.659,16.275,16.275,0,0,1-9.568,1.028l-15.926-3.033c-9.733-1.854-21.485-6.562-26.935-8.885a4.108,4.108,0,0,1-1.524-1.122,4.12,4.12,0,0,0,2.254,2.375c5.45,2.322,17.2,7.031,26.935,8.885l15.926,3.033a16.271,16.271,0,0,0,9.567-1.028,8.6,8.6,0,0,0,4.426-3.659c.157-.316.313-.634.483-.943a223.233,223.233,0,0,1,13.046-20.812c.454-.628,5.294-8.793,11.809-10.634a5.278,5.278,0,0,1,4.97,1.184A1.328,1.328,0,0,0,4359.672,3958.659Z" transform="translate(-4270.406 -3956.666)" fill="#cd927b"/>
        </g>
        <g id="그룹_286" data-name="그룹 286" transform="translate(84.13 5.462)">
          <path id="패스_339" data-name="패스 339" d="M5100.845,3680.1a26.942,26.942,0,0,1,1.522,23.227l-3.65,7.437a22.461,22.461,0,0,0-1.9,5.7l-7.1,37.257-2.095-.4c-.125.693-.193,1.077-.191,1.077l3.016.574,7.1-37.257a22.515,22.515,0,0,1,1.9-5.7l3.65-7.437A27.007,27.007,0,0,0,5100.845,3680.1Z" transform="translate(-5087.433 -3680.103)" fill="#cd927b"/>
        </g>
        <g id="그룹_287" data-name="그룹 287" transform="translate(26.529 50.472)">
          <path id="패스_340" data-name="패스 340" d="M4526.351,4118.54s17.479.2,27.3,6.4C4553.648,4124.938,4545.382,4134.75,4526.351,4118.54Z" transform="translate(-4526.351 -4118.54)" fill="#bc7554"/>
        </g>
        <g id="그룹_288" data-name="그룹 288" transform="translate(26.529 50.472)">
          <path id="패스_341" data-name="패스 341" d="M4530.538,4119.338a82.679,82.679,0,0,1,11.008,1.023,82.583,82.583,0,0,0-15.195-1.821c7.9,6.688,14.2,9,18.576,9.3C4541.112,4126.694,4536.17,4124.1,4530.538,4119.338Z" transform="translate(-4526.351 -4118.54)" fill="#ae6952"/>
        </g>
        <g id="그룹_289" data-name="그룹 289" transform="translate(89.828 0.093)" opacity="0.3" style="mix-blend-mode: screen;isolation: isolate">
          <path id="패스_342" data-name="패스 342" d="M5146.351,3628.268c1.433,3.682,5.75,15.614,4.473,22.767a6.162,6.162,0,0,1-4.857,4.958h0a.529.529,0,0,1-.616-.656c.9-3.336,3.742-16.042-2.408-24.814l2.171-2.472A.735.735,0,0,1,5146.351,3628.268Z" transform="translate(-5142.943 -3627.8)" fill="#fff"/>
        </g>
        <g id="그룹_290" data-name="그룹 290" transform="translate(26.076 64.734)" opacity="0.3" style="mix-blend-mode: screen;isolation: isolate">
          <path id="패스_343" data-name="패스 343" d="M4521.944,4257.462s17.684,6.521,25.521,3.538C4547.465,4261,4537.9,4266.6,4521.944,4257.462Z" transform="translate(-4521.944 -4257.462)" fill="#fff"/>
        </g>
        <g id="그룹_291" data-name="그룹 291" transform="translate(89.359 27.319)">
          <path id="패스_344" data-name="패스 344" d="M5149.828,3893.006s-5.662,9.45-11.455,8.906C5138.373,3901.912,5146.678,3898.892,5149.828,3893.006Z" transform="translate(-5138.373 -3893.006)" fill="#c78468"/>
        </g>
      </g>
      <g id="그룹_304" data-name="그룹 304" transform="translate(4306.601 3653.625)">
        <g id="그룹_293" data-name="그룹 293" transform="translate(0 0)">
          <path id="패스_345" data-name="패스 345" d="M4726.12,3887.468a1.168,1.168,0,0,0-1.7.341c-2.545,4.278-11.8,20.238-15.429,32.025-.524,1.7-4.351,14.259-6.161,19.366-2.7,7.6-5.525,12.451-9.921,14.849,0,0-14.692.725-22.3-4.391a2.644,2.644,0,0,0-2.44-.269l-22.792,8.926a1.287,1.287,0,0,0-.818,1.2h0a4.127,4.127,0,0,0,3.247,4.033c5.788,1.261,18.214,3.689,28.121,3.689h16.213a16.272,16.272,0,0,0,9.207-2.8,8.6,8.6,0,0,0,3.663-4.422c.1-.34.188-.682.3-1.018a223.306,223.306,0,0,1,8.922-22.885c.328-.7,3.555-9.628,9.611-12.655a5.29,5.29,0,0,1,5.788.728c1.682,1.434,1.95,43.052,1.969,43.052h3.07V3929.31a22.479,22.479,0,0,1,.8-5.956l2.194-7.988S4741.876,3899.208,4726.12,3887.468Z" transform="translate(-4644.558 -3887.238)" fill="#e6ab8e"/>
        </g>
        <g id="그룹_294" data-name="그룹 294" transform="translate(27.402 0)">
          <path id="패스_346" data-name="패스 346" d="M4933.2,3954.49c4.4-2.4,7.225-7.247,9.921-14.849,1.811-5.106,5.637-17.664,6.161-19.365,3.629-11.788,12.884-27.748,15.429-32.025a1.17,1.17,0,0,1,1.24-.548l-.311-.235a1.169,1.169,0,0,0-1.7.341c-2.544,4.278-11.8,20.238-15.429,32.025-.523,1.7-4.35,14.259-6.161,19.366-2.7,7.6-5.525,12.451-9.921,14.849,0,0-13.081.645-20.949-3.581C4919.227,3955.179,4933.2,3954.49,4933.2,3954.49Z" transform="translate(-4911.477 -3887.238)" fill="#ebbdaa"/>
        </g>
        <g id="그룹_295" data-name="그룹 295" transform="translate(0 61.969)">
          <path id="패스_347" data-name="패스 347" d="M4645.33,4501.619h0a1.288,1.288,0,0,1,.818-1.2l22.791-8.926a2.64,2.64,0,0,1,1.947.01c-.094-.06-.187-.12-.278-.181a2.643,2.643,0,0,0-2.44-.27l-22.792,8.925a1.29,1.29,0,0,0-.818,1.2h0a4.129,4.129,0,0,0,2.477,3.784A4.129,4.129,0,0,1,4645.33,4501.619Z" transform="translate(-4644.558 -4490.871)" fill="#ebbdaa"/>
        </g>
        <g id="그룹_296" data-name="그룹 296" transform="translate(84.63 36.61)">
          <path id="패스_348" data-name="패스 348" d="M5470.14,4244.625a5.348,5.348,0,0,0-1.21-.777,5.514,5.514,0,0,1,.438.336c1.682,1.434,1.95,43.052,1.969,43.052h.765C5472.052,4282.782,5471.72,4245.972,5470.14,4244.625Z" transform="translate(-5468.93 -4243.848)" fill="#d39c8c"/>
        </g>
        <g id="그룹_297" data-name="그룹 297" transform="translate(0.587 34.575)">
          <path id="패스_349" data-name="패스 349" d="M4733.811,4225.309a5.29,5.29,0,0,0-5.788-.728c-6.056,3.027-9.283,11.953-9.611,12.655a223.187,223.187,0,0,0-8.922,22.885c-.11.336-.2.677-.3,1.018a8.6,8.6,0,0,1-3.663,4.422,16.272,16.272,0,0,1-9.206,2.8H4680.11c-9.908,0-22.333-2.427-28.122-3.688a4.116,4.116,0,0,1-1.708-.817,4.119,4.119,0,0,0,2.659,1.911c5.788,1.262,18.213,3.689,28.121,3.689h16.213a16.279,16.279,0,0,0,9.207-2.8,8.6,8.6,0,0,0,3.662-4.422c.1-.34.189-.682.3-1.018a223.1,223.1,0,0,1,8.922-22.885c.328-.7,3.555-9.628,9.611-12.655a5.275,5.275,0,0,1,5.1.233A1.329,1.329,0,0,0,4733.811,4225.309Z" transform="translate(-4650.281 -4224.032)" fill="#cd927b"/>
        </g>
        <g id="그룹_298" data-name="그룹 298" transform="translate(86.313 4.502)">
          <path id="패스_350" data-name="패스 350" d="M5485.324,3931.092a26.939,26.939,0,0,1,5.84,22.532l-2.194,7.988a22.515,22.515,0,0,0-.8,5.956v37.926h-2.132c.008.7.012,1.094.014,1.094h3.07v-37.926a22.5,22.5,0,0,1,.8-5.956l2.194-7.988A27.008,27.008,0,0,0,5485.324,3931.092Z" transform="translate(-5485.324 -3931.092)" fill="#cd927b"/>
        </g>
        <g id="그룹_299" data-name="그룹 299" transform="translate(24.975 60.93)">
          <path id="패스_351" data-name="패스 351" d="M4887.832,4481.82s17.208-3.072,28.013,1.178C4915.845,4483,4909.56,4494.184,4887.832,4481.82Z" transform="translate(-4887.832 -4480.747)" fill="#bc7554"/>
        </g>
        <g id="그룹_300" data-name="그룹 300" transform="translate(24.975 60.918)">
          <path id="패스_352" data-name="패스 352" d="M4892.094,4481.715a82.712,82.712,0,0,1,11.005-1.054,82.556,82.556,0,0,0-15.268,1.054c9.013,5.091,15.636,6.18,19.988,5.665C4903.858,4486.964,4898.519,4485.344,4892.094,4481.715Z" transform="translate(-4887.832 -4480.629)" fill="#ae6952"/>
        </g>
        <g id="그룹_301" data-name="그룹 301" transform="translate(78.24 0.148)" opacity="0.3" style="mix-blend-mode: screen;isolation: isolate">
          <path id="패스_353" data-name="패스 353" d="M5409.611,3889.026c2.1,3.349,8.57,14.263,8.653,21.528a6.162,6.162,0,0,1-3.843,5.779h0a.529.529,0,0,1-.728-.53c.26-3.445.675-16.459-7.009-23.926l1.671-2.834A.734.734,0,0,1,5409.611,3889.026Z" transform="translate(-5406.686 -3888.682)" fill="#fff"/>
        </g>
        <g id="그룹_302" data-name="그룹 302" transform="translate(27.198 74.799)" opacity="0.3" style="mix-blend-mode: screen;isolation: isolate">
          <path id="패스_354" data-name="패스 354" d="M4909.494,4617.142s18.592,3.1,25.733-1.3C4935.228,4615.843,4926.881,4623.137,4909.494,4617.142Z" transform="translate(-4909.494 -4615.843)" fill="#fff"/>
        </g>
        <g id="그룹_303" data-name="그룹 303" transform="translate(84.03 25.361)">
          <path id="패스_355" data-name="패스 355" d="M5472.669,4134.272s-3.794,10.342-9.587,10.892C5463.082,4145.164,5470.675,4140.643,5472.669,4134.272Z" transform="translate(-5463.082 -4134.272)" fill="#c78468"/>
        </g>
      </g>
    </g>
    <g id="그룹_377" data-name="그룹 377" transform="translate(-1682.499 -1934.902)">
      <path id="패스_519" data-name="패스 519" d="M2443.141,4311.284a53.406,53.406,0,0,0-10.218,11.489c-6.153,9.35-11.957,17.879-17.4,20.624-.246-1.012-.415-2.173-.006-2.542.773-.693,15.331-19.022,20.263-24.208A29.563,29.563,0,0,1,2443.141,4311.284Z" transform="translate(-2.354 -18.269)" fill="#223"/>
      <path id="패스_520" data-name="패스 520" d="M2497.5,4315.069c-.178-.034-.361-.068-.546-.113-5.94-1.363-13.62-8.25-21.83-15.858-1.722-1.594-3.652-3-5.521-4.46-.465-.37-.935-.738-1.39-1.114-.734-.605-1.424-1.255-2.108-1.906a.069.069,0,0,0-.019-.02,23.677,23.677,0,0,0-4.81-3.87c-.27-.146-.544-.287-.818-.416a13.971,13.971,0,0,0-7.652-1.3,14.2,14.2,0,0,0-8.427,4.271,41.943,41.943,0,0,0-3.6,2.728,53.394,53.394,0,0,0-10.218,11.489c-6.153,9.35-11.957,17.879-17.4,20.624-.163.081-.333.164-.5.234a1.117,1.117,0,0,0-.659,1.172c.725,5.788,7.651,28.069,13.834,41.775l69.131-8.387c2.726-14.788,4.124-38.078,3.443-43.872A1.118,1.118,0,0,0,2497.5,4315.069Zm-32.2,9.278c-.01.013-.02.02-.025.026a14.389,14.389,0,0,1-9.086,4.978c-9.135,1.108-17.669-7.322-19.066-18.832-.889-7.325,1.322-14.124,5.4-18.389a15.137,15.137,0,0,1,1.166-1.1c.006,0,.006,0,0-.006a14.421,14.421,0,0,1,1.742-1.292,13.5,13.5,0,0,1,11.713-1.421,15.355,15.355,0,0,1,3.4,1.638c4.983,3.165,8.755,9.238,9.644,16.563C2471.051,4313.523,2469.054,4320.056,2465.3,4324.348Z" transform="translate(0 0)" fill="#dec7b8"/>
      <path id="패스_521" data-name="패스 521" d="M2530.627,4550.5c-.919,5.023-2,9.064-3.2,11.1a2.738,2.738,0,0,1-2.037,1.306l-55.845,6.775a2.748,2.748,0,0,1-2.3-.78c-1.65-1.693-3.663-5.358-5.758-10.016Z" transform="translate(-35.654 -190.581)" fill="#223"/>
      <path id="패스_522" data-name="패스 522" d="M2635.945,4329.225c-5.94-1.363-13.621-8.251-21.831-15.858a52.858,52.858,0,0,0-5.521-4.46c-.465-.37-.935-.738-1.39-1.114-.734-.605-1.424-1.255-2.107-1.906a.076.076,0,0,0-.02-.02c-.039-.045-.083-.091-.123-.136a25.1,25.1,0,0,1,4.926,2.371c6.035,3.855,24.553,18.171,25.464,18.66C2635.829,4327.02,2635.942,4328.183,2635.945,4329.225Z" transform="translate(-138.988 -14.268)" fill="#223"/>
      <path id="패스_523" data-name="패스 523" d="M2529.485,4339.843a14.389,14.389,0,0,1-9.086,4.978c-9.135,1.109-17.669-7.322-19.066-18.832-.888-7.325,1.322-14.124,5.4-18.389q.223-.1.429-.2a23.388,23.388,0,0,0-4.156,16.938c1.4,11.509,9.931,19.945,19.067,18.837A13.924,13.924,0,0,0,2529.485,4339.843Z" transform="translate(-64.208 -15.47)" fill="#223"/>
    </g>
  </g>
</svg>
